<svg width="852" height="108" viewBox="0 0 852 108" fill="none" xmlns="http://www.w3.org/2000/svg">
<path d="M297.846 0.304077L261.533 71.4083V106.507H235.971V71.4083L199.658 0.304077H228.653L248.974 44.7829L269.152 0.304077H297.846Z" fill="white"/>
<path d="M426.968 0.304077V106.507H401.405V42.8154L377.946 106.507H357.317L333.707 42.6677V106.507H308.144V0.304077H338.334L367.775 73.8297L396.925 0.304077H426.968Z" fill="white"/>
<path d="M442.659 53.7065C442.502 44.0286 444.924 34.4803 449.682 26.0211C454.251 18.0649 460.914 11.4799 468.962 6.96474C477.589 2.18028 487.36 -0.218206 497.249 0.0213429C507.137 0.260892 516.778 3.12962 525.158 8.32607C533.867 13.8205 540.49 22.0132 543.992 31.6237H523.514C521.162 26.4446 517.247 22.1115 512.306 19.218C507.242 16.4234 501.517 15.0133 495.719 15.1328C489.275 15.021 482.921 16.6422 477.336 19.823C471.887 23.0179 467.477 27.688 464.627 33.2816C461.524 39.6444 459.988 46.6432 460.146 53.7054C459.988 60.7676 461.523 67.7664 464.627 74.1291C467.5 79.7479 471.902 84.463 477.336 87.7449C482.921 90.9258 489.275 92.5469 495.719 92.4351C501.517 92.5546 507.242 91.1445 512.306 88.3499C517.247 85.4565 521.162 81.1234 523.514 75.9442H543.992C540.491 85.555 533.867 93.7477 525.158 99.2418C516.742 104.343 507.113 107.156 497.245 107.395C487.377 107.634 477.62 105.291 468.962 100.603C460.928 96.001 454.274 89.3712 449.682 81.3919C444.924 72.9329 442.502 63.3845 442.659 53.7065Z" fill="white"/>
<path d="M626.554 85.0237H583.062L575.588 106.506H557.809L595.019 1.21118H614.751L651.972 106.506H634.03L626.554 85.0237ZM621.772 70.9541L604.883 22.0887L587.843 70.9553L621.772 70.9541Z" fill="white"/>
<path d="M722.098 106.506L698.186 64.448H685.177V106.506H668.149V1.3606H704.016C711.989 1.3606 718.715 2.77275 724.194 5.59707C729.388 8.06098 733.712 12.0146 736.601 16.9428C739.415 21.7695 740.861 27.2569 740.787 32.8275C740.832 39.5452 738.742 46.1072 734.812 51.5873C730.921 57.1343 724.891 60.9167 716.724 62.9343L742.431 106.504L722.098 106.506ZM685.182 50.681H704.016C710.391 50.681 715.173 49.0671 718.364 45.8395C721.656 42.6118 723.302 38.2749 723.302 32.8287C723.302 27.3825 721.708 23.1464 718.52 20.1204C715.33 16.9936 710.497 15.4306 704.022 15.4314H685.182V50.681Z" fill="white"/>
<path d="M796.504 1.3606C807.562 1.3606 817.227 3.52905 825.499 7.86598C833.685 11.9239 840.414 18.3675 844.779 26.3269C849.365 34.2948 851.658 43.6245 851.658 54.316C851.659 65.0074 849.366 74.2863 844.779 82.1526C840.341 89.9801 833.623 96.3059 825.499 100.307C817.228 104.443 807.562 106.51 796.504 106.51H762.571V1.3606H796.504ZM796.504 92.4359C808.663 92.4359 817.978 89.1074 824.45 82.4504C830.921 75.7934 834.16 66.4136 834.165 54.3112C834.165 42.108 830.926 32.577 824.45 25.7183C817.973 18.8595 808.658 15.4306 796.504 15.4314H779.616V92.4359H796.504Z" fill="white"/>
<path d="M187.643 107.413H151.429L108.631 55.3339L108.637 107.413H72.4227V0.302518H107.771L150.517 55.3339L151.429 0H187.643V107.413Z" fill="white"/>
<path d="M72.4232 71.6115H36.2103V107.416H72.4232V71.6115Z" fill="white"/>
<path d="M108.634 35.8032H72.4208V71.6078H108.634V35.8032Z" fill="white"/>
<path d="M36.2129 35.8032H0V71.6078H36.2129V35.8032Z" fill="white"/>
<path d="M72.4232 0H36.2103V35.8046H72.4232V0Z" fill="white"/>
</svg>
