<svg width="181" height="81" viewBox="0 0 181 81" fill="none" xmlns="http://www.w3.org/2000/svg">
<mask id="mask0_5384_13326" style="mask-type:luminance" maskUnits="userSpaceOnUse" x="27" y="12" width="126" height="57">
<path d="M152.709 12.0107H27.5975V68.561H152.709V12.0107Z" fill="white"/>
</mask>
<g mask="url(#mask0_5384_13326)">
<path d="M92.2115 48.7047C91.8752 47.9409 91.7071 47.3469 91.5389 46.9226C91.3713 46.4983 91.1191 46.074 90.8668 45.6497C90.6151 45.2254 90.2788 44.9708 89.7749 44.7163C89.3545 44.4617 88.8505 44.292 88.1779 44.292C87.5058 44.292 87.0019 44.4617 86.498 44.7163C86.0776 44.9708 85.7413 45.2254 85.4896 45.6497C85.2373 46.074 84.9851 46.5832 84.7334 47.1772C84.4812 47.7712 84.313 48.3652 84.0608 48.7895L78.1796 63.9791C77.9273 64.5732 77.7592 65.0826 77.6751 65.4219C77.507 65.7612 77.507 66.101 77.507 66.4403C77.507 66.9493 77.6751 67.4587 78.1796 67.8831C78.5994 68.307 79.1875 68.5617 79.776 68.5617C80.4481 68.5617 80.952 68.307 81.2042 67.8831C81.5405 67.5433 81.9604 66.6951 82.3808 65.507L83.4728 62.5369L84.7334 58.9727L88.0944 49.2987L91.623 58.9727L92.8836 62.5369L93.9756 65.507L94.5641 66.7796C94.7323 67.204 94.8999 67.5433 95.1521 67.798C95.3203 68.0528 95.4884 68.2224 95.7402 68.307C96.0765 68.4766 96.3287 68.5617 96.7486 68.5617C97.3366 68.5617 97.9251 68.307 98.345 67.8831C98.8494 67.4587 99.0171 66.9493 99.0171 66.3553C99.0171 65.8463 98.7654 64.9975 98.345 63.8946L92.2115 48.7047Z" fill="#9BA0B1"/>
<path d="M42.3857 48.7047L41.6295 46.9226C41.4615 46.4983 41.2094 46.074 40.9573 45.6497C40.7052 45.2254 40.3691 44.9708 39.865 44.7163C39.4449 44.4617 38.9407 44.292 38.2685 44.292C37.5964 44.292 37.0922 44.4617 36.6721 44.7163C36.168 44.9708 35.8319 45.2254 35.5798 45.6497C35.3277 46.074 35.0756 46.5832 34.8236 47.1772C34.5715 47.7712 34.4034 48.3652 34.2354 48.7895L28.2697 63.9791C28.0177 64.5732 27.8496 65.0826 27.7656 65.4219C27.5975 65.7612 27.5975 66.101 27.5975 66.4403C27.5975 66.9493 27.8496 67.4587 28.2697 67.8831C28.6899 68.307 29.278 68.5617 29.8661 68.5617C30.5383 68.5617 31.0425 68.307 31.3786 67.8831C31.6307 67.5433 32.0508 66.6951 32.4709 65.507L33.5632 62.5369L34.8236 58.9727L38.2685 49.2987L41.7135 58.9727L42.9738 62.5369L44.0662 65.507L44.6543 66.7796C44.8224 67.204 45.0745 67.5433 45.2425 67.798C45.4106 68.0528 45.5786 68.2224 45.9147 68.307C46.1667 68.4766 46.4188 68.5617 46.8389 68.5617C47.4271 68.5617 48.0153 68.307 48.4354 67.8831C48.9396 67.4587 49.1076 66.9493 49.1076 66.3553C49.1076 65.8463 48.8555 64.9975 48.4354 63.8946L42.3857 48.7047Z" fill="#9BA0B1"/>
<path d="M72.1306 64.8279C71.7943 64.4035 71.2063 64.2339 70.4501 64.2339H60.8711V47.1772C60.8711 46.2437 60.6194 45.48 60.2831 45.0557C59.7792 44.5466 59.2747 44.292 58.5185 44.292C57.8465 44.292 57.2584 44.5466 56.8381 45.0557C56.4182 45.48 56.166 46.2437 56.166 47.1772V65.2523C56.166 66.2707 56.4182 67.0344 56.8381 67.4587C57.3425 67.8831 58.0146 68.1373 59.1066 68.1373H70.4501C71.2063 68.1373 71.7943 67.9677 72.2142 67.6284C72.5505 67.2891 72.8027 66.7796 72.8027 66.1856C72.8027 65.6766 72.5505 65.1672 72.1306 64.8279Z" fill="#9BA0B1"/>
<path d="M150.524 44.292C149.852 44.292 149.347 44.5466 149.011 44.9708C148.591 45.3951 148.423 46.074 148.423 47.0075V61.0095L139.348 47.1772C139.097 46.7529 138.844 46.3286 138.592 45.9891C138.425 45.5649 138.172 45.3103 137.92 45.0557C137.668 44.8011 137.416 44.6314 137.164 44.4617C136.828 44.3768 136.492 44.292 136.071 44.292C135.483 44.292 134.979 44.4617 134.559 44.7163C134.055 45.0557 133.719 45.48 133.551 45.9043C133.383 46.3286 133.299 46.9226 133.299 47.7712V65.8463C133.299 66.6951 133.467 67.3737 133.887 67.8831C134.307 68.307 134.811 68.5617 135.483 68.5617C136.155 68.5617 136.66 68.307 137.08 67.8831C137.5 67.3737 137.668 66.6951 137.668 65.8463V52.0991L146.491 65.7612L147.247 66.8647C147.499 67.204 147.835 67.5433 148.087 67.798C148.423 68.0528 148.675 68.2224 149.011 68.3921C149.347 68.4766 149.768 68.5617 150.187 68.5617C151.868 68.5617 152.708 67.5433 152.708 65.507V47.0075C152.708 46.1589 152.54 45.48 152.12 44.9708C151.7 44.5466 151.196 44.292 150.524 44.292Z" fill="#9BA0B1"/>
<path d="M119.268 48.7047C118.931 47.9409 118.764 47.3469 118.595 46.9226C118.427 46.4983 118.175 46.074 117.923 45.6497C117.671 45.2254 117.251 44.9708 116.831 44.7163C116.411 44.4617 115.822 44.292 115.234 44.292C114.562 44.292 113.974 44.4617 113.554 44.7163C113.134 44.9708 112.798 45.2254 112.546 45.6497C112.21 46.074 112.042 46.5832 111.789 47.1772L111.117 48.7895L105.236 63.9791C104.983 64.5732 104.816 65.0826 104.648 65.4219C104.563 65.7612 104.563 66.101 104.563 66.4403C104.563 66.9493 104.732 67.4587 105.236 67.8831C105.656 68.307 106.16 68.5617 106.748 68.5617C107.504 68.5617 108.009 68.307 108.26 67.8831C108.597 67.5433 108.849 66.6951 109.353 65.507L110.529 62.5369L111.705 58.9727L115.15 49.2987L118.68 58.9727L119.94 62.5369L121.032 65.507L121.62 66.7796C121.788 67.204 121.956 67.5433 122.125 67.798C122.376 68.0528 122.544 68.2224 122.797 68.307C123.048 68.4766 123.385 68.5617 123.805 68.5617C124.393 68.5617 124.981 68.307 125.402 67.8831C125.821 67.4587 126.074 66.9493 126.074 66.3553C126.074 65.8463 125.737 64.9975 125.317 63.8946L119.268 48.7047Z" fill="#9BA0B1"/>
<path d="M68.7686 17.0174C70.1133 17.0174 71.2894 15.8294 71.2894 14.4717C71.2894 13.1139 70.1133 12.0107 68.7686 12.0107C67.4244 12.0107 66.332 13.1139 66.332 14.4717C66.332 15.8294 67.4244 17.0174 68.7686 17.0174Z" fill="#9BA0B1"/>
<path d="M87.0024 17.2713C87.0024 16.0833 87.9267 15.5741 89.1032 15.5741C91.7076 15.5741 92.5478 17.5259 95.1526 17.5259C97.5893 17.5259 98.7658 15.7438 98.7658 14.0467C98.7658 13.5375 98.6818 13.1132 98.5136 12.6889H97.7574C97.5893 13.9618 96.4133 14.0467 95.2367 14.0467C93.304 14.0467 91.5399 12.2646 89.6072 12.2646C87.2546 12.2646 85.9099 13.877 85.9099 15.7438C85.9099 16.253 86.0781 16.7622 86.2462 17.2713H87.0024Z" fill="#9BA0B1"/>
<path d="M105.823 12.0107C104.227 12.0107 103.471 12.8593 103.471 14.896V31.9527H95.2362V22.2787C95.2362 20.4118 94.396 19.3935 93.0518 19.3935C91.7071 19.3935 90.8668 20.2421 90.8668 22.2787V31.9527H84.3971C83.6409 31.9527 83.0529 32.1224 82.7166 32.5467C82.2967 32.8861 82.0445 33.3953 82.0445 33.9044C82.0445 34.4985 82.2967 35.0076 82.6325 35.3471C83.0529 35.6865 83.6409 35.8562 84.3971 35.8562H102.798C106.159 35.8562 108.176 34.6682 108.176 30.2555V14.896C108.176 13.029 107.335 12.0107 105.823 12.0107Z" fill="#9BA0B1"/>
<path d="M118.259 12.0107C116.663 12.0107 115.906 12.8593 115.906 14.896V33.2256C115.906 34.3287 116.159 35.0925 116.495 35.5168C116.999 36.0259 117.503 36.2805 118.259 36.2805C118.931 36.2805 119.52 36.0259 119.94 35.5168C120.36 35.0925 120.612 34.3287 120.612 33.3953V14.896C120.612 13.029 119.771 12.0107 118.259 12.0107Z" fill="#9BA0B1"/>
<path d="M75.407 19.4775C74.3146 19.4775 73.2221 20.0716 73.2221 22.2779V28.1332C73.2221 31.5275 71.6257 32.6307 68.6851 32.6307C66.2484 32.6307 64.0635 32.2065 64.0635 28.3029V22.2779C64.0635 20.0716 62.9715 19.4775 61.879 19.4775C60.7865 19.4775 59.6946 20.0716 59.6946 22.2779V28.3029C59.6946 32.7156 62.2994 36.2797 68.6851 36.2797C75.1548 36.2797 77.5915 32.9702 77.5915 28.3029V22.2779C77.5915 20.0716 76.499 19.4775 75.407 19.4775Z" fill="#9BA0B1"/>
</g>
</svg>
