<svg width="175" height="81" viewBox="0 0 175 81" fill="none" xmlns="http://www.w3.org/2000/svg">
<path fill-rule="evenodd" clip-rule="evenodd" d="M22.5071 73.0672C9.29218 66.9177 0.564003 54.7411 0.564003 40.2167C0.0172098 19.2031 21.1093 3.12574 38.4471 4.84818C22.4946 6.91048 9.15125 20.7257 9.65701 37.9189C10.2092 56.5688 22.7105 70.9674 42.5717 72.0021C51.4916 72.4579 58.6276 70.1289 64.6245 65.1676C64.9295 64.9375 65.2355 64.6931 65.5477 64.454C55.8365 77.4299 33.5152 78.1908 22.5 73.0663" fill="#9BA0B1"/>
<path fill-rule="evenodd" clip-rule="evenodd" d="M42.5769 4.57031C58.4045 4.57031 65.2435 13.4332 67.5528 16.4794C56.9961 8.57984 48.4597 4.29825 35.2519 8.44604C22.7871 12.3565 13.1598 24.1211 13.5764 38.3564C14.0955 55.8556 25.7468 69.3801 44.245 70.3372C48.2731 70.5668 52.3072 70.005 56.1192 68.6834C59.2315 67.5258 62.2558 66.1443 65.1685 64.5499C59.0619 69.8127 51.769 72.2889 42.5769 71.825C22.7113 70.7939 10.2091 56.431 9.65784 37.8284C9.10658 19.2258 24.8735 4.57031 42.5769 4.57031Z" fill="#9BA0B1"/>
<path fill-rule="evenodd" clip-rule="evenodd" d="M18.3343 21.4616L44.3493 10.4392C44.3493 10.4392 46.9299 9.42675 45.7176 11.2794L14.7654 28.3397" fill="#9BA0B1"/>
<path fill-rule="evenodd" clip-rule="evenodd" d="M12.6139 32.7841L54.7036 14.8068C54.7036 14.8068 57.3912 14.153 56.1932 15.9985L12.1964 39.6587" fill="#9BA0B1"/>
<path fill-rule="evenodd" clip-rule="evenodd" d="M13.7566 41.7188L45.1709 27.8036C45.1709 27.8036 47.8648 27.1462 46.6606 28.9998L13.2188 47.7389" fill="#9BA0B1"/>
<path fill-rule="evenodd" clip-rule="evenodd" d="M15.4122 50.1875L45.7891 36.7683C45.7891 36.7683 48.4811 36.118 47.2671 37.9644L14.8707 56.196" fill="#9BA0B1"/>
<path fill-rule="evenodd" clip-rule="evenodd" d="M19.6172 57.1004L47.6259 45.2475C47.6259 45.2475 50.3357 44.5839 49.1244 46.4357L20.9284 62.6361" fill="#9BA0B1"/>
<path fill-rule="evenodd" clip-rule="evenodd" d="M24.5579 63.9983L44.7874 55.4994C44.7874 55.4994 47.4821 54.8429 46.2771 56.6991L27.9787 67.3772" fill="#9BA0B1"/>
<path fill-rule="evenodd" clip-rule="evenodd" d="M34.457 69.6332L46.5097 64.3812C46.5097 64.3812 49.2044 63.73 47.9949 65.5729L38.7395 70.9766" fill="#9BA0B1"/>
<path fill-rule="evenodd" clip-rule="evenodd" d="M60.4134 34.929L60.3751 30.6331L89.8306 30.7464L89.9082 44.3047L82.8328 44.3092C82.4957 44.3092 82.8328 42.9828 82.4957 42.9783C82.1585 42.9739 81.9854 44.3815 81.6402 44.3672L54.1668 44.3815C50.8271 43.2352 50.6371 41.6983 50.4561 40.0107L50.5051 26.7904C50.5283 23.2313 52.6352 22.028 58.8988 22.028L87.96 21.9941L89.2365 26.0973L60.9602 26.0715C59.0335 26.0715 58.7472 27.3577 58.7623 28.7858L58.7766 39.4095C58.7766 39.7511 59.1334 40.1507 60.2145 40.2952L81.1345 40.3496V34.9209" fill="#9BA0B1"/>
<path fill-rule="evenodd" clip-rule="evenodd" d="M103.452 26.6716C101.596 26.6716 100.488 27.4566 100.488 28.3432L100.477 39.4147C100.477 40.1541 101.325 40.37 102.501 40.5118L126.934 40.5261L125.953 44.3786L94.1906 44.3608C91.3425 44.45 91.9606 42.9336 91.9116 41.1799L91.8875 27.9962L91.9437 24.3622C91.9713 21.7514 92.9347 22.0136 95.4796 22.0011L125.486 21.9922L126.988 26.6306" fill="#9BA0B1"/>
<path fill-rule="evenodd" clip-rule="evenodd" d="M141.279 26.6716C139.416 26.6716 138.31 27.4566 138.31 28.3432L138.297 39.4147C138.297 40.1541 139.146 40.37 140.325 40.5118L164.749 40.5261L163.779 44.3786L132.024 44.3608C129.175 44.45 129.779 42.9336 129.741 41.1799L129.731 27.9962L129.766 24.3622C129.799 21.7514 130.768 22.0136 133.307 22.0011L163.317 21.9922L164.821 26.6306" fill="#9BA0B1"/>
<path fill-rule="evenodd" clip-rule="evenodd" d="M155.172 63.5807V48.5176H164.529V50.2186H158.027V54.9845H164.143V56.6793H158.027V61.8832H164.721V63.578" fill="#9BA0B1"/>
<path fill-rule="evenodd" clip-rule="evenodd" d="M145.603 63.7644C143.284 63.7644 141.694 63.3969 140.814 62.6655C139.935 61.934 139.499 60.6139 139.499 58.6747V53.1238C139.437 52.4431 139.534 51.7572 139.781 51.1201C140.029 50.483 140.421 49.9118 140.926 49.4515C141.893 48.6986 143.452 48.3302 145.607 48.3302C147.14 48.2176 148.673 48.5464 150.025 49.2775C150.493 49.6166 150.863 50.0731 151.098 50.6009C151.333 51.1287 151.424 51.7091 151.363 52.2835V52.7295H148.509V52.2835C148.548 51.9631 148.507 51.6379 148.391 51.3368C148.274 51.0358 148.085 50.7681 147.841 50.5575C147.17 50.1467 146.385 49.9616 145.601 50.0295C144.705 49.9468 143.811 50.2104 143.103 50.7663C142.823 51.0932 142.612 51.473 142.482 51.8832C142.351 52.2934 142.305 52.7256 142.345 53.1541V58.7139C142.242 59.6499 142.495 60.5903 143.054 61.348C143.778 61.9082 144.691 62.1667 145.601 62.0696C146.581 62.0716 147.558 61.9518 148.509 61.7128V57.2921H145.314V55.592H151.362V63.0669C149.488 63.5871 147.545 63.8213 145.601 63.7617" fill="#9BA0B1"/>
<path fill-rule="evenodd" clip-rule="evenodd" d="M126.937 63.5807H124.211V48.5176H128.736L134.121 61.5273V48.5176H136.761V63.5807H132.285L126.937 50.6494" fill="#9BA0B1"/>
<path fill-rule="evenodd" clip-rule="evenodd" d="M108.257 63.5814L113.038 48.5156H116.843L121.616 63.5814H118.583L117.618 60.174H112.032L111.043 63.5814H109.646M114.859 50.3799L112.526 58.473H117.18L114.844 50.3799H114.859Z" fill="#9BA0B1"/>
<path fill-rule="evenodd" clip-rule="evenodd" d="M93.7776 63.5807V48.5176H96.6409V54.9854H102.679V48.5176H105.533V63.5807H102.679V56.682H96.6409V63.5807H95.2137" fill="#9BA0B1"/>
<path fill-rule="evenodd" clip-rule="evenodd" d="M90.4051 58.6754V59.1303C90.4991 59.7716 90.4403 60.426 90.2335 61.0403C90.0267 61.6546 89.6778 62.2113 89.2152 62.6653C88.3562 63.3985 86.9379 63.7642 84.9425 63.7642C83.4206 63.8758 81.9006 63.5231 80.5833 62.7527C80.1052 62.394 79.7251 61.9208 79.478 61.3766C79.231 60.8324 79.1249 60.2347 79.1695 59.6387V52.9345C79.1091 52.2806 79.2019 51.6217 79.4405 51.01C79.6791 50.3982 80.057 49.8505 80.5441 49.4102C81.4789 48.6904 82.973 48.3291 85.0585 48.3291C87.0343 48.3291 88.4481 48.6609 89.2937 49.3157C89.6834 49.6238 89.9902 50.0242 90.1863 50.4807C90.3823 50.9371 90.4615 51.4353 90.4167 51.9301L90.406 52.435V52.881H87.5472V52.435C87.6022 52.1046 87.589 51.7665 87.5085 51.4415C87.4279 51.1164 87.2817 50.8113 87.0789 50.5448C86.5024 50.1307 85.7922 49.9462 85.087 50.0275C84.2614 49.9535 83.4353 50.1648 82.7464 50.626C82.4835 50.8748 82.2811 51.1806 82.1549 51.5199C82.0287 51.8592 81.9821 52.2229 82.0186 52.583V59.2908C81.9331 60.0671 82.1532 60.8461 82.6323 61.4629C83.2657 61.9409 84.0585 62.1577 84.8471 62.0685C85.2268 62.1065 85.6102 62.0642 85.9726 61.9445C86.3349 61.8248 86.668 61.6303 86.9504 61.3736C87.4264 60.7282 87.6397 59.9261 87.5472 59.1294V58.6745" fill="#9BA0B1"/>
<path fill-rule="evenodd" clip-rule="evenodd" d="M62.8735 63.5807L68.1095 55.6197L63.4765 48.5176H66.5985L69.8097 53.99V53.9677L73.1591 48.5176H76.0653L71.3805 55.7526L76.3025 63.5807H73.2475L69.7214 57.5901L65.9099 63.5807H64.4015" fill="#9BA0B1"/>
<path fill-rule="evenodd" clip-rule="evenodd" d="M62.8762 63.5748L72.8746 48.5117H76.068L71.3011 55.8823L66.0294 63.6917L65.9126 63.5748H64.4042" fill="white"/>
<path fill-rule="evenodd" clip-rule="evenodd" d="M62.8762 63.5748L72.8746 48.5117H76.068L71.3011 55.8823L66.0294 63.6917L65.9126 63.5748H64.4042" fill="#9BA0B1"/>
<path fill-rule="evenodd" clip-rule="evenodd" d="M51.2838 63.5807V48.5176H60.6498V50.2186H54.1525V54.9845H60.268V56.6793H54.1525V61.8832H60.8424V63.578" fill="#9BA0B1"/>
<path d="M67.7527 71.6255L67.2559 69.4722C67.2132 69.1982 67.109 68.9374 66.9508 68.7096C66.8157 68.5832 66.6426 68.5051 66.4584 68.4875L66.5066 68.326H69.344L69.2914 68.4875C69.0764 68.4687 68.8618 68.5286 68.6875 68.656C68.6284 68.7041 68.5806 68.7648 68.5478 68.8336C68.5149 68.9024 68.4978 68.9776 68.4976 69.0539C68.5084 69.223 68.5347 69.3908 68.576 69.5552L68.9596 71.3026L69.914 69.986C70.0871 69.762 70.2403 69.5232 70.3716 69.2724C70.4259 69.1585 70.4563 69.0346 70.4608 68.9085C70.461 68.8571 70.4506 68.8062 70.4304 68.7589C70.4101 68.7117 70.3804 68.6691 70.3431 68.6338C70.2366 68.5438 70.1033 68.4917 69.964 68.4857L70.0122 68.3242H71.7863V68.4857C71.6367 68.4994 71.4936 68.5536 71.3725 68.6427C71.117 68.8935 70.8891 69.171 70.6928 69.4704L69.0149 71.7807L68.6224 73.1481C68.5675 73.3087 68.5251 73.4733 68.4958 73.6405C68.4947 73.6997 68.507 73.7585 68.5319 73.8122C68.5568 73.866 68.5935 73.9134 68.6394 73.9509C68.782 74.0454 68.9525 74.0884 69.1228 74.0731H69.2888L69.2406 74.2346H66.2158L66.2595 74.0731C66.4423 74.083 66.625 74.0525 66.7947 73.9839C66.9149 73.932 67.0188 73.8484 67.0953 73.7422C67.1838 73.5644 67.2526 73.3775 67.3005 73.1847L67.7527 71.6255Z" fill="#9BA0B1"/>
<path d="M72.7122 70.1973C72.9379 70.1965 73.1603 70.2513 73.3598 70.357C73.5542 70.4556 73.7138 70.6112 73.8174 70.803C73.921 70.9946 73.9741 71.2095 73.9717 71.4274C73.9644 71.9242 73.8285 72.4106 73.5775 72.8394C73.3304 73.2924 72.9726 73.6754 72.5374 73.9526C72.1527 74.2105 71.7017 74.3521 71.2386 74.3602C71.0691 74.3701 70.8995 74.3433 70.7413 74.2817C70.5831 74.2201 70.44 74.1252 70.3217 74.0034C70.1054 73.7687 69.9889 73.4591 69.997 73.14C69.9944 72.7487 70.0769 72.3616 70.2387 72.0054C70.3913 71.6653 70.599 71.3528 70.8533 71.0804C71.0999 70.8193 71.3896 70.6027 71.7096 70.4399C72.0197 70.2802 72.3635 70.1971 72.7122 70.1973ZM72.5338 70.4283C72.3934 70.4234 72.2564 70.4718 72.1503 70.5639C71.8367 70.9407 71.6025 71.377 71.4616 71.8466C71.2252 72.4251 71.0952 73.0415 71.0781 73.6663C71.0736 73.7884 71.1175 73.9073 71.2003 73.9972C71.2359 74.0384 71.28 74.0714 71.3296 74.0941C71.3792 74.1167 71.433 74.1284 71.4875 74.1283C71.597 74.1301 71.7037 74.0935 71.789 74.0248C71.9862 73.8197 72.1454 73.5811 72.2591 73.3202C72.4531 72.9348 72.6064 72.5304 72.7167 72.1133C72.829 71.7197 72.889 71.313 72.8951 70.9038C72.9031 70.7778 72.8643 70.6533 72.7863 70.5541C72.7563 70.5155 72.7181 70.4842 72.6744 70.4624C72.6307 70.4407 72.5826 70.429 72.5338 70.4283Z" fill="#9BA0B1"/>
<path d="M76.5059 70.1973L75.6603 73.1614C75.6285 73.2531 75.6078 73.3484 75.5987 73.445L75.6291 73.5057C75.6396 73.5172 75.6524 73.5263 75.6667 73.5325C75.681 73.5386 75.6964 73.5417 75.712 73.5414C75.8452 73.5414 76.0236 73.4224 76.2472 73.1846C76.6412 72.7296 76.979 72.2288 77.2534 71.6931L77.6503 70.3596L78.7528 70.3204L77.9161 73.1971C77.8717 73.3339 77.8369 73.4737 77.8118 73.6154L77.8448 73.6868L77.9126 73.7242C77.9569 73.7222 77.9989 73.7038 78.0303 73.6725C78.19 73.5213 78.3292 73.3497 78.4442 73.1623L78.5923 73.2666C78.1885 73.9957 77.7425 74.3605 77.2543 74.3611C77.1007 74.3692 76.9494 74.3203 76.8297 74.2237C76.7791 74.1794 76.739 74.1244 76.7122 74.0627C76.6854 74.001 76.6725 73.9342 76.6745 73.8669C76.6824 73.6636 76.7191 73.4624 76.7833 73.2693L76.9974 72.5325C76.743 72.9171 76.4682 73.2879 76.1741 73.6431C75.9856 73.8689 75.7625 74.0633 75.5131 74.2193C75.3571 74.3091 75.1811 74.3584 75.0011 74.3629C74.9264 74.3639 74.8524 74.3492 74.7837 74.3199C74.715 74.2905 74.6533 74.2472 74.6024 74.1925C74.5467 74.1356 74.5031 74.0681 74.4743 73.9939C74.4454 73.9197 74.432 73.8404 74.4347 73.7608C74.444 73.5579 74.4806 73.3572 74.5435 73.1641L75.0359 71.4202C75.0978 71.2335 75.1388 71.0406 75.1581 70.8449C75.1586 70.8036 75.1465 70.7631 75.1233 70.7289C75.0936 70.6915 75.0531 70.6641 75.0073 70.6504C74.9099 70.6268 74.8096 70.6172 74.7094 70.6219L74.7531 70.4569L76.2392 70.1991L76.5059 70.1973Z" fill="#9BA0B1"/>
<path d="M81.1076 70.1973L80.4493 72.6467C80.7541 71.86 81.1647 71.1185 81.6696 70.4426C81.7325 70.3694 81.8097 70.3099 81.8966 70.2678C81.9834 70.2258 82.078 70.2021 82.1745 70.1982C82.2307 70.1963 82.2866 70.2073 82.3379 70.2303C82.3892 70.2534 82.4346 70.2878 82.4706 70.3311C82.5525 70.4391 82.5927 70.5731 82.5839 70.7084C82.5932 70.962 82.5214 71.212 82.3787 71.422C82.3489 71.4741 82.3066 71.518 82.2557 71.5499C82.2049 71.5818 82.1469 71.6006 82.087 71.6048C82.0326 71.6064 81.9789 71.592 81.9324 71.5635C81.886 71.535 81.8489 71.4936 81.8257 71.4443C81.7941 71.3758 81.753 71.3121 81.7035 71.2552L81.6294 71.2266C81.598 71.2279 81.5675 71.2368 81.5403 71.2525C81.4417 71.3214 81.3567 71.4079 81.2896 71.5076C81.1417 71.7212 81.0141 71.9481 80.9087 72.1855C80.7571 72.5019 80.6381 72.7695 80.5519 72.9883C80.411 73.398 80.2919 73.8149 80.1951 74.2371H79.1461L79.8651 71.347C79.9046 71.2074 79.9309 71.0644 79.9436 70.9198C79.9463 70.8577 79.9322 70.796 79.9026 70.7414C79.8758 70.6982 79.8362 70.6645 79.7893 70.6451C79.692 70.6186 79.591 70.6083 79.4904 70.6147L79.5297 70.4881L80.8463 70.2009L81.1076 70.1973Z" fill="#9BA0B1"/>
<path d="M88.183 68.658L87.5292 70.888C87.8191 70.8935 88.109 70.8759 88.3962 70.8353C88.6134 70.7926 88.817 70.6977 88.9894 70.5588C89.1809 70.4001 89.3334 70.1997 89.4354 69.9728H89.6058L88.9305 72.3036H88.7521C88.7774 72.1847 88.792 72.0638 88.7958 71.9423C88.8036 71.7908 88.765 71.6405 88.6852 71.5115C88.6168 71.4087 88.5165 71.3313 88.3998 71.2912C88.0835 71.2337 87.7622 71.2086 87.4409 71.2162L86.9057 73.0591L86.8013 73.4293C86.7872 73.4998 86.78 73.5715 86.7799 73.6434C86.7753 73.7277 86.7957 73.8115 86.8388 73.8842C86.8863 73.9484 86.9528 73.9961 87.0288 74.0207C87.1906 74.0643 87.3582 74.0829 87.5256 74.076L87.4774 74.2374H84.5267L84.5749 74.076C84.7949 74.0942 85.0147 74.0383 85.1993 73.9172C85.3798 73.7224 85.5032 73.4817 85.5561 73.2215L86.6113 69.6044C86.6911 69.3654 86.7507 69.1201 86.7897 68.8712C86.7863 68.8205 86.7722 68.7711 86.7482 68.7264C86.7242 68.6816 86.6909 68.6425 86.6506 68.6116C86.4875 68.5204 86.3019 68.4774 86.1154 68.4876L86.1591 68.3262H90.9857L90.5887 69.8872H90.4273C90.427 69.6372 90.3751 69.39 90.2748 69.1611C90.1813 68.9948 90.035 68.8646 89.8591 68.7909C89.5623 68.6856 89.2476 68.6404 88.9332 68.658H88.183Z" fill="#9BA0B1"/>
<path d="M93.3003 70.1973C93.5258 70.1965 93.7479 70.2514 93.947 70.357C94.1414 70.4556 94.3011 70.6112 94.4046 70.803C94.5084 70.9946 94.5617 71.2095 94.5598 71.4274C94.5521 71.9241 94.4163 72.4105 94.1656 72.8394C93.9186 73.2925 93.5608 73.6755 93.1255 73.9526C92.741 74.2104 92.2905 74.3519 91.8277 74.3602C91.658 74.3702 91.4882 74.3435 91.3298 74.2819C91.1714 74.2203 91.0282 74.1253 90.9098 74.0034C90.6936 73.7687 90.5771 73.459 90.5851 73.14C90.5825 72.7487 90.665 72.3616 90.8268 72.0054C90.9792 71.6652 91.1869 71.3526 91.4414 71.0804C91.6879 70.8192 91.9776 70.6025 92.2977 70.4399C92.6078 70.2803 92.9516 70.1971 93.3003 70.1973ZM93.1219 70.4283C92.9818 70.4233 92.845 70.4717 92.7393 70.5639C92.4252 70.9406 92.1907 71.3769 92.0498 71.8466C91.8132 72.425 91.6832 73.0415 91.6662 73.6663C91.6618 73.7884 91.7057 73.9073 91.7884 73.9972C91.8241 74.0384 91.8682 74.0714 91.9178 74.094C91.9673 74.1166 92.0211 74.1283 92.0756 74.1283C92.1851 74.1299 92.2917 74.0933 92.3771 74.0248C92.5745 73.8198 92.7337 73.5811 92.8472 73.3202C93.0412 72.9348 93.1949 72.5303 93.3057 72.1133C93.4179 71.7197 93.4779 71.313 93.4841 70.9038C93.4922 70.7778 93.4535 70.6532 93.3753 70.5541C93.3451 70.5153 93.3066 70.4838 93.2626 70.4621C93.2186 70.4403 93.171 70.4287 93.1219 70.4283Z" fill="#9BA0B1"/>
<path d="M96.846 70.1973L96.1868 72.6467C96.492 71.86 96.9029 71.1185 97.408 70.4426C97.4709 70.3692 97.5483 70.3096 97.6353 70.2675C97.7224 70.2254 97.8171 70.2018 97.9137 70.1982C97.97 70.1963 98.0259 70.2073 98.0772 70.2303C98.1285 70.2534 98.1739 70.2878 98.2099 70.3311C98.2916 70.4393 98.3318 70.5731 98.3232 70.7084C98.3327 70.9621 98.2608 71.2121 98.118 71.422C98.0881 71.4741 98.0459 71.518 97.995 71.5499C97.9441 71.5818 97.8862 71.6006 97.8263 71.6048C97.7719 71.6063 97.7182 71.5919 97.6718 71.5634C97.6254 71.5349 97.5883 71.4935 97.565 71.4443C97.5335 71.3757 97.4924 71.312 97.4428 71.2552L97.3687 71.2266C97.3373 71.2278 97.3067 71.2367 97.2795 71.2525C97.1809 71.3213 97.0959 71.4078 97.0289 71.5076C96.8807 71.721 96.7531 71.948 96.648 72.1855C96.4963 72.5019 96.3774 72.7695 96.2912 72.9883C96.1501 73.398 96.031 73.8148 95.9344 74.2371H94.8845L95.6035 71.347C95.6432 71.2075 95.6695 71.0644 95.682 70.9198C95.6845 70.8577 95.6703 70.7961 95.6409 70.7414C95.6139 70.6981 95.574 70.6644 95.5268 70.6451C95.4298 70.6185 95.3291 70.6082 95.2288 70.6147L95.2681 70.4881L96.5847 70.2009L96.846 70.1973Z" fill="#9BA0B1"/>
<path d="M99.5132 72.6034C99.4895 72.7579 99.4761 72.9137 99.4731 73.0699C99.4686 73.1654 99.483 73.2609 99.5157 73.3507C99.5483 73.4406 99.5984 73.5231 99.6631 73.5935C99.7294 73.6597 99.8088 73.7112 99.8962 73.7449C99.9836 73.7785 100.077 73.7935 100.171 73.7889C100.384 73.7872 100.593 73.7365 100.783 73.6408C101.045 73.5027 101.285 73.3282 101.497 73.1226L101.628 73.2403C101.36 73.5864 101.029 73.879 100.652 74.1029C100.329 74.2756 99.9678 74.364 99.6015 74.3598C99.4184 74.381 99.2328 74.3607 99.0586 74.3003C98.8844 74.2399 98.7261 74.141 98.5954 74.011C98.4113 73.7843 98.3125 73.5002 98.3161 73.2082C98.3243 72.7038 98.4678 72.2109 98.7318 71.781C99.0056 71.3081 99.3959 70.9132 99.8655 70.6339C100.297 70.36 100.795 70.2108 101.306 70.2031C101.507 70.1891 101.705 70.253 101.859 70.3815C101.92 70.4369 101.969 70.5048 102.001 70.5807C102.034 70.6566 102.05 70.7387 102.047 70.8212C102.045 71.0407 101.981 71.2551 101.864 71.4402C101.703 71.7049 101.486 71.9304 101.228 72.1003C100.963 72.2711 100.674 72.3996 100.37 72.4812C100.088 72.5476 99.8017 72.5885 99.5132 72.6034ZM99.5525 72.376C99.757 72.3524 99.9572 72.3004 100.147 72.2216C100.304 72.1445 100.445 72.0379 100.561 71.9077C100.708 71.7469 100.827 71.5626 100.913 71.3626C101.005 71.1699 101.055 70.9599 101.061 70.7463C101.065 70.6756 101.04 70.6063 100.993 70.5536C100.971 70.5306 100.944 70.5126 100.914 70.5006C100.885 70.4886 100.853 70.483 100.821 70.484C100.727 70.4985 100.637 70.5319 100.556 70.5821C100.475 70.6324 100.405 70.6986 100.351 70.7766C99.9715 71.2456 99.699 71.7917 99.5525 72.3769V72.376Z" fill="#9BA0B1"/>
<path d="M102.388 70.458L103.91 70.1967C104.188 70.6337 104.385 71.1171 104.493 71.6239C104.693 71.3179 104.908 71.0225 105.139 70.739C105.273 70.5645 105.436 70.4137 105.621 70.293C105.744 70.2255 105.882 70.1902 106.023 70.1904C106.09 70.1862 106.157 70.1957 106.221 70.2182C106.284 70.2408 106.342 70.2759 106.391 70.3215C106.436 70.3693 106.47 70.4255 106.492 70.4868C106.514 70.5481 106.524 70.6133 106.52 70.6783C106.522 70.7411 106.512 70.8037 106.49 70.8625C106.468 70.9213 106.434 70.9751 106.391 71.0209C106.35 71.0642 106.3 71.0984 106.245 71.1213C106.19 71.1442 106.131 71.1553 106.071 71.1538C105.963 71.1515 105.855 71.1347 105.751 71.1038C105.669 71.0779 105.585 71.0611 105.5 71.0539C105.372 71.0557 105.249 71.1018 105.151 71.1841C104.923 71.4046 104.734 71.6625 104.593 71.9468C104.715 72.5037 104.914 73.0408 105.185 73.5425C105.214 73.5895 105.253 73.6292 105.299 73.6586C105.346 73.688 105.398 73.7063 105.453 73.712C105.523 73.7138 105.591 73.6942 105.649 73.6558C105.798 73.5212 105.928 73.3673 106.036 73.1982L106.193 73.2874C106.003 73.6247 105.749 73.9211 105.444 74.1598C105.285 74.2802 105.093 74.3484 104.894 74.3552C104.731 74.3612 104.569 74.3176 104.431 74.2303C104.289 74.1253 104.176 73.9859 104.102 73.8253C103.966 73.5345 103.852 73.2336 103.763 72.9253C103.422 73.3576 103.155 73.6734 102.96 73.8726C102.822 74.028 102.659 74.1597 102.478 74.2624C102.35 74.3227 102.21 74.3532 102.069 74.3516C102.004 74.3546 101.938 74.3446 101.877 74.3222C101.816 74.2999 101.76 74.2656 101.712 74.2214C101.668 74.1768 101.633 74.1236 101.611 74.0651C101.588 74.0067 101.577 73.9442 101.58 73.8815C101.577 73.8139 101.589 73.7464 101.613 73.6834C101.638 73.6204 101.675 73.5631 101.723 73.5152C101.771 73.4673 101.828 73.4298 101.891 73.405C101.954 73.3803 102.022 73.3688 102.089 73.3713C102.182 73.3749 102.274 73.3986 102.357 73.4409C102.453 73.4959 102.56 73.5316 102.67 73.5461C102.749 73.5476 102.827 73.5296 102.897 73.4935C103.023 73.4181 103.135 73.3222 103.228 73.2098C103.309 73.12 103.458 72.9282 103.674 72.6345C103.542 71.9885 103.322 71.3636 103.02 70.7773C102.979 70.7165 102.923 70.6668 102.858 70.6326C102.792 70.5984 102.72 70.5807 102.646 70.5811C102.549 70.5832 102.453 70.5946 102.359 70.615L102.388 70.458Z" fill="#9BA0B1"/>
<path d="M110.815 70.1959L109.923 73.2947C109.886 73.408 109.861 73.5249 109.849 73.6434C109.849 73.6601 109.852 73.6766 109.859 73.6919C109.865 73.7072 109.875 73.721 109.887 73.7326C109.897 73.7449 109.91 73.7549 109.924 73.7619C109.938 73.769 109.954 73.773 109.97 73.7737C110.026 73.7714 110.079 73.7482 110.118 73.7085C110.302 73.5374 110.46 73.341 110.589 73.1252L110.737 73.2144C110.299 73.9785 109.832 74.3606 109.337 74.3606C109.172 74.3687 109.011 74.3117 108.887 74.2018C108.832 74.1502 108.789 74.0876 108.76 74.0181C108.731 73.9486 108.717 73.8739 108.719 73.7987C108.725 73.6594 108.75 73.5216 108.793 73.3892L109.399 71.3055C109.448 71.1589 109.478 71.0066 109.488 70.8524C109.488 70.8196 109.48 70.7874 109.466 70.7579C109.451 70.7285 109.431 70.7026 109.405 70.682C109.342 70.6294 109.261 70.6029 109.179 70.608C109.135 70.608 109.083 70.608 109.023 70.608L109.08 70.4296L110.557 70.1896L110.815 70.1959ZM110.547 68.1916C110.632 68.1897 110.716 68.2054 110.794 68.2376C110.873 68.2698 110.944 68.318 111.003 68.3789C111.063 68.4381 111.11 68.5089 111.142 68.5869C111.174 68.665 111.19 68.7486 111.188 68.8329C111.188 68.9377 111.161 69.0407 111.111 69.1328C111.062 69.225 110.99 69.3034 110.902 69.3613C110.815 69.4192 110.715 69.4547 110.611 69.4647C110.506 69.4747 110.401 69.4589 110.304 69.4186C110.208 69.3784 110.122 69.315 110.056 69.234C109.989 69.153 109.944 69.0569 109.923 68.9542C109.903 68.8514 109.908 68.7452 109.938 68.6449C109.968 68.5446 110.023 68.4532 110.097 68.3789C110.154 68.3187 110.224 68.2709 110.301 68.2387C110.378 68.2065 110.461 68.1904 110.544 68.1916H110.547Z" fill="#9BA0B1"/>
<path d="M114.273 70.1973L114.081 71.5433H113.92C113.914 71.2396 113.8 70.9478 113.599 70.72C113.524 70.6297 113.431 70.5563 113.325 70.5044C113.219 70.4525 113.104 70.4232 112.987 70.4185C112.865 70.4143 112.747 70.4564 112.656 70.5362C112.615 70.571 112.581 70.6145 112.559 70.6635C112.536 70.7125 112.525 70.766 112.526 70.8199C112.525 70.9101 112.544 70.9993 112.582 71.0813C112.649 71.2032 112.734 71.3146 112.834 71.4122C113.147 71.723 113.427 72.0649 113.671 72.4326C113.769 72.6161 113.82 72.8212 113.819 73.0294C113.819 73.2579 113.759 73.4824 113.645 73.6805C113.522 73.8912 113.341 74.0622 113.124 74.1729C112.903 74.294 112.655 74.3578 112.402 74.3584C112.191 74.352 111.981 74.3184 111.778 74.2585C111.66 74.2201 111.537 74.1967 111.412 74.189C111.354 74.1862 111.295 74.1975 111.242 74.222C111.187 74.2573 111.141 74.3042 111.107 74.3593H110.946L111.16 72.908H111.299C111.365 73.1688 111.461 73.4211 111.584 73.66C111.671 73.8074 111.794 73.9302 111.941 74.0168C112.069 74.0996 112.217 74.1459 112.369 74.1506C112.441 74.1529 112.514 74.1409 112.581 74.1152C112.649 74.0894 112.712 74.0506 112.765 74.0007C112.814 73.9553 112.853 73.9002 112.88 73.8388C112.907 73.7774 112.921 73.711 112.921 73.644C112.92 73.5055 112.885 73.3694 112.819 73.2479C112.683 73.0327 112.525 72.8326 112.346 72.6512C112.091 72.3929 111.866 72.1065 111.675 71.7975C111.598 71.6436 111.559 71.473 111.562 71.3007C111.559 71.153 111.588 71.0064 111.647 70.8711C111.706 70.7357 111.793 70.6147 111.904 70.5166C112.173 70.293 112.516 70.1803 112.865 70.2017C113.089 70.2083 113.311 70.2407 113.527 70.2981C113.63 70.3258 113.735 70.3417 113.841 70.3454C113.895 70.3462 113.949 70.3336 113.996 70.3085C114.044 70.2834 114.085 70.2467 114.115 70.2017L114.273 70.1973Z" fill="#9BA0B1"/>
<path d="M118.979 74.3715C118.574 74.3899 118.172 74.2881 117.824 74.079C117.53 73.884 117.3 73.6061 117.164 73.2806C117.024 72.9722 116.949 72.6382 116.944 72.2994C116.955 71.6123 117.146 70.9402 117.498 70.3495C117.854 69.7074 118.368 69.166 118.99 68.776C119.539 68.4068 120.183 68.2019 120.844 68.1855C121.201 68.185 121.552 68.2772 121.862 68.4531C122.178 68.6289 122.438 68.8905 122.612 69.2078C122.784 69.5047 122.876 69.8408 122.88 70.1836C122.864 70.9727 122.62 71.7404 122.179 72.3949C121.793 73.0517 121.252 73.6032 120.602 74.0005C120.102 74.2613 119.543 74.3891 118.979 74.3715ZM120.701 68.5396C120.498 68.534 120.298 68.5765 120.115 68.6636C119.924 68.7711 119.753 68.9119 119.612 69.0793C119.398 69.3335 119.218 69.6145 119.076 69.9151C118.857 70.3878 118.686 70.8819 118.568 71.3896C118.427 71.897 118.347 72.4196 118.331 72.9461C118.311 73.2327 118.393 73.5172 118.563 73.7489C118.634 73.8364 118.725 73.9064 118.827 73.9535C118.93 74.0007 119.042 74.0238 119.155 74.021C119.305 74.024 119.454 73.9975 119.594 73.9429C119.734 73.8882 119.862 73.8066 119.97 73.7025C120.476 73.1801 120.849 72.5442 121.058 71.8481C121.316 71.1505 121.458 70.4152 121.478 69.6716C121.504 69.3661 121.425 69.0607 121.254 68.8064C121.188 68.7236 121.103 68.6569 121.008 68.6115C120.912 68.5661 120.807 68.543 120.701 68.5441V68.5396Z" fill="#9BA0B1"/>
<path d="M125.162 70.1973L124.316 73.1614C124.285 73.2532 124.264 73.3484 124.255 73.445L124.286 73.5057C124.296 73.5172 124.309 73.5263 124.323 73.5324C124.337 73.5386 124.352 73.5416 124.368 73.5414C124.502 73.5414 124.68 73.4224 124.903 73.1846C125.297 72.7294 125.635 72.2287 125.909 71.6931L126.306 70.3596L127.408 70.3204L126.572 73.1971C126.527 73.3339 126.493 73.4737 126.468 73.6154L126.501 73.6868L126.567 73.7242C126.612 73.7222 126.654 73.7038 126.685 73.6725C126.845 73.5215 126.985 73.3499 127.1 73.1623L127.248 73.2666C126.844 73.9957 126.398 74.3605 125.91 74.3611C125.756 74.3692 125.605 74.3203 125.485 74.2237C125.435 74.1793 125.395 74.1243 125.368 74.0626C125.342 74.0009 125.329 73.9341 125.331 73.8669C125.339 73.6636 125.375 73.4624 125.439 73.2693L125.653 72.5325C125.399 72.9171 125.124 73.2878 124.83 73.6431C124.641 73.8685 124.419 74.063 124.17 74.2193C124.013 74.309 123.837 74.3584 123.657 74.3629C123.582 74.3639 123.508 74.3492 123.44 74.3199C123.371 74.2905 123.309 74.2472 123.258 74.1925C123.202 74.1358 123.159 74.0682 123.13 73.994C123.101 73.9197 123.088 73.8404 123.09 73.7608C123.1 73.5579 123.136 73.3571 123.199 73.1641L123.692 71.4202C123.754 71.2336 123.795 71.0406 123.814 70.8449C123.814 70.8037 123.803 70.7633 123.78 70.7289C123.75 70.6919 123.71 70.6646 123.664 70.6504C123.567 70.6268 123.466 70.6171 123.366 70.6219L123.409 70.4569L124.895 70.1991L125.162 70.1973Z" fill="#9BA0B1"/>
<path d="M129.77 70.1973L129.111 72.6467C129.416 71.86 129.827 71.1185 130.332 70.4426C130.394 70.3694 130.472 70.31 130.559 70.2679C130.645 70.2259 130.74 70.2021 130.836 70.1982C130.893 70.1963 130.949 70.2073 131 70.2303C131.052 70.2533 131.097 70.2878 131.133 70.3311C131.215 70.4392 131.255 70.5731 131.247 70.7084C131.256 70.962 131.184 71.212 131.042 71.422C131.012 71.4742 130.969 71.5183 130.918 71.5502C130.867 71.5821 130.809 71.6009 130.749 71.6048C130.695 71.6062 130.641 71.5918 130.595 71.5633C130.549 71.5348 130.512 71.4934 130.489 71.4443C130.457 71.3758 130.416 71.3122 130.366 71.2552L130.292 71.2266C130.261 71.2279 130.23 71.2368 130.203 71.2525C130.105 71.3215 130.02 71.408 129.952 71.5076C129.804 71.7213 129.677 71.9482 129.571 72.1855C129.419 72.5022 129.303 72.7698 129.214 72.9883C129.073 73.398 128.954 73.8148 128.857 74.2371H127.803L128.522 71.347C128.561 71.2073 128.587 71.0643 128.6 70.9198C128.603 70.8577 128.589 70.7961 128.559 70.7414C128.532 70.6982 128.492 70.6646 128.445 70.6451C128.348 70.6186 128.247 70.6083 128.146 70.6147L128.186 70.4881L129.503 70.2009L129.77 70.1973Z" fill="#9BA0B1"/>
<path d="M134.568 68.327H136.905C137.279 68.3147 137.653 68.3428 138.02 68.4109C138.287 68.4645 138.528 68.608 138.702 68.8176C138.86 69.011 138.946 69.2537 138.944 69.5036C138.939 69.7306 138.873 69.9522 138.753 70.1449C138.614 70.372 138.415 70.557 138.179 70.6801C137.809 70.8618 137.415 70.9932 137.01 71.0708C137.436 71.1591 137.83 71.3642 138.147 71.6631C138.356 71.8933 138.47 72.1937 138.466 72.5042C138.458 72.8257 138.348 73.1362 138.152 73.3909C137.944 73.682 137.655 73.9049 137.32 74.0313C136.702 74.2009 136.06 74.2695 135.419 74.2347H132.96L133.017 74.0733C133.19 74.0827 133.364 74.0606 133.529 74.0081C133.63 73.9664 133.717 73.896 133.778 73.8057C133.876 73.6252 133.95 73.4327 133.998 73.233L135.053 69.599C135.134 69.3585 135.188 69.1095 135.214 68.8569C135.214 68.8076 135.203 68.759 135.181 68.7151C135.158 68.6712 135.126 68.6332 135.086 68.6044C134.913 68.516 134.719 68.4754 134.526 68.4867L134.568 68.327ZM135.802 71.2652L135.048 73.8931C135.194 73.8984 135.303 73.902 135.376 73.902C135.628 73.9303 135.884 73.8955 136.119 73.8009C136.355 73.7063 136.563 73.5547 136.726 73.3597C136.971 73.0222 137.103 72.6167 137.105 72.2001C137.109 72.0145 137.058 71.8321 136.96 71.6747C136.872 71.5304 136.74 71.4186 136.583 71.3562C136.329 71.2823 136.066 71.2509 135.802 71.2635V71.2652ZM135.906 70.9388C136.227 70.9486 136.547 70.8842 136.84 70.7506C137.081 70.6182 137.273 70.4131 137.39 70.1645C137.519 69.9282 137.589 69.6647 137.597 69.3956C137.603 69.2923 137.586 69.1889 137.548 69.0925C137.511 68.9961 137.453 68.9089 137.378 68.8369C137.304 68.7649 137.215 68.7097 137.117 68.6752C137.02 68.6406 136.916 68.6274 136.813 68.6365L136.574 68.6455L135.906 70.9388Z" fill="#9BA0B1"/>
<path d="M141.388 70.1973L140.542 73.1614C140.511 73.2532 140.49 73.3484 140.481 73.445L140.512 73.5057C140.522 73.5171 140.535 73.5262 140.549 73.5324C140.563 73.5385 140.579 73.5416 140.594 73.5414C140.728 73.5414 140.906 73.4224 141.129 73.1846C141.523 72.7294 141.861 72.2287 142.135 71.6931L142.532 70.3596L143.634 70.3204L142.798 73.1971C142.754 73.3339 142.719 73.4737 142.694 73.6154L142.727 73.6868L142.794 73.7242C142.838 73.7222 142.88 73.7038 142.911 73.6725C143.071 73.5213 143.21 73.3497 143.325 73.1623L143.473 73.2666C143.069 73.9957 142.625 74.3605 142.14 74.3611C141.986 74.3692 141.835 74.3203 141.715 74.2237C141.665 74.1793 141.625 74.1243 141.598 74.0626C141.571 74.0009 141.559 73.9341 141.561 73.8669C141.569 73.6636 141.605 73.4624 141.669 73.2693L141.883 72.5325C141.628 72.917 141.354 73.2877 141.06 73.6431C140.871 73.8687 140.648 74.0632 140.399 74.2193C140.242 74.309 140.066 74.3583 139.886 74.3629C139.811 74.3639 139.737 74.3492 139.668 74.3199C139.6 74.2905 139.538 74.2472 139.487 74.1925C139.431 74.1357 139.388 74.0682 139.359 73.9939C139.33 73.9197 139.316 73.8404 139.319 73.7608C139.329 73.5579 139.365 73.3572 139.428 73.1641L139.921 71.4202C139.983 71.2335 140.024 71.0406 140.043 70.8449C140.043 70.8036 140.031 70.7631 140.008 70.7289C139.978 70.6918 139.938 70.6645 139.892 70.6504C139.794 70.6267 139.694 70.6171 139.593 70.6219L139.637 70.4569L141.123 70.1991L141.388 70.1973Z" fill="#9BA0B1"/>
<path d="M146.543 70.1973L146.352 71.5433H146.191C146.185 71.2396 146.072 70.9478 145.871 70.72C145.796 70.6298 145.702 70.5564 145.597 70.5045C145.491 70.4525 145.376 70.4233 145.258 70.4185C145.137 70.4143 145.019 70.4564 144.927 70.5362C144.886 70.571 144.853 70.6145 144.831 70.6635C144.808 70.7125 144.797 70.766 144.797 70.8199C144.796 70.9101 144.815 70.9994 144.853 71.0813C144.921 71.2031 145.006 71.3146 145.106 71.4122C145.419 71.723 145.7 72.0649 145.943 72.4326C146.042 72.6161 146.093 72.8212 146.091 73.0294C146.091 73.2579 146.031 73.4824 145.917 73.6805C145.795 73.8913 145.614 74.0622 145.397 74.1729C145.175 74.294 144.927 74.3578 144.675 74.3584C144.463 74.352 144.253 74.3184 144.05 74.2585C143.932 74.2201 143.809 74.1967 143.685 74.189C143.626 74.1862 143.568 74.1975 143.514 74.222C143.46 74.2571 143.414 74.3041 143.38 74.3593H143.218L143.432 72.908H143.571C143.638 73.1688 143.734 73.4211 143.858 73.66C143.944 73.8075 144.067 73.9303 144.215 74.0168C144.342 74.0996 144.49 74.1459 144.642 74.1506C144.715 74.153 144.787 74.141 144.855 74.1153C144.923 74.0896 144.986 74.0507 145.039 74.0007C145.088 73.9554 145.128 73.9002 145.154 73.8388C145.181 73.7774 145.195 73.711 145.195 73.644C145.194 73.5055 145.159 73.3693 145.092 73.2479C144.957 73.0326 144.798 72.8326 144.62 72.6512C144.364 72.3929 144.139 72.1066 143.949 71.7975C143.871 71.6436 143.832 71.473 143.836 71.3007C143.832 71.153 143.861 71.0065 143.92 70.8711C143.979 70.7357 144.067 70.6148 144.177 70.5166C144.446 70.293 144.79 70.1803 145.139 70.2017C145.363 70.2083 145.585 70.2406 145.801 70.2981C145.904 70.3258 146.009 70.3417 146.115 70.3454C146.169 70.3462 146.223 70.3336 146.271 70.3085C146.319 70.2834 146.359 70.2467 146.389 70.2017L146.543 70.1973Z" fill="#9BA0B1"/>
<path d="M148.971 70.1959L148.079 73.2947C148.042 73.4081 148.017 73.5249 148.005 73.6434C148.005 73.6602 148.009 73.6767 148.015 73.692C148.022 73.7073 148.032 73.7211 148.044 73.7326C148.054 73.7449 148.067 73.7549 148.081 73.762C148.095 73.7691 148.111 73.773 148.127 73.7737C148.183 73.7714 148.236 73.7482 148.275 73.7085C148.459 73.5373 148.617 73.3409 148.746 73.1252L148.894 73.2144C148.456 73.9785 147.99 74.3606 147.495 74.3606C147.33 74.3688 147.168 74.3118 147.044 74.2018C146.989 74.1502 146.946 74.0876 146.917 74.0181C146.888 73.9486 146.874 73.8739 146.876 73.7986C146.882 73.6594 146.907 73.5216 146.95 73.3892L147.557 71.3055C147.606 71.1589 147.636 71.0066 147.646 70.8524C147.646 70.8196 147.638 70.7874 147.624 70.7579C147.609 70.7285 147.589 70.7025 147.563 70.682C147.5 70.6296 147.419 70.6031 147.337 70.608C147.292 70.608 147.24 70.608 147.18 70.608L147.237 70.4296L148.714 70.1896L148.971 70.1959ZM148.703 68.1916C148.788 68.1897 148.872 68.2054 148.95 68.2376C149.028 68.2699 149.099 68.318 149.158 68.3789C149.248 68.4687 149.309 68.5831 149.333 68.7075C149.358 68.832 149.345 68.961 149.296 69.0782C149.248 69.1954 149.165 69.2954 149.06 69.3658C148.954 69.4361 148.83 69.4736 148.703 69.4734C148.534 69.4722 148.372 69.4042 148.253 69.2843C148.134 69.1643 148.066 69.0021 148.066 68.8329C148.065 68.7486 148.081 68.6649 148.113 68.5869C148.144 68.5089 148.192 68.4381 148.252 68.3789C148.31 68.3187 148.379 68.271 148.456 68.2388C148.533 68.2066 148.616 68.1905 148.7 68.1916H148.703Z" fill="#9BA0B1"/>
<path d="M151.56 70.1973L151.02 72.0705C151.268 71.6803 151.54 71.3061 151.835 70.9501C152.031 70.7178 152.262 70.5176 152.52 70.3569C152.683 70.2609 152.867 70.207 153.055 70.2C153.128 70.1992 153.201 70.2138 153.268 70.2426C153.334 70.2715 153.395 70.3141 153.444 70.3676C153.499 70.4264 153.541 70.4954 153.568 70.5706C153.596 70.6458 153.608 70.7256 153.605 70.8056C153.599 71.007 153.564 71.2064 153.501 71.3979L152.943 73.2595C152.908 73.3625 152.885 73.469 152.873 73.577C152.873 73.5917 152.876 73.6061 152.882 73.6196C152.888 73.6331 152.896 73.6453 152.906 73.6555L152.973 73.6903C153.006 73.6884 153.037 73.6763 153.062 73.6555C153.182 73.5515 153.286 73.4314 153.372 73.2988C153.398 73.2586 153.441 73.1971 153.499 73.1203L153.664 73.2193C153.237 73.9371 152.788 74.296 152.318 74.296C152.164 74.3055 152.013 74.2557 151.895 74.1569C151.845 74.1133 151.806 74.0596 151.78 73.9993C151.754 73.9391 151.741 73.8738 151.742 73.8081C151.754 73.623 151.789 73.4401 151.847 73.264L152.392 71.4024C152.422 71.3161 152.442 71.2261 152.449 71.1348C152.449 71.1178 152.446 71.101 152.439 71.0856C152.432 71.0701 152.422 71.0565 152.409 71.0456C152.397 71.0336 152.383 71.0241 152.368 71.0177C152.353 71.0113 152.336 71.008 152.319 71.0081C152.162 71.0321 152.02 71.1127 151.918 71.2347C151.437 71.736 151.045 72.315 150.758 72.9473L150.402 74.2425H149.29L150.105 71.4443C150.167 71.2535 150.207 71.0558 150.223 70.8556C150.225 70.8113 150.213 70.7677 150.188 70.7307C150.16 70.6939 150.12 70.6665 150.076 70.6522C149.979 70.6284 149.879 70.6188 149.779 70.6237L149.827 70.4586L151.295 70.2009L151.56 70.1973Z" fill="#9BA0B1"/>
<path d="M155.534 72.6035C155.51 72.7578 155.497 72.9137 155.494 73.07C155.489 73.1654 155.504 73.2608 155.536 73.3507C155.569 73.4406 155.618 73.5231 155.683 73.5936C155.75 73.6597 155.829 73.7112 155.917 73.7449C156.004 73.7785 156.098 73.7935 156.192 73.7889C156.404 73.7873 156.614 73.7366 156.803 73.6408C157.065 73.5027 157.305 73.3282 157.517 73.1226L157.648 73.2403C157.379 73.5864 157.048 73.879 156.671 74.1029C156.349 74.2754 155.988 74.3637 155.622 74.3598C155.438 74.3811 155.253 74.3608 155.078 74.3004C154.904 74.24 154.745 74.1411 154.614 74.011C154.431 73.7841 154.332 73.5001 154.335 73.2082C154.344 72.7037 154.488 72.2108 154.752 71.781C155.025 71.3082 155.415 70.9133 155.885 70.6339C156.316 70.3603 156.815 70.2112 157.325 70.2031C157.526 70.189 157.724 70.2529 157.879 70.3815C157.94 70.437 157.989 70.505 158.021 70.5809C158.053 70.6568 158.069 70.7388 158.066 70.8212C158.064 71.0407 158.001 71.2551 157.883 71.4403C157.723 71.7049 157.505 71.9305 157.247 72.1004C156.982 72.2709 156.693 72.3994 156.389 72.4813C156.108 72.5475 155.822 72.5884 155.534 72.6035ZM155.573 72.376C155.777 72.3525 155.977 72.3006 156.167 72.2217C156.324 72.1443 156.465 72.0378 156.581 71.9077C156.728 71.7469 156.846 71.5626 156.932 71.3627C157.025 71.1702 157.076 70.96 157.081 70.7463C157.084 70.6755 157.06 70.6062 157.012 70.5536C156.99 70.5307 156.963 70.5127 156.933 70.5007C156.904 70.4887 156.872 70.4831 156.84 70.4841C156.746 70.4986 156.656 70.532 156.575 70.5823C156.494 70.6325 156.424 70.6987 156.37 70.7766C155.991 71.2459 155.719 71.792 155.573 72.3769V72.376Z" fill="#9BA0B1"/>
<path d="M161.422 70.1973L161.23 71.5433H161.069C161.063 71.2395 160.95 70.9477 160.749 70.72C160.673 70.6297 160.58 70.5563 160.474 70.5043C160.369 70.4524 160.253 70.4232 160.136 70.4185C160.015 70.4142 159.896 70.4563 159.805 70.5362C159.764 70.571 159.731 70.6144 159.708 70.6635C159.686 70.7125 159.674 70.7659 159.675 70.8199C159.674 70.9101 159.693 70.9993 159.731 71.0813C159.799 71.2032 159.884 71.3146 159.983 71.4122C160.296 71.7232 160.576 72.0651 160.82 72.4326C160.918 72.6162 160.969 72.8213 160.968 73.0294C160.968 73.2579 160.908 73.4824 160.794 73.6805C160.671 73.8912 160.491 74.0621 160.273 74.1729C160.052 74.2938 159.804 74.3576 159.552 74.3584C159.34 74.352 159.13 74.3184 158.927 74.2585C158.809 74.2201 158.686 74.1967 158.561 74.189C158.503 74.1863 158.445 74.1976 158.392 74.222C158.337 74.2572 158.291 74.3041 158.256 74.3593H158.095L158.308 72.908H158.447C158.514 73.1688 158.61 73.4211 158.734 73.66C158.82 73.8076 158.943 73.9304 159.09 74.0168C159.218 74.0998 159.366 74.146 159.519 74.1506C159.591 74.1529 159.664 74.1409 159.732 74.1152C159.8 74.0894 159.862 74.0506 159.915 74.0007C159.964 73.9555 160.004 73.9003 160.031 73.8389C160.058 73.7775 160.072 73.7111 160.072 73.644C160.071 73.5054 160.036 73.3692 159.969 73.2479C159.834 73.0327 159.675 72.8326 159.497 72.6512C159.242 72.3929 159.017 72.1065 158.826 71.7975C158.749 71.6435 158.71 71.473 158.713 71.3007C158.71 71.153 158.739 71.0064 158.798 70.871C158.857 70.7356 158.944 70.6147 159.055 70.5166C159.323 70.2929 159.667 70.1802 160.016 70.2017C160.24 70.2083 160.462 70.2406 160.678 70.2981C160.781 70.3258 160.886 70.3417 160.992 70.3454C161.046 70.3463 161.1 70.3337 161.147 70.3086C161.195 70.2835 161.236 70.2467 161.266 70.2017L161.422 70.1973Z" fill="#9BA0B1"/>
<path d="M164.895 70.1973L164.704 71.5433H164.543C164.538 71.2394 164.424 70.9474 164.223 70.72C164.148 70.6299 164.054 70.5565 163.949 70.5046C163.843 70.4526 163.728 70.4233 163.611 70.4185C163.489 70.4141 163.371 70.4562 163.279 70.5362C163.238 70.571 163.205 70.6145 163.182 70.6635C163.159 70.7125 163.148 70.7659 163.148 70.8199C163.148 70.9102 163.167 70.9994 163.205 71.0813C163.273 71.203 163.358 71.3145 163.458 71.4122C163.771 71.7229 164.051 72.0648 164.294 72.4326C164.393 72.616 164.444 72.8211 164.443 73.0294C164.442 73.2584 164.381 73.4831 164.265 73.6805C164.143 73.8917 163.962 74.0627 163.744 74.1729C163.523 74.2941 163.275 74.3579 163.023 74.3584C162.812 74.352 162.602 74.3184 162.399 74.2585C162.28 74.2201 162.157 74.1967 162.032 74.189C161.974 74.1862 161.916 74.1975 161.863 74.222C161.808 74.2573 161.762 74.3042 161.727 74.3593H161.567L161.78 72.908H161.919C161.985 73.1688 162.08 73.4211 162.203 73.66C162.29 73.8071 162.413 73.9298 162.56 74.0168C162.688 74.0998 162.835 74.146 162.987 74.1506C163.06 74.1529 163.132 74.1409 163.2 74.1152C163.268 74.0894 163.331 74.0506 163.384 74.0007C163.433 73.9554 163.473 73.9003 163.5 73.8389C163.527 73.7775 163.541 73.7111 163.541 73.644C163.54 73.5055 163.504 73.3693 163.438 73.2479C163.301 73.0331 163.143 72.8331 162.965 72.6512C162.71 72.393 162.484 72.1066 162.294 71.7975C162.216 71.6436 162.177 71.473 162.18 71.3007C162.177 71.1529 162.206 71.0063 162.265 70.8709C162.324 70.7355 162.412 70.6146 162.523 70.5166C162.791 70.2929 163.135 70.1802 163.483 70.2017C163.707 70.2082 163.93 70.2406 164.146 70.2981C164.248 70.3258 164.353 70.3417 164.459 70.3454C164.513 70.3462 164.567 70.3335 164.615 70.3084C164.663 70.2834 164.704 70.2467 164.734 70.2017L164.895 70.1973Z" fill="#9BA0B1"/>
<path d="M166.336 17.4092H164.991V16.874H168.521V17.4092H167.177V22.1315H166.336V17.4092Z" fill="#9BA0B1"/>
<path d="M173.769 19.8679C173.702 19.1833 173.677 18.4952 173.693 17.8074H173.649C173.485 18.3926 173.292 19.017 173.059 19.6334L172.152 22.0997H171.617L170.752 19.7341C170.516 19.1033 170.315 18.4598 170.151 17.8065H170.118C170.118 18.4229 170.074 19.157 170.029 19.9063L169.887 22.1309H169.133L169.57 16.8682H170.478L171.341 19.2766C171.568 19.8698 171.765 20.4741 171.932 21.0873H171.965C172.116 20.4749 172.299 19.8706 172.511 19.2766L173.342 16.8682H174.282L174.708 22.1309H173.921L173.769 19.8679Z" fill="#9BA0B1"/>
</svg>
