<svg width="280" height="81" viewBox="0 0 280 81" fill="none" xmlns="http://www.w3.org/2000/svg">
<g clip-path="url(#clip0_14325_46850)">
<path d="M77.583 40.293C77.583 19.03 60.346 1.79297 39.083 1.79297C17.82 1.79297 0.583008 19.03 0.583008 40.293C0.583008 61.5559 17.82 78.793 39.083 78.793C60.346 78.793 77.583 61.5559 77.583 40.293Z" fill="#9BA0B1"/>
<path d="M58.7678 31.0928C57.3039 31.0523 56.0652 32.245 56.0226 33.7377C55.9752 35.3932 57.0546 36.5605 58.6586 36.5872C60.1726 36.6126 61.3948 35.4886 61.4765 33.9966C61.5576 32.5231 60.2619 31.134 58.7678 31.0928Z" fill="white"/>
<path d="M19.3413 31.0951C17.797 31.1328 16.6448 32.3928 16.6895 33.9954C16.732 35.5129 17.9041 36.6129 19.4497 36.5861C20.9246 36.5607 22.1654 35.3337 22.1743 33.8917C22.1832 32.4429 20.7825 31.0601 19.3413 31.0951Z" fill="white"/>
<path d="M28.6588 22.666H24.8452V57.304H28.6588V22.666Z" fill="white"/>
<path d="M49.1521 22.666V57.304H52.9657V22.666H49.1521Z" fill="white"/>
<path d="M31.6992 38.0764C31.9251 38.7699 32.5039 40.2229 33.9177 41.4526C35.9344 43.207 38.2421 43.2818 38.9425 43.2942C39.6827 43.3072 41.746 43.312 43.7112 41.855C45.5363 40.5016 46.1831 38.6965 46.3808 38.0545C45.379 37.6624 44.3772 37.271 43.3754 36.8789C42.6826 38.726 40.9029 39.9482 38.9425 39.9283C37.0234 39.9084 35.2979 38.7013 34.6126 36.8954C33.6417 37.2889 32.6701 37.6823 31.6992 38.0764Z" fill="white"/>
</g>
<g clip-path="url(#clip1_14325_46850)">
<path d="M99.583 24.8828H103.382V35.1278H116.981V24.8828H120.78V49.2489H116.981V38.6299H103.382V49.2489H99.583V24.8828Z" fill="#9BA0B1"/>
<path d="M125.478 40.4559V30.8438H129.019V40.4559C129.019 44.4422 131.217 46.4533 134.57 46.4533C137.924 46.4533 140.122 44.4422 140.122 40.4559V30.8438H143.662V40.4559C143.662 46.566 140.012 49.7325 134.57 49.7325C129.129 49.7325 125.478 46.602 125.478 40.4559Z" fill="#9BA0B1"/>
<path d="M147.611 51.4463H151.225C152.081 53.5701 154.243 54.5025 156.926 54.5025C160.689 54.5025 163.184 52.7143 163.184 47.9082V45.7845C161.919 48.1695 159.347 49.5838 156.254 49.5838C151.484 49.5838 146.939 46.3046 146.939 40.0459C146.939 34.456 151.038 30.3594 156.849 30.3594C162.659 30.3594 166.684 34.2714 166.684 40.1945V47.7572C166.684 54.8357 162.362 57.5923 156.923 57.5923C152.414 57.5923 148.876 55.6915 147.608 51.4439L147.611 51.4463ZM163.184 40.0459C163.184 36.3209 160.651 33.6362 156.851 33.6362C153.052 33.6362 150.518 36.3185 150.518 40.0459C150.518 43.7733 153.052 46.2686 156.851 46.2686C160.651 46.2686 163.184 43.7733 163.184 40.0459Z" fill="#9BA0B1"/>
<path d="M169.965 40.0459C169.965 34.456 174.064 30.3594 179.875 30.3594C185.685 30.3594 189.787 34.4584 189.787 40.0459C189.787 45.6334 185.688 49.7324 179.875 49.7324C174.062 49.7324 169.965 45.6334 169.965 40.0459ZM186.21 40.0459C186.21 36.3209 183.677 33.6362 179.877 33.6362C176.078 33.6362 173.544 36.3185 173.544 40.0459C173.544 43.7733 176.078 46.4532 179.877 46.4532C183.677 46.4532 186.21 43.7709 186.21 40.0459Z" fill="#9BA0B1"/>
<path d="M193.737 24.8833H205.473C209.982 24.8833 212.403 27.4912 212.403 31.142C212.403 33.6756 211.173 35.6125 209.05 36.5809V36.6552C211.844 37.475 213.52 39.7474 213.52 42.7269C213.52 46.4903 211.061 49.2469 206.442 49.2469H193.737V24.8809V24.8833ZM205.063 35.0923C207.374 35.0923 208.64 33.6756 208.64 31.7388C208.64 29.802 207.597 28.3853 204.989 28.3853H197.536V35.0923H205.063ZM205.809 45.7472C208.491 45.7472 209.608 44.1819 209.608 42.2451C209.608 40.1213 208.23 38.5944 205.883 38.5944H197.536V45.7472H205.809Z" fill="#9BA0B1"/>
<path d="M215.943 40.1945C215.943 34.42 220.042 30.3594 225.891 30.3594C231.74 30.3594 235.69 34.3097 235.69 40.1945V49.2482H232.45V45.2235C231.22 48.2031 228.499 49.7324 225.297 49.7324C220.491 49.7324 215.946 46.2663 215.946 40.1945H215.943ZM232.188 40.0459C232.188 36.3209 229.655 33.6362 225.855 33.6362C222.056 33.6362 219.522 36.3185 219.522 40.0459C219.522 43.7733 222.056 46.4532 225.855 46.4532C229.655 46.4532 232.188 43.7709 232.188 40.0459Z" fill="#9BA0B1"/>
<path d="M239.715 39.6724C239.715 33.524 243.366 30.3574 248.807 30.3574C254.249 30.3574 257.899 33.488 257.899 39.6724V49.2486H254.359V39.6724C254.359 35.6861 252.161 33.6366 248.807 33.6366C245.454 33.6366 243.256 35.6861 243.256 39.6724V49.2486H239.715V39.6724Z" fill="#9BA0B1"/>
<path d="M262.593 22.7954H266.133V39.0019L274.59 30.8423H279.247L269.635 39.8217L279.583 49.2469H274.851L266.133 40.6775V49.2469H262.593V22.793V22.7954Z" fill="#9BA0B1"/>
</g>
<defs>
<clipPath id="clip0_14325_46850">
<rect width="77" height="77" fill="white" transform="translate(0.583008 1.79297)"/>
</clipPath>
<clipPath id="clip1_14325_46850">
<rect width="180" height="35" fill="white" transform="translate(99.583 22.793)"/>
</clipPath>
</defs>
</svg>
