<svg width="219" height="81" viewBox="0 0 219 81" fill="none" xmlns="http://www.w3.org/2000/svg">
<g clip-path="url(#clip0_5384_13477)">
<path d="M26.6692 68.3962H15.8972C12.0788 68.3962 9.08361 67.4153 6.91168 65.4536C4.10919 62.9313 2.69043 59.8136 2.6554 56.1003C2.72546 51.0558 4.17925 47.1673 7.01677 44.4349L10.7476 47.1673C8.57566 49.6195 7.48969 52.5096 7.48969 55.8375C7.48969 61.2323 10.3097 63.9472 15.9497 63.9823H22.5706V42.7009C24.8826 42.0353 27.6501 41.7025 30.873 41.7025C37.0385 41.8076 40.1212 45.2581 40.1212 52.0542L40.1737 58.8327H43.9571V63.1941H35.3394V52.3169C35.3394 47.7979 33.8506 45.5384 30.873 45.5384C29.6469 45.5384 28.5259 45.6785 27.51 45.9588L27.4049 67.5029C27.4049 68.0984 27.1597 68.3962 26.6692 68.3962ZM13.5326 78.275C12.7619 78.275 12.0788 77.9947 11.4832 77.4342C10.9227 76.8737 10.6425 76.2081 10.6425 75.4375C10.6425 74.5967 10.9227 73.8961 11.4832 73.3356C12.0788 72.7751 12.7619 72.4948 13.5326 72.4948C14.3383 72.4948 15.0214 72.7751 15.5819 73.3356C16.1424 73.8961 16.4226 74.5967 16.4226 75.4375C16.4226 76.2081 16.1424 76.8737 15.5819 77.4342C15.0214 77.9947 14.3383 78.275 13.5326 78.275ZM21.4671 78.275C20.6614 78.275 19.9608 77.9947 19.3652 77.4342C18.8047 76.8737 18.5245 76.2081 18.5245 75.4375C18.5245 74.5967 18.8047 73.8961 19.3652 73.3356C19.9608 72.7751 20.6614 72.4948 21.4671 72.4948C22.2378 72.4948 22.9034 72.7751 23.4639 73.3356C24.0244 73.8961 24.3046 74.5967 24.3046 75.4375C24.3046 76.2081 24.0244 76.8737 23.4639 77.4342C22.9034 77.9947 22.2378 78.275 21.4671 78.275ZM59.2244 63.1941H43.1451V58.8327H45.6148C48.6976 58.8327 50.2389 56.906 50.2389 53.0526V42.1229H54.9156V52.7898C54.9156 54.7866 54.5828 56.8009 53.9172 58.8327H59.2244V63.1941ZM46.7709 37.814C46.0002 37.814 45.3171 37.5338 44.7215 36.9733C44.161 36.4128 43.8808 35.7472 43.8808 34.9765C43.8808 34.1358 44.161 33.4351 44.7215 32.8746C45.3171 32.3141 46.0002 32.0339 46.7709 32.0339C47.5766 32.0339 48.2597 32.3141 48.8202 32.8746C49.3807 33.4351 49.6609 34.1358 49.6609 34.9765C49.6609 35.7472 49.3807 36.4128 48.8202 36.9733C48.2597 37.5338 47.5766 37.814 46.7709 37.814ZM54.285 37.814C53.4793 37.814 52.7787 37.5338 52.1832 36.9733C51.6227 36.4128 51.3424 35.7472 51.3424 34.9765C51.3424 34.1358 51.6227 33.4351 52.1832 32.8746C52.7787 32.3141 53.4793 32.0339 54.285 32.0339C55.0557 32.0339 55.7213 32.3141 56.2818 32.8746C56.8423 33.4351 57.1226 34.1358 57.1226 34.9765C57.1226 35.7472 56.8423 36.4128 56.2818 36.9733C55.7213 37.5338 55.0557 37.814 54.285 37.814ZM65.9511 63.1941H58.437V58.8327H64.5849C65.776 58.7977 66.3715 58.0795 66.3715 56.6783V42.1229H71.2058V55.9426C71.1007 60.7769 69.3492 63.1941 65.9511 63.1941ZM64.5324 73.8085C63.7267 73.8085 63.026 73.5283 62.4305 72.9678C61.87 72.4073 61.5898 71.7242 61.5898 70.9184C61.5898 70.1127 61.87 69.4296 62.4305 68.8691C63.026 68.3086 63.7267 68.0284 64.5324 68.0284C65.3031 68.0284 65.9687 68.3086 66.5292 68.8691C67.0897 69.4296 67.3699 70.1127 67.3699 70.9184C67.3699 71.7242 67.0897 72.4073 66.5292 72.9678C65.9687 73.5283 65.3031 73.8085 64.5324 73.8085ZM85.4567 63.1941H80.6224C77.1544 63.1941 75.4203 60.7769 75.4203 55.9426V30.0897H80.2546V56.6783C80.2546 58.0795 80.8501 58.7977 82.0412 58.8327H85.4567V63.1941ZM103.048 58.8327V44.3298C101.717 43.6642 100.368 43.3314 99.0018 43.3314C97.3203 43.3314 95.919 43.9094 94.798 45.0655C93.2216 46.782 92.4334 48.8313 92.4334 51.2134C92.4334 56.2579 95.306 58.7977 101.051 58.8327H103.048ZM111.613 63.1941H84.7616V58.8327H89.9112C88.3348 56.3805 87.5291 53.9459 87.494 51.5287C87.494 47.4651 89.0004 44.2247 92.0131 41.8076C94.1149 40.1961 96.5146 39.3904 99.212 39.3904C102.435 39.3904 105.325 40.2662 107.882 42.0178V58.8327H111.613V63.1941ZM88.4399 35.8172C87.6692 35.8172 86.9861 35.537 86.3906 34.9765C85.8301 34.416 85.5498 33.7504 85.5498 32.9797C85.5498 32.139 85.8301 31.4384 86.3906 30.8779C86.9861 30.3174 87.6692 30.0371 88.4399 30.0371C89.2456 30.0371 89.9287 30.3174 90.4892 30.8779C91.0497 31.4384 91.33 32.139 91.33 32.9797C91.33 33.7504 91.0497 34.416 90.4892 34.9765C89.9287 35.537 89.2456 35.8172 88.4399 35.8172ZM96.3219 35.8172C95.5512 35.8172 94.8681 35.537 94.2726 34.9765C93.7121 34.416 93.4318 33.7504 93.4318 32.9797C93.4318 32.139 93.7121 31.4384 94.2726 30.8779C94.8681 30.3174 95.5512 30.0371 96.3219 30.0371C97.1276 30.0371 97.8107 30.3174 98.3712 30.8779C98.9317 31.4384 99.212 32.139 99.212 32.9797C99.212 33.7504 98.9317 34.416 98.3712 34.9765C97.8107 35.537 97.1276 35.8172 96.3219 35.8172ZM110.83 63.1941V58.8327H114.193C115.384 58.7977 115.979 58.0795 115.979 56.6783V42.1229H120.866V55.9426C120.761 60.7769 119.01 63.1941 115.612 63.1941H110.83ZM118.344 36.658C117.573 36.658 116.89 36.3777 116.295 35.8172C115.734 35.2567 115.454 34.5912 115.454 33.8205C115.454 33.0148 115.734 32.3317 116.295 31.7712C116.89 31.1756 117.573 30.8779 118.344 30.8779C119.15 30.8779 119.833 31.1581 120.393 31.7186C120.954 32.2791 121.234 32.9797 121.234 33.8205C121.234 34.5912 120.954 35.2567 120.393 35.8172C119.833 36.3777 119.15 36.658 118.344 36.658Z" fill="#9BA0B1"/>
<mask id="mask0_5384_13477" style="mask-type:luminance" maskUnits="userSpaceOnUse" x="150" y="0" width="69" height="76">
<path d="M218.247 0.638672H150.687V75.7054H218.247V0.638672Z" fill="white"/>
</mask>
<g mask="url(#mask0_5384_13477)">
<path d="M161.187 21.9077H151.213C151.441 20.4335 151.578 18.9827 151.874 17.5787C152.308 15.6132 152.765 13.6476 153.381 11.7288C154.728 7.5168 157.558 4.77904 161.62 3.30483C164.816 2.13484 168.148 1.50305 171.503 1.15205C176.776 0.590452 182.048 0.520253 187.321 0.801051C191.475 1.03505 195.606 1.54985 199.646 2.67304C205.283 4.24083 208.684 7.86781 210.054 13.671C211.172 18.4445 211.834 23.2649 211.925 28.1554C212.062 35.5497 212.017 42.9676 211.925 50.3619C211.88 53.2402 211.469 56.095 211.172 58.973C211.104 59.5581 211.241 59.8623 211.72 60.1899C213.66 61.4535 215.554 62.7872 217.472 64.0743C217.723 64.238 217.951 64.4251 218.248 64.6358C217.015 66.7652 215.805 68.8713 214.55 70.9304C214.253 71.4219 212.701 71.5855 212.176 71.258C210.601 70.2283 209.05 69.1989 207.429 68.1224C205.649 70.1347 203.503 71.5387 201.106 72.5684C197.66 74.066 194.031 74.7913 190.333 75.2125C184.422 75.8911 178.488 75.821 172.576 75.3531C168.24 75.002 163.926 74.3935 159.863 72.6152C156.736 71.258 154.591 69.0117 153.563 65.6655C153.061 64.0275 152.65 62.366 152.171 60.6345C152.536 60.5877 152.742 60.5642 152.924 60.5642C155.777 60.5642 158.608 60.5642 161.461 60.5642C161.963 60.5642 162.237 60.6813 162.351 61.2428C162.67 62.9276 163.766 63.8872 165.295 64.4719C167.6 65.3379 170.02 65.6888 172.439 65.8994C177.255 66.3441 182.071 66.4141 186.864 66.0633C190.037 65.8526 193.164 65.4548 196.131 64.2147C197.135 63.7936 198.071 63.185 199.167 62.5767C197.637 61.5471 196.336 60.6813 195.035 59.7687C194.83 59.6284 194.579 59.3241 194.579 59.0901C194.556 55.6268 194.579 52.1637 194.579 48.5368C196.998 50.1747 199.303 51.7426 201.769 53.4038C201.86 52.0466 201.997 50.8533 202.042 49.6365C202.339 41.1657 202.225 32.7184 201.7 24.2711C201.517 21.3461 200.992 18.4445 200.605 15.543C200.331 13.5306 199.189 12.2436 197.295 11.799C195.013 11.2608 192.707 10.7226 190.379 10.4652C185.038 9.90359 179.674 9.95038 174.334 10.278C171.526 10.4418 168.742 10.8162 166.026 11.6118C163.857 12.2436 162.511 13.554 162.145 15.8705C161.872 17.6256 161.575 19.3571 161.301 21.1121C161.255 21.3461 161.233 21.6035 161.187 21.8843V21.9077Z" fill="#9BA0B1"/>
<path d="M161.027 52.8662H151.235C151.075 50.2687 150.915 47.6481 150.755 44.9805H160.661C160.775 47.5545 160.913 50.1751 161.049 52.8662H161.027Z" fill="#9BA0B1"/>
<path d="M160.661 37.2358H150.687V29.6543H160.661V37.2358Z" fill="#9BA0B1"/>
</g>
</g>
<defs>
<clipPath id="clip0_5384_13477">
<rect width="217.693" height="80.0712" fill="white" transform="translate(0.553589 0.636719)"/>
</clipPath>
</defs>
</svg>
