<svg width="96" height="81" viewBox="0 0 96 81" fill="none" xmlns="http://www.w3.org/2000/svg">
<g clip-path="url(#clip0_14325_46931)">
<path d="M9.60405 30.645V16.879C9.60405 11.729 13.7789 7.55419 18.9282 7.55419C24.0783 7.55419 28.2532 11.729 28.2532 16.879V30.645C28.2532 31.4937 28.9407 32.1812 29.7899 32.1812H33.4834C34.332 32.1812 35.0195 31.4937 35.0195 30.645V16.7279C35.0195 7.84124 27.8156 0.636719 18.9282 0.636719C10.0416 0.636719 2.83704 7.84124 2.83704 16.7279V30.645C2.83704 31.4937 3.52521 32.1812 4.37383 32.1812H8.06792C8.91592 32.1812 9.60405 31.4937 9.60405 30.645Z" fill="#9BA0B1"/>
<path d="M79.3478 25.5351C74.3074 25.5351 70.2216 21.4493 70.2216 16.4089C70.2216 11.3686 74.3074 7.28281 79.3478 7.28281C84.3881 7.28281 88.474 11.3686 88.474 16.4089C88.474 21.4493 84.3881 25.5351 79.3478 25.5351ZM79.3478 0.636719C70.6372 0.636719 63.5756 7.69771 63.5756 16.4089C63.5756 25.1195 70.6372 32.1812 79.3478 32.1812C88.0584 32.1812 95.1196 25.1195 95.1196 16.4089C95.1196 7.69771 88.0584 0.636719 79.3478 0.636719Z" fill="#9BA0B1"/>
<path d="M43.4631 20.0103C42.0335 16.6805 42.6784 12.6742 45.3967 9.95474C46.2422 9.10987 47.2124 8.46557 48.2465 8.0212C50.5411 7.03594 53.1572 7.03531 55.4517 8.02183L43.4631 20.0103ZM60.3517 3.12187C55.1865 -0.19177 48.5122 -0.19177 43.3485 3.1225C42.4089 3.72418 41.5196 4.43491 40.6979 5.25596C35.3592 10.5946 34.6473 18.8063 38.562 24.9116C39.1643 25.8505 39.8762 26.7404 40.6973 27.5615C41.5184 28.3825 42.4089 29.0945 43.3472 29.6968C49.4525 33.6115 57.6641 32.9001 63.0028 27.5609C63.4942 27.0695 63.946 26.5543 64.3585 26.0177C64.8279 25.4073 64.7678 24.5424 64.2237 23.9977L61.6685 21.4425C60.9928 20.7668 59.8734 20.8677 59.3238 21.6499C59.0248 22.0755 58.6845 22.481 58.3041 22.862C55.5852 25.5809 51.5783 26.2258 48.2491 24.7956L60.237 12.8071L63.4283 9.61569L64.2243 8.81968C64.769 8.27566 64.8285 7.41012 64.3591 6.79965C63.9467 6.26316 63.4942 5.74734 63.0028 5.25596C62.1817 4.43491 61.2918 3.72293 60.3517 3.12187Z" fill="#9BA0B1"/>
<path d="M55.0383 39.8994V53.6654C55.0383 58.8154 50.8635 62.9902 45.7141 62.9902C40.5641 62.9902 36.3893 58.8154 36.3893 53.6654V39.8994C36.3893 39.0508 35.7017 38.3633 34.8524 38.3633H31.159C30.3103 38.3633 29.6228 39.0508 29.6228 39.8994V53.8165C29.6228 62.7032 36.8267 69.9077 45.7141 69.9077C54.6008 69.9077 61.8054 62.7032 61.8054 53.8165V39.8994C61.8054 39.0508 61.1172 38.3633 60.2685 38.3633H56.5745C55.7264 38.3633 55.0383 39.0508 55.0383 39.8994Z" fill="#9BA0B1"/>
<path d="M75.0652 41.7898C75.0652 39.4896 76.9298 37.625 79.2293 37.625C81.5295 37.625 83.3941 39.4896 83.3941 41.7898C83.3941 44.0899 81.5295 45.9539 79.2293 45.9539C76.9298 45.9539 75.0652 44.0899 75.0652 41.7898Z" fill="#9BA0B1"/>
<path d="M37.411 76.5437C37.411 74.2435 39.2756 72.3789 41.5758 72.3789C43.8753 72.3789 45.7399 74.2435 45.7399 76.5437C45.7399 78.8439 43.8753 80.7078 41.5758 80.7078C39.2756 80.7078 37.411 78.8439 37.411 76.5437Z" fill="#9BA0B1"/>
<path d="M46.4596 76.5437C46.4596 74.2435 48.3242 72.3789 50.6237 72.3789C52.9239 72.3789 54.7885 74.2435 54.7885 76.5437C54.7885 78.8439 52.9239 80.7078 50.6237 80.7078C48.3242 80.7078 46.4596 78.8439 46.4596 76.5437Z" fill="#9BA0B1"/>
<path d="M9.48903 45.7485C11.783 44.7613 14.399 44.7625 16.6936 45.7472C17.7283 46.1915 18.6979 46.8359 19.5434 47.6813C22.2622 50.4002 22.9072 54.407 21.4775 57.737L9.48903 45.7485ZM4.58844 40.8479C3.64894 41.4496 2.75832 42.1609 1.93727 42.9819C1.4459 43.4739 0.994012 43.9898 0.580982 44.5262C0.111544 45.1367 0.171086 46.0017 0.716361 46.5463L1.51233 47.3423L4.70314 50.5337L16.6917 62.5222C13.3617 63.9519 9.35548 63.3076 6.63667 60.5881C6.25623 60.2076 5.9159 59.8021 5.61694 59.376C5.06728 58.5944 3.9479 58.4935 3.27163 59.1691L0.716987 61.7244C0.172338 62.2684 0.11217 63.134 0.582235 63.7444C0.994011 64.2802 1.4459 64.7961 1.93727 65.2875C7.27596 70.6262 15.4877 71.3382 21.5929 67.4235C22.5317 66.8212 23.4218 66.1092 24.2428 65.2881C25.0645 64.4671 25.7759 63.5764 26.3782 62.6375C30.2929 56.533 29.5808 48.3213 24.2421 42.9819C23.4211 42.1609 22.5317 41.4502 21.5922 40.8491C16.4278 37.5349 9.75353 37.5349 4.58844 40.8479Z" fill="#9BA0B1"/>
<path d="M88.3531 39.8994V53.6654C88.3531 58.8154 84.1784 62.9902 79.0289 62.9902C73.8789 62.9902 69.7041 58.8154 69.7041 53.6654V39.8994C69.7041 39.0508 69.0166 38.3633 68.168 38.3633H64.4739C63.6253 38.3633 62.9377 39.0508 62.9377 39.8994V53.8165C62.9377 62.7032 70.1417 69.9077 79.0289 69.9077C87.9157 69.9077 95.1205 62.7032 95.1205 53.8165V39.8994C95.1205 39.0508 94.4319 38.3633 93.5831 38.3633H89.8892C89.0414 38.3633 88.3531 39.0508 88.3531 39.8994Z" fill="#9BA0B1"/>
</g>
<defs>
<clipPath id="clip0_14325_46931">
<rect width="95.1957" height="80.0712" fill="white" transform="translate(0.264648 0.636719)"/>
</clipPath>
</defs>
</svg>
