<svg width="149" height="81" viewBox="0 0 149 81" fill="none" xmlns="http://www.w3.org/2000/svg">
<g clip-path="url(#clip0_5384_13545)">
<path d="M59.684 35.9519H42.8358C42.3223 35.9519 41.9218 36.4195 42.019 36.9261C42.5946 39.9541 44.7609 41.895 48.6346 41.895C50.9643 41.895 53.0918 41.178 54.9119 39.1943C55.0247 39.0735 55.1957 39.0578 55.3163 39.1669L59.3728 42.7483C59.5206 42.8809 59.5361 43.1381 59.3962 43.2822C56.4871 46.392 52.9984 47.8964 48.5801 47.8964C39.2575 47.8964 35.3062 41.1818 35.3062 33.9136C35.3062 26.8132 39.1448 19.6543 48.1407 19.6543C56.5337 19.6543 60.5902 25.8779 60.5902 33.4188C60.5902 34.0072 60.5629 34.5996 60.5047 35.2075C60.4696 35.6323 60.1079 35.9519 59.684 35.9519ZM54.2858 30.722C54.1769 27.2536 51.5439 25.1609 48.0901 25.1609C44.088 25.1609 42.2213 28.0252 41.8401 30.722H54.2858Z" fill="#9BA0B1"/>
<path d="M110.968 30.0829C111.119 32.7485 110.859 35.5233 110.859 37.9863C110.859 41.0102 110.859 44.0306 110.859 47.0546C110.859 47.2496 110.719 47.4054 110.548 47.4054H104.589C104.418 47.4054 104.278 47.2496 104.278 47.0546V32.0743C104.278 29.9231 104.002 25.4571 99.6733 25.4571C94.1351 25.4571 94.3529 31.5794 94.3529 37.0391V47.0546C94.3529 47.2496 94.2128 47.4054 94.0417 47.4054H88.0834C87.9122 47.4054 87.7722 47.2496 87.7722 47.0546V32.0743C87.7722 29.9231 87.496 25.4571 83.2219 25.4571C77.6835 25.4571 77.8468 31.5794 77.8468 37.0391V47.0546C77.8468 47.2496 77.7069 47.4054 77.5358 47.4054H71.5774C71.4062 47.4054 71.2663 47.2496 71.2663 47.0546L71.2118 20.5429C71.2118 20.3636 71.3596 20.2155 71.5385 20.2155H73.5492H74.4555C74.6421 20.2155 74.7434 20.3558 74.7977 20.5351C75.1905 21.9185 76.9523 22.5343 78.2319 22.1056C79.0098 21.8445 79.632 21.2677 80.3166 20.8156C81.7012 19.8998 82.9145 19.6621 84.8125 19.6621C87.6828 19.6621 89.9929 20.0167 91.638 24.2061C93.7228 20.1259 97.9192 19.6621 101.427 19.6621C104.62 19.6621 107.689 21.0923 109.354 23.9099C110.431 25.7415 110.843 27.8771 110.968 30.0829Z" fill="#9BA0B1"/>
<path d="M121.476 33.7422C121.476 26.0377 126.633 19.6543 135.022 19.6543C143.357 19.6543 148.568 26.0377 148.568 33.7422C148.568 41.3922 143.361 47.8847 135.022 47.8847C126.633 47.8847 121.476 41.3922 121.476 33.7422ZM141.988 33.7422C141.988 29.284 140.012 25.4337 135.022 25.4337C130.032 25.4337 128.056 29.284 128.056 33.7422C128.056 38.1459 130.032 42.1053 135.022 42.1053C140.012 42.1053 141.988 38.1459 141.988 33.7422Z" fill="#9BA0B1"/>
<path d="M15.2648 19.6543C14.0397 19.6543 12.8068 19.7361 11.6167 20.0596C10.3877 20.3947 9.35315 21.0027 8.27194 21.6496C7.52521 22.1017 6.64624 22.4368 5.77894 22.1523C5.01274 21.9029 4.33992 21.2872 4.03266 20.535L3.98598 20.422C3.93543 20.2973 3.82653 20.2194 3.70207 20.2194H0.757918C0.586791 20.2194 0.446777 20.3753 0.446777 20.5701V59.2486C0.446777 59.4434 0.586791 59.5994 0.757918 59.5994H6.78236C6.95348 59.5994 7.0935 59.4434 7.0935 59.2486V46.0609C7.0935 45.7608 7.40464 45.6011 7.60299 45.7959C9.41149 47.5612 12.3868 48.6368 15.2648 48.6368C22.1099 48.6368 27.0298 43.2705 27.0298 34.171C27.0298 25.8117 22.8449 19.6543 15.2648 19.6543ZM14.6814 42.7328C11.1967 42.8418 7.9647 39.9075 7.58354 36.4311C6.90291 30.2699 8.83588 25.5623 14.4753 25.5779C18.9906 25.5934 21.0675 28.6565 21.0481 34.1476C21.0325 39.4593 18.9789 42.6003 14.6814 42.7328Z" fill="#9BA0B1"/>
</g>
<defs>
<clipPath id="clip0_5384_13545">
<rect width="148.444" height="42.0374" fill="white" transform="translate(0.446777 19.6543)"/>
</clipPath>
</defs>
</svg>
