<svg width="178" height="81" viewBox="0 0 178 81" fill="none" xmlns="http://www.w3.org/2000/svg">
<mask id="mask0_14326_47568" style="mask-type:alpha" maskUnits="userSpaceOnUse" x="0" y="17" width="178" height="46">
<g clip-path="url(#clip0_14326_47568)">
<path fill-rule="evenodd" clip-rule="evenodd" d="M14.1816 19.9025C14.91 18.648 16.2575 17.875 17.7159 17.875H36.2374L22.0558 42.2972C21.3274 43.5516 19.9799 44.3246 18.5215 44.3246H0L14.1816 19.9025ZM33.6435 37.774C34.372 36.5195 35.7194 35.7465 37.1779 35.7465H55.6994L41.5177 60.1689C40.7892 61.4233 39.4419 62.1963 37.9834 62.1963H19.462L33.6435 37.774ZM106.857 21.5989V51.1168H102.285V21.5989H106.857ZM78.8753 32.3689C79.6506 31.3584 80.7066 30.5074 82.0435 29.816C83.3802 29.1246 84.8909 28.7789 86.5753 28.7789C88.5001 28.7789 90.2513 29.2576 91.8288 30.2149C93.4329 31.1457 94.6895 32.462 95.5984 34.1639C96.5075 35.8658 96.962 37.8204 96.962 40.0276C96.962 42.2348 96.5075 44.216 95.5984 45.9711C94.6895 47.6996 93.4329 49.0559 91.8288 50.0398C90.2513 50.9971 88.5001 51.4758 86.5753 51.4758C84.8909 51.4758 83.3937 51.1434 82.0835 50.4786C80.7734 49.7872 79.7042 48.9362 78.8753 47.9257V61.5676H74.3035V29.1379H78.8753V32.3689ZM92.31 40.0276C92.31 38.5118 91.9892 37.2088 91.3475 36.1185C90.7326 35.0016 89.9038 34.1639 88.8611 33.6055C87.8452 33.0204 86.7489 32.7279 85.5726 32.7279C84.4229 32.7279 83.3268 33.0204 82.2841 33.6055C81.2682 34.1905 80.4394 35.0415 79.7977 36.1584C79.1828 37.2753 78.8753 38.5916 78.8753 40.1074C78.8753 41.6232 79.1828 42.9528 79.7977 44.0963C80.4394 45.2132 81.2682 46.0642 82.2841 46.6492C83.3268 47.2343 84.4229 47.5268 85.5726 47.5268C86.7489 47.5268 87.8452 47.2343 88.8611 46.6492C89.9038 46.0376 90.7326 45.16 91.3475 44.0165C91.9892 42.873 92.31 41.5434 92.31 40.0276ZM133.673 51.1168V29.1379H129.101V41.3838C129.101 43.3517 128.593 44.8675 127.577 45.9312C126.588 46.9683 125.238 47.4869 123.527 47.4869C121.816 47.4869 120.466 46.9683 119.476 45.9312C118.487 44.8675 117.993 43.3517 117.993 41.3838V29.1379H113.461V42.062C113.461 44.0564 113.849 45.7584 114.624 47.1678C115.426 48.5772 116.509 49.6409 117.872 50.3589C119.263 51.0769 120.827 51.4359 122.564 51.4359C123.874 51.4359 125.104 51.1833 126.254 50.678C127.43 50.1462 128.379 49.4282 129.101 48.524V51.1168H133.673ZM145.841 32.8476V45.0138C145.841 45.8381 146.028 46.4365 146.403 46.8088C146.804 47.1545 147.472 47.3273 148.408 47.3273H151.215V51.1168H147.606C145.547 51.1168 143.97 50.6381 142.873 49.6808C141.777 48.7234 141.229 47.1678 141.229 45.0138V32.8476H138.622V29.1379H141.229V23.6731H145.841V29.1379H151.215V32.8476H145.841ZM160.161 50.0797C161.845 51.0104 163.73 51.4758 165.816 51.4758C167.928 51.4758 169.852 51.0104 171.591 50.0797C173.355 49.1223 174.746 47.7794 175.762 46.0509C176.778 44.3223 177.285 42.3412 177.285 40.1074C177.285 37.8736 176.791 35.8924 175.801 34.1639C174.811 32.4354 173.462 31.1058 171.752 30.175C170.04 29.2443 168.129 28.7789 166.016 28.7789C163.904 28.7789 161.992 29.2443 160.281 30.175C158.57 31.1058 157.22 32.4354 156.231 34.1639C155.242 35.8924 154.747 37.8736 154.747 40.1074C154.747 42.3678 155.228 44.3622 156.191 46.0908C157.153 47.7927 158.477 49.1223 160.161 50.0797ZM169.104 46.6891C168.088 47.2475 166.991 47.5268 165.816 47.5268C163.971 47.5268 162.433 46.8885 161.204 45.6121C160.001 44.309 159.399 42.4741 159.399 40.1074C159.399 38.5118 159.693 37.1689 160.281 36.0786C160.869 34.9617 161.658 34.124 162.647 33.5656C163.663 33.0071 164.76 32.7279 165.936 32.7279C167.113 32.7279 168.209 33.0071 169.224 33.5656C170.24 34.124 171.056 34.9617 171.671 36.0786C172.285 37.1689 172.594 38.5118 172.594 40.1074C172.594 41.703 172.272 43.0592 171.63 44.1761C170.988 45.293 170.146 46.1307 169.104 46.6891Z" fill="white"/>
</g>
</mask>
<g mask="url(#mask0_14326_47568)">
<rect y="-8.125" width="188" height="78" fill="#9BA0B1"/>
</g>
<defs>
<clipPath id="clip0_14326_47568">
<rect width="177.285" height="44.3213" fill="white" transform="translate(0 17.875)"/>
</clipPath>
</defs>
</svg>
