<svg width="185" height="81" viewBox="0 0 185 81" fill="none" xmlns="http://www.w3.org/2000/svg">
<g clip-path="url(#clip0_5384_13551)">
<mask id="mask0_5384_13551" style="mask-type:luminance" maskUnits="userSpaceOnUse" x="0" y="16" width="185" height="49">
<path d="M184.475 16.6523H0.649506V64.695H184.475V16.6523Z" fill="white"/>
</mask>
<g mask="url(#mask0_5384_13551)">
<path d="M66.2444 28.3287V32.5959C65.2145 31.2453 63.8377 30.1155 62.1087 29.2116C60.385 28.3077 58.367 27.8505 56.0547 27.8505C53.4955 27.8505 51.1568 28.4811 49.0443 29.7423C46.9264 31.0036 45.2606 32.7746 44.0309 35.0501C42.8064 37.3255 42.1916 39.9374 42.1916 42.8909C42.1916 45.8441 42.8064 48.4822 44.0309 50.8103C45.2606 53.1384 46.9212 54.9514 49.0181 56.2493C51.1148 57.5475 53.427 58.1939 55.9497 58.1939C58.2251 58.1939 60.2483 57.7313 62.0299 56.8064C63.806 55.8816 65.2093 54.7254 66.2444 53.338V57.7102H72.3773V28.3287H66.2444ZM64.9937 48.2983C64.1582 49.8118 63.065 50.9574 61.7146 51.7405C60.364 52.5234 58.9031 52.9124 57.3423 52.9124C55.7815 52.9124 54.3624 52.513 52.9962 51.7141C51.6246 50.9154 50.5262 49.7488 49.6907 48.2196C48.8551 46.6902 48.44 44.9141 48.44 42.8855C48.44 40.8571 48.8551 39.1071 49.6907 37.6304C50.5262 36.1536 51.6194 35.0343 52.97 34.2723C54.3204 33.5103 55.7761 33.1267 57.3423 33.1267C58.9083 33.1267 60.364 33.5208 61.7146 34.2986C63.065 35.0816 64.1582 36.2167 64.9937 37.7145C65.8292 39.207 66.2444 40.9674 66.2444 42.996C66.2444 45.0244 65.824 46.7901 64.9937 48.3037V48.2983ZM100.482 44.9665C99.4885 43.8315 98.3063 42.9695 96.9347 42.381C95.5631 41.7925 93.8131 41.2196 91.6794 40.6469C90.0818 40.1843 88.8679 39.8007 88.0534 39.5013C87.2337 39.2016 86.5398 38.7812 85.9723 38.2505C85.4048 37.7197 85.121 37.0575 85.121 36.2798C85.121 35.2865 85.5468 34.4825 86.4033 33.8782C87.2547 33.2738 88.4844 32.9743 90.0818 32.9743C91.6794 32.9743 93.0142 33.3684 93.9758 34.1462C94.9377 34.9292 95.4684 35.9802 95.5789 37.2941H101.659C101.517 34.3774 100.424 32.0756 98.3798 30.3887C96.3355 28.7018 93.6396 27.8557 90.3026 27.8557C88.064 27.8557 86.0826 28.2289 84.3589 28.9751C82.6354 29.7213 81.311 30.7461 80.3862 32.0441C79.4612 33.3421 78.9987 34.7715 78.9987 36.3376C78.9987 38.2557 79.5032 39.8059 80.5175 40.978C81.5318 42.1498 82.7299 43.0222 84.1173 43.5897C85.5047 44.1572 87.2967 44.7459 89.5039 45.3503C91.7793 45.9912 93.44 46.5745 94.4909 47.1106C95.542 47.6415 96.0623 48.4612 96.0623 49.5648C96.0623 50.5949 95.5893 51.4409 94.6487 52.0979C93.708 52.7546 92.3836 53.0857 90.6757 53.0857C88.9678 53.0857 87.6803 52.6706 86.5977 51.835C85.5151 50.9995 84.916 49.959 84.8109 48.7134H78.5205C78.5888 50.495 79.1617 52.0979 80.2284 53.5377C81.2952 54.9776 82.7457 56.118 84.5745 56.9536C86.4033 57.7891 88.4738 58.2043 90.786 58.2043C93.0983 58.2043 95.0428 57.8311 96.7297 57.0849C98.4166 56.3388 99.7252 55.3087 100.65 53.9897C101.575 52.676 102.037 51.1834 102.037 49.5124C102.001 47.6257 101.486 46.1175 100.492 44.9771L100.482 44.9665ZM133.679 33.5523C132.664 31.6657 131.277 30.2469 129.517 29.2852C127.756 28.3235 125.759 27.8452 123.515 27.8452C121.629 27.8452 119.9 28.1816 118.318 28.8595C116.736 29.5374 115.428 30.4938 114.398 31.7393V18.2546H108.317V57.7156H114.398V41.288C114.398 38.6551 115.065 36.6424 116.395 35.234C117.729 33.8309 119.532 33.1267 121.807 33.1267C124.083 33.1267 125.88 33.8309 127.194 35.234C128.508 36.6371 129.165 38.6551 129.165 41.288V57.7156H135.192V40.384C135.192 37.7197 134.688 35.4442 133.674 33.5576L133.679 33.5523ZM142.665 28.3235V57.705H148.745V28.3287H142.665V28.3235ZM148.477 17.7658C147.731 17.0196 146.822 16.6465 145.76 16.6465C144.699 16.6465 143.732 17.0196 142.986 17.7658C142.239 18.5121 141.866 19.437 141.866 20.5406C141.866 21.6441 142.239 22.569 142.986 23.3153C143.732 24.0615 144.657 24.4346 145.76 24.4346C146.864 24.4346 147.731 24.0615 148.477 23.3153C149.224 22.569 149.597 21.6441 149.597 20.5406C149.597 19.437 149.224 18.5121 148.477 17.7658ZM182.499 35.0448C181.185 32.7325 179.388 30.9563 177.113 29.7108C174.837 28.4653 172.294 27.8452 169.487 27.8452C166.681 27.8452 164.138 28.4706 161.862 29.7108C159.587 30.9563 157.789 32.7325 156.476 35.0448C155.162 37.3572 154.5 40.0057 154.5 42.9906C154.5 45.9756 155.141 48.6714 156.418 50.9626C157.7 53.2539 159.455 55.0355 161.699 56.2968C163.938 57.5579 166.445 58.1885 169.219 58.1885C171.994 58.1885 174.596 57.5579 176.923 56.2968C179.251 55.0355 181.091 53.2487 182.441 50.9364C183.792 48.6242 184.47 45.9756 184.47 42.9906C184.47 40.0057 183.813 37.3572 182.499 35.0448ZM176.955 48.4298C176.104 49.9221 174.989 51.0415 173.623 51.7878C172.257 52.534 170.786 52.9072 169.225 52.9072C166.771 52.9072 164.737 52.0452 163.118 50.3215C161.499 48.5979 160.69 46.1542 160.69 42.9906C160.69 40.8571 161.079 39.0545 161.862 37.5777C162.645 36.1011 163.701 34.9922 165.036 34.246C166.371 33.4998 167.816 33.1267 169.382 33.1267C170.948 33.1267 172.404 33.4998 173.755 34.246C175.105 34.9922 176.188 36.1064 177.007 37.5777C177.827 39.0545 178.232 40.8571 178.232 42.9906C178.232 45.1243 177.806 46.9373 176.95 48.4298H176.955ZM36.1428 56.1811C31.9125 57.0008 28.5755 60.338 27.7556 64.5683C27.7398 64.6524 27.6767 64.6892 27.6085 64.6892C27.5402 64.6892 27.4771 64.6524 27.4613 64.5683C27.0934 62.666 26.2158 60.9423 24.9757 59.5497C24.9703 59.5445 24.9651 59.5339 24.9599 59.5287C24.0087 58.4619 22.6056 57.9206 21.1761 58.0203C20.9187 58.0413 20.6612 58.0519 20.4037 58.0624C20.1304 58.073 19.8571 58.0782 19.5786 58.0782C18.5906 58.0782 17.6289 58.0099 16.6883 57.8786C14.3392 57.5475 12.1268 56.8064 10.0562 55.6502C7.16065 54.0318 4.86415 51.7772 3.17723 48.8764C1.49559 45.9912 0.649506 42.7279 0.649506 39.1017C0.649506 35.4757 1.49559 32.2228 3.1825 29.343C4.8694 26.4631 7.16592 24.2139 10.0615 22.5953C12.9571 20.9767 16.1312 20.1675 19.5786 20.1675C23.026 20.1675 26.2527 20.9767 29.1534 22.5953C32.049 24.2139 34.335 26.4631 36.0063 29.343C37.6774 32.2228 38.513 35.4757 38.513 39.1017C38.513 42.7279 37.6774 45.9912 36.0063 48.887C35.381 49.9748 34.6661 50.9733 33.8622 51.8823C32.9214 51.2465 32.1227 50.4057 31.5446 49.4387C31.0822 48.6662 30.6145 47.4575 30.4988 46.601C30.5515 46.5115 30.5987 46.4222 30.646 46.3277C31.7285 44.2467 32.2698 41.8397 32.2698 39.1017C32.2698 36.3638 31.7285 33.9675 30.646 31.9022C29.5634 29.8422 28.0605 28.2604 26.137 27.1568C24.2189 26.0532 22.0327 25.5014 19.5786 25.5014C17.1244 25.5014 14.9383 26.0532 13.0202 27.1568C11.102 28.2604 9.59904 29.8422 8.51648 31.9022C7.43392 33.9623 6.88739 36.3638 6.88739 39.1017C6.88739 41.8397 7.42867 44.2467 8.51648 46.3277C9.59904 48.4088 11.102 50.0062 13.0202 51.1256C14.912 52.2292 17.0614 52.7915 19.4735 52.8021C19.5103 52.8021 19.5418 52.8021 19.5786 52.8021C20.8082 52.8021 21.9697 52.6602 23.0628 52.3815C23.0732 52.3815 23.0838 52.3763 23.0943 52.3711C25.1439 51.8402 26.7623 50.2322 27.3036 48.1828C27.3614 47.9568 27.4141 47.7256 27.4613 47.4944C27.4771 47.4103 27.5454 47.3735 27.6085 47.3735C27.6715 47.3735 27.7398 47.4103 27.7556 47.4944C27.8871 48.1722 28.0815 48.8291 28.3389 49.4545C28.5439 49.9642 28.7909 50.4478 29.0694 50.9154C29.7632 52.0768 30.6722 53.0911 31.7443 53.9057C31.9966 54.1 32.2594 54.2788 32.5326 54.4521C33.6204 55.1406 34.8397 55.6292 36.1481 55.8816C36.311 55.913 36.311 56.1442 36.1481 56.1759L36.1428 56.1811Z" fill="#9BA0B1"/>
</g>
</g>
<defs>
<clipPath id="clip0_5384_13551">
<rect width="184.164" height="48.0427" fill="white" transform="translate(0.649536 16.6504)"/>
</clipPath>
</defs>
</svg>
