<svg width="163" height="81" viewBox="0 0 163 81" fill="none" xmlns="http://www.w3.org/2000/svg">
<g clip-path="url(#clip0_5384_13593)">
<path d="M82.0246 37.6634C77.9098 36.9093 74.3725 36.2719 74.3725 32.9677C74.3725 30.1845 76.4582 27.9258 80.6313 27.9258C84.7496 27.9258 86.8935 30.0132 86.9518 32.9094H93.9662C93.6767 25.955 88.3999 21.2539 80.5748 21.2539C72.5183 21.2539 67.185 26.1793 67.185 33.1956C67.185 42.006 73.9664 43.2246 79.7058 44.2683C83.8207 45.0205 87.3562 45.658 87.3562 48.9623C87.3562 51.9768 85.0975 54.0059 80.5165 54.0059C75.9955 54.0059 73.735 51.9768 73.6767 48.9623H66.4363C66.6127 56.2028 72.1156 60.6726 80.5217 60.6726C88.9861 60.6726 94.6091 56.0916 94.6091 48.7309C94.602 39.9186 87.7623 38.7019 82.0246 37.6634Z" fill="#9BA0B1"/>
<path d="M113.731 30.5273C104.629 30.5273 98.2524 36.7896 98.2524 45.8915C98.2524 55.6891 105.558 60.6745 112.513 60.6745C117.034 60.6745 120.919 58.5307 122.658 54.2975V59.9152H128.977V45.8279C128.977 36.6147 122.717 30.5273 113.731 30.5273ZM113.673 54.2375C108.631 54.2375 105.21 50.6437 105.21 45.6019C105.21 40.56 108.631 36.9574 113.673 36.9574C118.715 36.9574 122.077 40.5529 122.077 45.5965C122.077 50.6403 118.715 54.2375 113.673 54.2375Z" fill="#9BA0B1"/>
<path d="M154.714 31.2808L146.768 53.5994L138.821 31.2808H131.296L142.54 59.9145H150.84L162.086 31.2773L154.714 31.2808Z" fill="#9BA0B1"/>
<path d="M50.902 32.0141H34.0121C32.0891 32.013 30.2372 32.7416 28.8304 34.0526C27.4236 35.3637 26.5666 37.1597 26.4324 39.0781C26.4324 39.1311 26.4324 39.184 26.4183 39.2371C26.4183 39.366 26.4183 39.4949 26.4183 39.6237V43.2247H26.3954L0.55896 40.2967C0.713528 34.2558 2.96977 28.458 6.93913 23.9016C10.9085 19.3453 16.3424 16.3158 22.305 15.3348C28.2677 14.3538 34.3858 15.4828 39.6056 18.5273C44.8256 21.5718 48.8203 26.3412 50.902 32.0141Z" fill="url(#paint0_linear_5384_13593)"/>
<path d="M52.2777 41.9903V44.3302C51.5287 50.0603 48.8903 55.3771 44.7799 59.4392C40.6694 63.5013 35.322 66.0767 29.5834 66.758C23.8447 67.4393 18.0428 66.1875 13.0956 63.2008C8.14833 60.214 4.33834 55.6628 2.26843 50.2673H18.8157C20.736 50.2687 22.5853 49.5427 23.9917 48.2353C25.3981 46.9279 26.2569 45.1363 26.3954 43.221C26.3954 43.1681 26.3954 43.1133 26.4113 43.0603C26.4113 42.9315 26.4113 42.8026 26.4113 42.6736V39.0781H26.4253L52.2777 41.9903Z" fill="url(#paint1_linear_5384_13593)"/>
</g>
<defs>
<linearGradient id="paint0_linear_5384_13593" x1="0.973967" y1="55.6025" x2="74.0488" y2="-16.7996" gradientUnits="userSpaceOnUse">
<stop stop-color="#9BA0B1"/>
<stop offset="0.26" stop-color="#9BA0B1"/>
<stop offset="0.49" stop-color="#9BA0B1"/>
<stop offset="1" stop-color="#9BA0B1"/>
</linearGradient>
<linearGradient id="paint1_linear_5384_13593" x1="11.7694" y1="66.4986" x2="84.8444" y2="-5.90348" gradientUnits="userSpaceOnUse">
<stop stop-color="#9BA0B1"/>
<stop offset="0.23" stop-color="#9BA0B1"/>
<stop offset="0.49" stop-color="#9BA0B1"/>
<stop offset="1" stop-color="#9BA0B1"/>
</linearGradient>
<clipPath id="clip0_5384_13593">
<rect width="162.144" height="51.9491" fill="white" transform="translate(0.55896 14.9902)"/>
</clipPath>
</defs>
</svg>
