<svg width="141" height="81" viewBox="0 0 141 81" fill="none" xmlns="http://www.w3.org/2000/svg">
<mask id="mask0_5384_13600" style="mask-type:luminance" maskUnits="userSpaceOnUse" x="0" y="7" width="141" height="67">
<path d="M140.899 7.9043H0.77417V74.0007H140.899V7.9043Z" fill="white"/>
</mask>
<g mask="url(#mask0_5384_13600)">
<path d="M33.7372 16.412C31.8689 18.1767 30.1674 20.108 28.6827 22.2058C31.1849 25.7187 33.1367 29.6479 34.3878 33.86C37.0067 27.6833 41.7277 22.622 47.6663 19.5585C53.6048 22.622 58.3424 27.6833 60.9446 33.8766C62.1957 29.6479 64.1475 25.7187 66.6497 22.2058C65.1483 20.108 63.4635 18.16 61.5785 16.412C57.6251 12.6825 52.8875 9.75236 47.6496 7.9043C42.4282 9.75236 37.6907 12.6825 33.7372 16.412Z" fill="url(#paint0_linear_5384_13600)"/>
<path d="M5.76208 69.9549C6.12903 67.4077 6.12903 64.8936 5.76208 62.3464C10.0492 66.442 19.8245 68.4066 28.1986 68.4066C35.0047 68.4066 37.8405 66.9082 37.8405 63.8948C37.8405 59.8823 33.5534 59.4328 23.361 58.5671C12.1677 57.5681 5.41174 55.7867 5.41174 48.894C5.41174 42.0014 11.4838 38.7715 23.9115 38.7715C32.6359 38.7715 37.8405 39.9535 44.2795 41.5019C43.9126 43.966 43.9126 46.2968 44.2795 48.611C38.9748 46.43 31.952 44.1824 23.6279 44.1824C16.5884 44.1824 13.6191 45.5975 13.6191 48.6443C13.6191 52.2904 17.2723 53.2561 26.5972 53.972C38.3409 54.8876 46.0644 56.486 46.0644 63.8115C46.0644 70.5543 39.859 73.8008 27.4647 73.8008C19.1072 73.8175 11.5172 72.086 5.76208 69.9549Z" fill="#9BA0B1"/>
<path d="M60.2607 45.7026C60.1272 54.8596 60.2607 64.1663 60.6777 73.3232H52.4537C52.8208 62.0186 52.8208 50.664 52.4537 39.3594C55.4731 39.7257 60.7611 39.8089 63.7804 39.3594C70.8201 48.7993 78.1765 58.1062 85.8498 67.2631C85.9832 57.9563 85.9001 48.6162 85.4328 39.3594C88.3187 39.7756 91.005 39.8089 93.557 39.3594C93.2399 50.664 93.2903 62.0186 93.6904 73.3232H82.6308C75.4742 63.9832 68.0342 54.7264 60.2607 45.7026Z" fill="#9BA0B1"/>
<path d="M101.48 39.2719C107.652 39.2719 113.457 39.1387 122.132 39.1387C132.908 39.1387 138.813 41.6527 138.813 47.6629C138.813 53.0405 134.008 55.1383 128.12 55.3714V55.9708C135.426 56.1539 140.914 58.6179 140.914 64.4118C140.914 72.6197 129.638 73.6187 121.447 73.6187C111.906 73.6187 107.785 73.3523 101.48 73.3523C102.03 64.7947 102.03 47.7962 101.48 39.2719ZM122.165 54.3058C127.787 54.3058 130.523 52.6576 130.523 49.2946C130.523 45.6984 127.502 44.4664 122.165 44.4664C116.827 44.4664 112.156 44.4664 109.604 44.5163C109.52 47.5297 109.47 50.7596 109.52 54.2226C113.39 54.2725 117.727 54.3058 122.165 54.3058ZM109.687 68.0746C113.29 68.1578 116.076 68.2577 121.831 68.2577C130.055 68.2577 132.107 65.8436 132.107 63.1464C132.107 60.7323 130.055 58.7178 122.148 58.7178C117.71 58.7178 113.374 58.7178 109.503 58.7678C109.503 61.8811 109.604 65.2109 109.687 68.0746Z" fill="#9BA0B1"/>
</g>
<defs>
<linearGradient id="paint0_linear_5384_13600" x1="47.4827" y1="33.4616" x2="47.4827" y2="7.9043" gradientUnits="userSpaceOnUse">
<stop stop-color="#9BA0B1"/>
<stop offset="1" stop-color="#9BA0B1"/>
</linearGradient>
</defs>
</svg>
