<svg width="245" height="81" viewBox="0 0 245 81" fill="none" xmlns="http://www.w3.org/2000/svg">
<g clip-path="url(#clip0_5384_13610)">
<path d="M38.3806 20.6348H11.8934C11.4074 20.6348 11.0429 21.2423 11.4074 21.7283L24.5295 38.4954C24.651 38.6169 24.894 38.6169 25.0155 38.4954L27.81 34.9719C27.9315 34.8504 27.9315 34.7289 27.81 34.6074L20.8844 25.6163C20.7629 25.3733 20.8844 25.1303 21.1274 25.1303H35.3431C35.4646 25.1303 35.5861 25.1303 35.5861 25.0088L38.6236 21.1208C38.8666 20.9993 38.6236 20.6348 38.3806 20.6348Z" fill="#9BA0B1"/>
<path d="M56.4843 42.8678L53.6897 46.3913C53.6897 46.5128 53.6897 46.6343 53.6897 46.7558L60.7368 55.7469C60.8583 55.9899 60.7368 56.2329 60.4938 56.2329H45.0632C44.8202 56.2329 44.6987 56.1114 44.5772 55.9899L34.2496 42.8678C34.1281 42.7463 33.8851 42.7463 33.7636 42.8678L30.9691 46.3913C30.8476 46.5128 30.8476 46.6343 30.9691 46.7558L41.6611 60.4854C41.7826 60.6069 42.0256 60.7284 42.1472 60.7284H69.4849C69.9709 60.7284 70.3354 60.1209 69.9709 59.6349L56.9703 42.8678C56.8488 42.6248 56.6058 42.6248 56.4843 42.8678Z" fill="#9BA0B1"/>
<path d="M45.1846 28.2884L42.3901 31.8119C42.2686 31.9334 42.2686 32.0549 42.3901 32.1764L47.2501 38.4945C47.3716 38.616 47.6146 38.616 47.7361 38.4945L50.5306 34.9709C50.6521 34.8494 50.6521 34.7279 50.5306 34.6064L45.6706 28.2884C45.5491 28.1669 45.3061 28.1669 45.1846 28.2884Z" fill="#9BA0B1"/>
<path d="M52.2316 7.51449L0.958135 73.0035C0.593632 73.368 0.958135 74.097 1.44414 74.097H28.9034C29.1464 74.097 29.2679 73.9755 29.3894 73.854L39.231 61.3394C39.3525 61.2179 39.3525 61.0964 39.231 60.9749L36.4364 57.4514C36.3149 57.3299 36.0719 57.3299 35.9504 57.4514L26.5949 69.48C26.4734 69.6015 26.2303 69.723 26.1088 69.723H10.6782C10.4352 69.723 10.3137 69.3585 10.4352 69.237L55.0261 12.01C55.1476 11.8885 55.3906 11.767 55.5121 11.767H70.9427C71.1857 11.767 71.3072 12.1315 71.1857 12.253L42.39 49.0678C42.2685 49.1893 42.2685 49.3108 42.39 49.4323L45.1845 52.9559C45.306 53.0774 45.549 53.0774 45.6705 52.9559L80.5413 8.36499C80.9058 8.00049 80.5413 7.27148 80.0553 7.27148H52.7176C52.4746 7.27148 52.3531 7.39299 52.2316 7.51449Z" fill="#9BA0B1"/>
<path d="M243.839 31.4498V27.5618C243.839 27.4403 243.718 27.1973 243.475 27.1973H224.156C224.034 27.1973 223.791 27.3188 223.791 27.5618V53.6845C223.791 53.806 223.913 54.049 224.156 54.049H243.475C243.596 54.049 243.839 53.9275 243.839 53.6845V49.7965C243.839 49.675 243.718 49.432 243.475 49.432H229.259C229.137 49.432 228.894 49.3105 228.894 49.0675V42.9924C228.894 42.8709 229.016 42.6279 229.259 42.6279H241.895C242.017 42.6279 242.26 42.5064 242.26 42.2634V38.3754C242.26 38.2539 242.138 38.0109 241.895 38.0109H229.259C229.137 38.0109 228.894 37.8894 228.894 37.6464V32.1788C228.894 32.0573 229.016 31.8143 229.259 31.8143H243.475C243.718 31.8143 243.839 31.6928 243.839 31.4498Z" fill="#9BA0B1"/>
<path d="M161.34 31.4498V27.5618C161.34 27.4403 161.218 27.1973 160.975 27.1973H141.657C141.535 27.1973 141.292 27.3188 141.292 27.5618V53.6845C141.292 53.806 141.414 54.049 141.657 54.049H160.975C161.097 54.049 161.34 53.9275 161.34 53.6845V49.7965C161.34 49.675 161.218 49.432 160.975 49.432H146.76C146.638 49.432 146.395 49.3105 146.395 49.0675V42.9924C146.395 42.8709 146.517 42.6279 146.76 42.6279H159.396C159.517 42.6279 159.76 42.5064 159.76 42.2634V38.3754C159.76 38.2539 159.639 38.0109 159.396 38.0109H146.76C146.638 38.0109 146.395 37.8894 146.395 37.6464V32.1788C146.395 32.0573 146.517 31.8143 146.76 31.8143H160.975C161.218 31.8143 161.34 31.6928 161.34 31.4498Z" fill="#9BA0B1"/>
<path d="M184.668 27.6829V45.5435L170.452 27.4399C170.331 27.3184 170.331 27.3184 170.209 27.3184H166.564C166.443 27.3184 166.2 27.4399 166.2 27.6829V53.8056C166.2 53.9271 166.321 54.1701 166.564 54.1701H170.938C171.06 54.1701 171.303 54.0486 171.303 53.8056V35.8234L185.518 53.9271C185.64 54.0486 185.64 54.0486 185.761 54.0486H189.406C189.528 54.0486 189.771 53.9271 189.771 53.6841V27.6829C189.771 27.5614 189.649 27.3184 189.406 27.3184H184.911C184.789 27.3184 184.668 27.4399 184.668 27.6829Z" fill="#9BA0B1"/>
<path d="M136.432 37.0384C136.067 41.8985 131.815 45.5435 126.955 45.5435H120.88C120.758 45.5435 120.515 45.665 120.515 45.908V53.6841C120.515 53.8056 120.394 54.0486 120.151 54.0486H115.777C115.655 54.0486 115.412 53.9271 115.412 53.6841V27.6829C115.412 27.5614 115.534 27.3184 115.777 27.3184H127.076C132.544 27.3184 136.796 31.6924 136.432 37.0384ZM126.59 31.8139H121.001C120.88 31.8139 120.637 31.9354 120.637 32.1784V40.805C120.637 40.9265 120.758 41.1695 121.001 41.1695H126.833C129.506 41.1695 131.693 38.861 131.45 36.0664C131.207 33.6364 129.02 31.8139 126.59 31.8139Z" fill="#9BA0B1"/>
<path d="M208.482 50.0366C203.622 50.0366 199.612 45.9056 199.612 40.6811C199.612 35.578 203.622 31.3255 208.482 31.3255C211.398 31.3255 213.95 32.7835 215.651 35.2135C215.772 35.335 216.015 35.4565 216.137 35.2135L218.81 31.8115C218.931 31.69 218.931 31.447 218.81 31.447C216.137 28.531 212.37 26.7084 208.118 26.8299C200.949 27.0729 194.995 32.905 194.752 40.0736C194.388 47.9711 200.706 54.4107 208.604 54.4107C212.735 54.4107 216.38 52.5882 218.931 49.6721C219.053 49.5506 219.053 49.4291 218.931 49.3076L216.258 45.9056C216.137 45.7841 215.894 45.7841 215.772 45.9056C214.071 48.4571 211.398 50.0366 208.482 50.0366Z" fill="#9BA0B1"/>
<path d="M100.346 40.4405L110.188 27.8044C110.309 27.5614 110.188 27.3184 109.945 27.3184H104.477C104.356 27.3184 104.234 27.3184 104.234 27.4399L97.3087 36.3094C97.1872 36.4309 96.9442 36.4309 96.8227 36.3094L89.8971 27.4399C89.7756 27.3184 89.7756 27.3184 89.6541 27.3184H84.0651C83.8221 27.3184 83.7006 27.6829 83.8221 27.8044L93.7852 40.4405C93.9067 40.562 93.9067 40.6835 93.7852 40.805L83.9436 53.4411C83.8221 53.6841 83.9436 53.9271 84.1866 53.9271H89.6541C89.7756 53.9271 89.8971 53.9271 89.8971 53.8056L96.8227 44.936C96.9442 44.8145 97.1872 44.8145 97.3087 44.936L104.234 53.8056C104.356 53.9271 104.356 53.9271 104.477 53.9271H109.945C110.188 53.9271 110.309 53.5626 110.188 53.4411L100.346 40.805C100.225 40.805 100.225 40.562 100.346 40.4405Z" fill="#9BA0B1"/>
</g>
<defs>
<clipPath id="clip0_5384_13610">
<rect width="244.217" height="68.0406" fill="white" transform="translate(0.229248 6.66211)"/>
</clipPath>
</defs>
</svg>
