<svg xmlns:xlink="http://www.w3.org/1999/xlink" xmlns="http://www.w3.org/2000/svg" class="h-m" viewBox="0 0 972 196" width="972"  height="196" ><g fill="#FFFFFE"><path d="m218.7 196h-218.7v-196h124.6c3 0 5.5 2.5 5.5 5.5s-2.5 5.5-5.5 5.5h-113.7v174.2h196.8v-74.9c0-3 2.6-5.4 5.6-5.3 2.9 0 5.3 2.4 5.3 5.3v85.8z" fill="#FFFFFE"></path><path d="m164 160.1v-57.9l-40.7-63.7c-.7-1.1-1-2.3-1-3.6 0-3.8 3.1-6.9 6.9-6.9 2.4 0 4.5 1.2 5.8 3.2l35.8 57.2 35.8-57.2c2-3.2 6.3-4.2 9.5-2.2 2 1.3 3.2 3.4 3.2 5.8s-.3 2.5-1 3.6l-40.6 63.7v57.9c0 3.8-3.3 6.8-7.1 6.7-3.7 0-6.6-3.1-6.7-6.7z" fill="#FFFFFE"></path><path d="m35.4 167.8c-3.9 0-7-3.2-7.1-7.1v-125.6c0-3.9 3.2-7 7.1-7.1h30c29.4 0 42.5 14.5 42.5 37 .3 12.9-7.9 24.4-20.2 28.3 15 3.8 26.7 14.5 26.7 34.7s-15.2 39.9-42.7 39.9h-36.2zm7.1-78.7h22.7c18.5 0 28.3-9.6 28.3-24.1s-8.9-24.1-28.3-24.1h-22.7zm0 65.8h29c18.9 0 28.5-10.2 28.5-27s-10.8-26.8-28.5-26.8h-29z" fill="#FFFFFE"></path><path d="m290.6 90.2c.6-1.5 2-2.4 3.6-2.4s3.8 1.7 3.8 3.8c0 .7-.1 1.2-.3 1.8l-26.3 69.1c-.7 2-2.8 3.1-4.8 2.4-1.1-.4-2-1.3-2.4-2.4l-26.3-69.1c-.2-.5-.3-1.1-.3-1.7 0-2.1 1.7-3.8 3.8-3.8 1.6 0 3 1 3.6 2.5l22.8 60.2 22.8-60.2z" fill="#FFFFFE"></path><path d="m322.5 111.6c18 0 21.4 14.2 21.4 21.8s0 7.1-4.5 7.1h-32.8c0 11.1 6.4 18.3 16.9 18.3 4.9 0 9.7-1.7 13.5-4.8.6-.4 1.3-.7 2-.7 1.8 0 3.3 1.5 3.3 3.3s-.4 2-1.2 2.6c-4.8 4.2-11.1 6.5-17.5 6.2-14.9 0-24.3-8.2-24.3-27s8.5-26.9 23.1-26.9zm0 6.5c-9.8 0-15.1 6.3-15.8 16.3h30.2c0-8-2.8-16.3-14.4-16.3z" fill="#FFFFFE"></path><path d="m398.1 131.4v29.9c0 2-1.6 3.6-3.6 3.6s-3.6-1.6-3.6-3.6v-28.4c0-8.9-2.6-14.9-13.5-14.9s-14.9 6.7-14.9 15.7v27.6c0 2-1.6 3.6-3.6 3.6s-3.6-1.6-3.6-3.6v-45.4c0-2 1.6-3.6 3.6-3.6s3.6 1.6 3.6 3.6v3.6c3.1-5.2 8.9-8.2 14.9-7.8 17.3 0 20.7 10.3 20.7 19.8z" fill="#FFFFFE"></path><path d="m414.7 101.4c0-2 1.6-3.6 3.6-3.6s3.6 1.6 3.6 3.6v11.8h7.3c1.8 0 3.3 1.5 3.3 3.3s-1.5 3.3-3.3 3.3h-7.3v30.9c0 4.8 2.7 7.4 6.5 7.4 1.8 0 3.4 1.4 3.5 3.2 0 1.8-1.4 3.4-3.2 3.5h-.2c-7.1.4-13.3-5-13.7-12.1 0-.7 0-1.3 0-2v-30.9h-4.4c-1.8 0-3.3-1.5-3.3-3.3s1.5-3.3 3.3-3.3h4.4v-11.8z" fill="#FFFFFE"></path><path d="m449.7 115.8v29.2c0 7.3 2.4 13.6 13.7 13.6s13.7-6.3 13.7-13.6v-29.2c0-2 1.7-3.6 3.7-3.6s3.5 1.6 3.5 3.6v29.2c0 10.6-3.5 20.4-20.9 20.4s-20.9-9.8-20.9-20.4v-29.2c0-2 1.6-3.6 3.5-3.6 2 0 3.6 1.6 3.6 3.6z" fill="#FFFFFE"></path><path d="m505.3 120.8c2.9-5.9 9.1-9.4 15.6-8.9 1.9 0 3.5 1.6 3.5 3.5s-1.6 3.5-3.5 3.5c-10.3 0-15.6 7.1-15.6 17.5v25.1c0 2-1.6 3.6-3.6 3.6s-3.6-1.6-3.6-3.6v-45.4c0-2 1.6-3.6 3.6-3.6s3.6 1.6 3.6 3.6v4.9z" fill="#FFFFFE"></path><path d="m551.7 111.6c18 0 21.4 14.2 21.4 21.8s0 7.1-4.5 7.1h-32.8c0 11.1 6.4 18.3 16.9 18.3 4.9 0 9.7-1.7 13.5-4.8.6-.4 1.3-.7 2-.7 1.8 0 3.3 1.5 3.3 3.3s-.4 2-1.2 2.6c-4.8 4.2-11.1 6.5-17.5 6.2-14.9 0-24.3-8.2-24.3-27 0-17.2 8.5-26.9 23.1-26.9zm0 6.5c-9.8 0-15.2 6.3-15.8 16.3h30.2c0-8-2.8-16.3-14.4-16.3z" fill="#FFFFFE"></path><path d="m621 161.1c0 2.1-1.7 3.8-3.8 3.8s-3.8-1.7-3.8-3.8v-68.6c0-2.1 1.7-3.8 3.8-3.8h22.4c12 0 21.4 6.9 21.4 21.8s-9.2 21.9-21.4 21.9h-18.5v28.7zm0-35.6h17.4c8.2 0 14.9-6.7 14.9-14.9s-6.7-14.9-14.9-14.9h-17.4v29.9z" fill="#FFFFFE"></path><path d="m676.6 124.1c-.7.9-1.8 1.6-2.9 1.6-1.8 0-3.3-1.5-3.3-3.3s.2-1.3.6-1.9c4.2-6 11.3-9.4 18.7-8.9 13 0 20.2 7.6 20.2 19v30.8c0 1.9-1.7 3.4-3.6 3.3-1.8 0-3.3-1.6-3.3-3.3v-4c-3.5 5.4-9.6 8.5-16 8-11.9 0-19.4-5.7-19.4-16s7.5-15.8 19.6-15.8h15.8v-3c0-7.6-5.1-12.3-13.2-12.3-5-.3-9.8 1.8-13 5.7zm26.3 20.5v-4.7h-15.8c-7.3 0-12.4 3-12.4 9.5s4 9.5 12.8 9.5c7.8.6 14.7-5.2 15.4-13.1 0-.4 0-.8 0-1.2z" fill="#FFFFFE"></path><path d="m730.8 120.8c2.9-5.9 9.1-9.4 15.6-8.9 1.9 0 3.5 1.6 3.5 3.5s-1.6 3.5-3.5 3.5c-10.3 0-15.6 7.1-15.6 17.5v25.1c0 2-1.6 3.6-3.6 3.6s-3.6-1.6-3.6-3.6v-45.4c0-2 1.6-3.6 3.6-3.6s3.6 1.6 3.6 3.6v4.9z" fill="#FFFFFE"></path><path d="m763.8 101.4c0-2 1.6-3.6 3.6-3.6s3.6 1.6 3.6 3.6v11.8h7.3c1.8 0 3.3 1.5 3.3 3.3s-1.5 3.3-3.3 3.3h-7.3v30.9c0 4.8 2.7 7.4 6.5 7.4 1.8 0 3.4 1.4 3.5 3.2 0 1.8-1.4 3.4-3.2 3.5h-.2c-7.1.4-13.3-5-13.7-12.1 0-.7 0-1.3 0-2v-30.9h-4.4c-1.8 0-3.3-1.5-3.3-3.3s1.5-3.3 3.3-3.3h4.4v-11.8z" fill="#FFFFFE"></path><path d="m835.4 131.4v29.9c0 2-1.6 3.6-3.6 3.6s-3.6-1.6-3.6-3.6v-28.4c0-8.9-2.6-14.9-13.5-14.9s-14.9 6.7-14.9 15.7v27.6c0 2-1.6 3.6-3.6 3.6s-3.6-1.6-3.6-3.6v-45.4c0-2 1.6-3.6 3.6-3.6s3.6 1.6 3.6 3.6v3.6c3.1-5.2 8.9-8.2 14.9-7.8 17.3 0 20.7 10.3 20.7 19.8z" fill="#FFFFFE"></path><path d="m869 111.6c18 0 21.4 14.2 21.4 21.8s0 7.1-4.5 7.1h-32.8c0 11.1 6.4 18.3 16.9 18.3 4.9 0 9.7-1.7 13.5-4.8.6-.4 1.3-.7 2-.7 1.8 0 3.3 1.5 3.3 3.3s-.4 2-1.2 2.6c-4.8 4.2-11.1 6.5-17.5 6.2-14.9 0-24.3-8.2-24.3-27s8.5-26.9 23.1-26.9zm0 6.5c-9.8 0-15.1 6.3-15.8 16.3h30.2c0-8-2.8-16.3-14.4-16.3z" fill="#FFFFFE"></path><path d="m909.1 120.8c2.9-5.9 9.1-9.4 15.6-8.9 1.9 0 3.5 1.6 3.5 3.5s-1.6 3.5-3.5 3.5c-10.3 0-15.6 7.1-15.6 17.5v25.1c0 2-1.6 3.6-3.6 3.6s-3.6-1.6-3.6-3.6v-45.4c0-2 1.6-3.6 3.6-3.6s3.6 1.6 3.6 3.6v4.9z" fill="#FFFFFE"></path><path d="m942.3 125.3c0 11.8 29.5 7.4 29.5 25.3s-8.4 14.8-19.1 14.8c-7.3.2-14.3-2.7-19.2-8-.5-.6-.8-1.3-.8-2.1 0-1.8 1.5-3.3 3.3-3.3s1.8.4 2.5 1.1c3.8 3.8 8.9 5.7 14.3 5.5 6.4 0 11.9-2.1 11.9-8 0-11.5-29.5-6.9-29.5-25.3s7.6-13.6 17.2-13.6c6.5-.4 12.8 2.2 17.1 7.1.5.6.8 1.3.8 2.1 0 1.8-1.5 3.3-3.3 3.3s-1.8-.4-2.4-1c-3.2-3.3-7.7-5-12.2-4.7-5 0-10 1.6-10 6.7z" fill="#FFFFFE"></path></g></svg>