<?xml version="1.0" encoding="UTF-8"?> <svg xmlns="http://www.w3.org/2000/svg" xmlns:xlink="http://www.w3.org/1999/xlink" width="257px" height="24px" viewBox="0 0 257 24" version="1.1"><title>LOGO WITH MARK</title><g id="Symbols" stroke="none" stroke-width="1" fill="none" fill-rule="evenodd"><g id="Group"><g id="Group-26" fill-rule="nonzero"><path d="M10.1961506,15.6997703 L7.20576012,15.6997703 L7.20576012,24 L0,24 L0,0.0779405941 L12.1777346,0.0779405941 C15.2041539,0.0779405941 17.5099971,0.742442244 19.0952643,2.07144554 C20.6805316,3.40044884 21.4731652,5.3456264 21.4731652,7.90697822 C21.4731652,11.3865505 19.9959843,13.7183472 17.0416227,14.9023683 L22.8422596,24 L14.8078371,24 L10.1961506,15.6997703 Z M7.20576012,10.6616396 L10.7726114,10.6616396 C11.9735714,10.6616396 12.826253,10.4622891 13.3306562,10.0635881 C13.8350594,9.66488713 14.087261,9.0064264 14.087261,8.08820594 C14.087261,7.16998548 13.8290546,6.50548383 13.3126418,6.09470099 C12.796229,5.68391815 11.9495522,5.47852673 10.7726114,5.47852673 L7.20576012,5.47852673 L7.20576012,10.6616396 Z" id="Combined-Shape" fill="#FF4063"></path><polygon id="Path" fill="#FBF115" points="29.554762 24 22.7761386 24 31.1459881 0 37.9246115 0"></polygon><polygon id="Path" fill="#FBF115" points="40.404344 24 33.6257206 24 41.9955701 0 48.7741935 0"></polygon></g><text id="RECIPROCAL-VENTURES" font-family="AvenirNext-Bold, Avenir Next" font-size="15" font-weight="bold" letter-spacing="1.2" fill="#201E8E"><tspan x="58.5" y="19">RECIPROCAL VENTURES</tspan></text></g></g></svg> 