<svg xmlns:xlink="http://www.w3.org/1999/xlink" xmlns="http://www.w3.org/2000/svg" width="264" height="37" viewBox="0 0 264 37" fill="none">
<path d="M140.158 20.5393C139.63 19.3993 138.638 18.5933 137.492 18.3662L134.603 17.6342C135.242 17.5931 135.884 17.5207 136.539 17.3973C137.194 17.2756 137.894 17.0799 138.184 16.9729C139.718 16.3462 140.819 15.3691 141.721 14.0416C142.667 12.6499 143.143 11.0296 143.143 9.17239C143.143 7.45501 142.771 5.95643 142.018 4.67004C141.296 3.35898 140.266 2.34238 138.95 1.60049C137.624 0.868466 136.106 0.493408 134.384 0.493408L119.728 0.496698L119.732 29.1393H124.373L124.371 17.6836H133.069C133.359 17.6819 133.643 17.6819 133.926 17.6655L138.784 28.6145C138.925 28.932 139.223 29.136 139.551 29.136H144.146L140.183 20.5376H140.159L140.158 20.5393ZM124.364 13.752V4.62563L133.96 4.62398C135.36 4.62398 136.484 5.04675 137.326 5.89392C138.175 6.71641 138.599 7.81527 138.601 9.20693C138.601 10.5986 138.177 11.6744 137.327 12.5216C136.478 13.3441 135.354 13.752 133.961 13.752H124.364Z" fill="white"/>
<path d="M210.058 29.5621C208.21 29.5621 206.474 29.1969 204.852 28.4566C203.25 27.6917 201.843 26.6422 200.621 25.3065C199.421 23.9395 198.491 22.3751 197.813 20.6018C197.14 18.8022 196.799 16.8644 196.799 14.7884C196.799 12.7124 197.133 10.7911 197.811 9.01611C198.48 7.21649 199.418 5.64552 200.618 4.30979C201.838 2.94115 203.253 1.89165 204.847 1.15798C206.47 0.401286 208.206 0.0180024 210.053 0.0163574C211.899 0.0163574 213.619 0.397996 215.222 1.16292C216.846 1.89494 218.252 2.94609 219.452 4.31308C220.674 5.64881 221.627 7.21978 222.298 9.01775C222.969 10.7927 223.31 12.7141 223.312 14.79C223.312 16.866 222.978 18.8038 222.301 20.6034C221.632 22.3784 220.679 23.9411 219.457 25.3098C218.258 26.6455 216.852 27.695 215.228 28.4616C213.635 29.1952 211.907 29.5703 210.061 29.5703V29.5621H210.058ZM210.058 25.142C211.28 25.142 212.419 24.8804 213.461 24.3672C214.511 23.8457 215.419 23.1285 216.193 22.2007C216.99 21.2483 217.6 20.1412 218.024 18.8861C218.471 17.6326 218.693 16.2639 218.693 14.79C218.693 13.3161 218.47 11.9574 218.022 10.6956C217.597 9.44216 216.987 8.35153 216.19 7.42376C215.416 6.47131 214.507 5.73106 213.456 5.21782C212.405 4.69636 211.275 4.44468 210.053 4.44468C208.831 4.44468 207.692 4.70623 206.65 5.21947C205.6 5.74093 204.677 6.47295 203.88 7.42705C203.084 8.35482 202.458 9.4471 202.011 10.7006C201.587 11.9541 201.371 13.3227 201.371 14.7966C201.371 16.2705 201.589 17.6293 202.012 18.891C202.459 20.1445 203.085 21.2516 203.882 22.204C204.678 23.1318 205.602 23.8556 206.651 24.3688C207.703 24.8903 208.833 25.142 210.056 25.142H210.058Z" fill="white"/>
<path d="M169.873 29.5704C168.027 29.5704 166.291 29.2052 164.668 28.4649C163.074 27.7 161.66 26.6505 160.438 25.3148C159.238 23.9478 158.308 22.3834 157.629 20.6101C156.958 18.8105 156.617 16.8727 156.615 14.7967C156.615 12.7207 156.949 10.7994 157.626 9.02441C158.295 7.22479 159.234 5.65382 160.433 4.31809C161.653 2.94945 163.068 1.89995 164.662 1.16628C166.285 0.409586 168.02 0.0263032 169.866 0.0246582C171.714 0.0246582 173.434 0.406296 175.035 1.17122C176.659 1.90324 178.065 2.95439 179.266 4.32138C180.487 5.65711 181.439 7.22808 182.111 9.02605C182.782 10.801 183.124 12.7224 183.125 14.7983C183.125 16.8743 182.792 18.8121 182.115 20.6117C181.444 22.3867 180.492 23.9494 179.27 25.3181C178.072 26.6538 176.664 27.7033 175.041 28.4699C173.439 29.2035 171.72 29.5786 169.873 29.5786V29.5704ZM169.873 25.1503C171.094 25.1503 172.234 24.8887 173.276 24.3755C174.325 23.854 175.234 23.1368 176.008 22.209C176.805 21.2566 177.415 20.1495 177.839 18.8944C178.284 17.6409 178.508 16.2722 178.508 14.7983C178.508 13.3244 178.284 11.9657 177.837 10.7039C177.412 9.45046 176.802 8.35983 176.005 7.43206C175.231 6.47961 174.322 5.73936 173.271 5.22612C172.22 4.70466 171.09 4.45298 169.866 4.45298C168.645 4.45298 167.506 4.71453 166.463 5.22777C165.414 5.74923 164.49 6.48125 163.693 7.43535C162.895 8.36312 162.271 9.4554 161.824 10.7089C161.4 11.9624 161.191 13.331 161.191 14.8049C161.191 16.2788 161.4 17.6376 161.826 18.8993C162.273 20.1528 162.898 21.2599 163.695 22.2123C164.491 23.1401 165.415 23.8639 166.465 24.3771C167.516 24.8986 168.646 25.1503 169.868 25.1503H169.873Z" fill="white"/>
<path d="M91.5919 29.587C89.7444 29.587 88.0101 29.2218 86.3862 28.4815C84.7917 27.7166 83.3773 26.6671 82.1554 25.3314C80.9568 23.9644 80.0253 22.4 79.3468 20.6267C78.6761 18.8271 78.333 16.8893 78.333 14.8133C78.333 12.7373 78.6668 10.816 79.3453 9.04101C80.0222 7.24139 80.9537 5.67042 82.1523 4.33469C83.3742 2.96606 84.7808 1.91655 86.3815 1.18288C88.0055 0.426188 89.7397 0.0429048 91.5873 0.0412598C93.4333 0.0412598 95.1551 0.422898 96.7558 1.18782C98.3797 1.91984 99.7864 2.97099 100.987 4.33798C102.208 5.67371 103.154 7.24468 103.832 9.04266C104.503 10.8176 104.846 12.739 104.846 14.8149C104.846 16.8909 104.511 18.8287 103.834 20.6283C103.165 22.4033 102.211 23.966 100.99 25.3347C99.791 26.6704 98.3828 27.7199 96.7604 28.4865C95.1675 29.2201 93.4395 29.5952 91.5919 29.5952V29.587ZM91.5904 25.1652C92.8122 25.1652 93.9503 24.9037 94.9936 24.3904C96.0431 23.869 96.9514 23.1518 97.7261 22.224C98.5226 21.2715 99.1327 20.1644 99.5581 18.9093C100.005 17.6558 100.227 16.2872 100.227 14.8133C100.227 13.3394 100.004 11.9806 99.5566 10.7189C99.1312 9.46542 98.521 8.37479 97.7246 7.44701C96.9498 6.49456 96.0416 5.75432 94.9905 5.24108C93.941 4.71962 92.8091 4.46793 91.5873 4.46793C90.3654 4.46793 89.2258 4.72949 88.184 5.24272C87.1345 5.76419 86.2107 6.49621 85.4143 7.4503C84.6178 8.37808 83.9921 9.47035 83.545 10.7238C83.1211 11.9773 82.9131 13.346 82.9131 14.8199C82.9131 16.2938 83.1289 17.6525 83.5465 18.9143C83.9937 20.1677 84.6193 21.2748 85.4158 22.2273C86.2123 23.155 87.1361 23.8788 88.1871 24.3921C89.2367 24.9135 90.3685 25.1652 91.5904 25.1652Z" fill="white"/>
<path d="M11.8492 29.7579C9.63057 29.7579 7.50045 29.2776 5.54111 28.4568C3.61282 27.6096 1.74974 26.389 0 24.8016L2.53845 21.4869C4.34874 22.9921 6.02396 23.8886 7.4694 24.5236C8.93657 25.1339 10.5 25.4349 12.1613 25.4349C13.4126 25.4349 14.5149 25.2474 15.4682 24.8805C16.451 24.4808 17.1962 23.9528 17.7101 23.2931C18.2535 22.6335 18.5283 21.8603 18.5283 20.9885C18.5283 19.8485 18.134 19.0013 17.3437 18.3993C16.5845 17.7725 15.2509 17.2922 13.3443 16.9583L8.07179 16.0552C5.61408 15.616 3.73703 14.777 2.53845 13.5482C1.36936 12.2865 0.780941 10.6826 0.779388 8.73659C0.779388 7.011 1.20324 5.49596 2.0587 4.20958C2.91417 2.89029 4.09877 1.88027 5.61718 1.16305C7.16665 0.42445 8.99091 0.0576172 11.0915 0.0576172C13.1922 0.0576172 15.2322 0.439255 17.1093 1.12357C18.9863 1.80789 20.7143 2.76692 22.2855 4.0204L19.8884 7.46502C18.4724 6.36616 17.0208 5.54367 15.5319 4.99917C14.043 4.42178 12.5603 4.1372 11.0186 4.1372C9.924 4.1372 8.9552 4.3165 8.12147 4.67511C7.30948 5.03372 6.66982 5.52228 6.20095 6.15725C5.75381 6.78399 5.538 7.48476 5.538 8.2579C5.538 9.30083 5.86559 10.1052 6.51457 10.6843C7.19304 11.2304 8.37609 11.6449 9.88829 11.9213L14.841 12.7833C17.7086 13.3031 19.8154 14.2078 21.1646 15.5008C22.5417 16.7872 23.2357 18.5292 23.2357 20.7269C23.2357 22.4854 22.7529 24.0482 21.7763 25.4168C20.8308 26.7854 19.5049 27.8596 17.8079 28.6262C16.1032 29.3911 14.1221 29.7744 11.8507 29.776V29.7596L11.8492 29.7579Z" fill="white"/>
<path d="M262.48 9.00304C261.809 7.20342 260.856 5.63245 259.634 4.29836C258.435 2.93138 257.027 1.88023 255.403 1.1482C253.81 0.381638 252.084 0 250.236 0C248.39 0 246.654 0.383283 245.03 1.14985C243.438 1.88352 242.023 2.93302 240.801 4.30165C239.603 5.63739 238.673 7.20835 237.994 9.00798C237.325 10.7829 236.982 12.7043 236.982 14.7803C236.982 16.8562 237.319 18.794 237.996 20.5937C238.427 21.7369 238.972 22.793 239.624 23.7652C239.991 24.2702 240.399 24.7522 240.84 25.1963C242.318 26.6801 244.24 27.5668 246.269 27.7379L248.249 27.9056C248.249 27.9056 244.026 27.9895 243.214 28.1113C242.672 28.1935 242.107 28.4222 241.579 28.7989C240.832 29.3302 239.168 31.0213 238.621 31.7763L241.433 33.5776L242.203 34.0711C242.472 34.2438 242.82 34.1615 242.998 33.8885C243.169 33.6286 243.36 33.3621 243.431 33.2634C243.773 32.8192 244.139 32.4442 244.517 32.125C244.97 31.7664 245.481 31.4193 245.987 31.166C246.016 31.1512 246.044 31.1381 246.074 31.1232C246.095 31.1134 246.116 31.1035 246.137 31.0936C246.873 30.7515 247.577 30.5722 248.14 30.4768C248.555 30.411 248.98 30.3781 249.416 30.3781C250.638 30.3781 251.778 30.638 252.82 31.1512C253.869 31.6727 254.785 32.3965 255.554 33.3571C256.164 34.1221 256.568 34.961 256.872 35.596L257.111 36.2375C257.244 36.5978 257.574 36.833 257.938 36.833H258.771H262.166C262.017 36.2063 261.831 35.596 261.607 35.0087C260.936 33.2091 259.983 31.6381 258.761 30.304C258.285 29.7579 257.771 29.2776 257.22 28.8384C256.833 28.5538 256.282 28.2281 255.664 28.0899C255.664 28.0899 256.178 28.0323 257.145 27.4302C258.053 26.8282 258.881 26.1192 259.617 25.2885C260.837 23.9198 261.79 22.3571 262.461 20.5821L262.475 20.5904C263.144 18.7907 263.487 16.8529 263.487 14.777C263.487 12.701 263.15 10.7796 262.474 9.00469L262.48 9.00304ZM258.215 18.8631V18.8713C257.791 20.1248 257.181 21.2319 256.384 22.186C255.61 23.1138 254.701 23.8392 253.65 24.3525C252.601 24.8657 251.469 25.1273 250.247 25.1273C249.176 25.1273 248.162 24.9233 247.223 24.5252C247.095 24.4676 246.97 24.4117 246.844 24.3459C245.794 23.8244 244.871 23.1088 244.073 22.1811C243.276 21.2286 242.65 20.1215 242.203 18.8681C241.778 17.6146 241.57 16.2459 241.568 14.7737C241.568 13.2998 241.776 11.941 242.202 10.6776C242.647 9.42416 243.273 8.33188 244.069 7.40411C244.867 6.45166 245.79 5.70977 246.839 5.19653C247.889 4.67507 249.021 4.41516 250.242 4.41351C251.464 4.41351 252.604 4.67342 253.646 5.19488C254.689 5.71635 255.605 6.44837 256.38 7.40082C257.176 8.32859 257.788 9.41922 258.212 10.6727C258.659 11.9262 258.882 13.2948 258.882 14.7671C258.882 16.241 258.659 17.5998 258.213 18.8631H258.215Z" fill="white"/>
<path d="M242.645 31.9079L243.551 32.5198C243.719 32.6317 243.935 32.6202 244.088 32.4886L244.486 32.1514L242.645 31.9062V31.9079Z" fill="white"/>
<path d="M62.5731 0.493588H57.9418L57.9433 12.5366L43.1085 12.5399V0.493588H38.4741L38.4788 29.1444H43.1101L43.1085 16.9106H51.4505C55.703 16.9073 57.9418 13.8443 57.9418 13.8427L57.9449 29.1444H62.5762L62.5715 0.491943L62.5731 0.493588Z" fill="white"/>
</svg>