<svg xmlns="http://www.w3.org/2000/svg" viewBox="0 0 336 360" width="336" height="360">
  <defs>
    <radialGradient id="fmCenterGlow" cx="50%" cy="50%" r="50%">
      <stop offset="0%" stop-color="#22D3EE" stop-opacity="0.22"></stop>
      <stop offset="70%" stop-color="#22D3EE" stop-opacity="0.06"></stop>
      <stop offset="100%" stop-color="#22D3EE" stop-opacity="0"></stop>
    </radialGradient>

    <filter id="fmCyanGlow" x="-50%" y="-50%" width="200%" height="200%">
      <feDropShadow dx="0" dy="0" stdDeviation="4" flood-color="#22D3EE" flood-opacity="0.75"></feDropShadow>
    </filter>

    <filter id="fmPingGlow" x="-50%" y="-50%" width="200%" height="200%">
      <feDropShadow dx="0" dy="0" stdDeviation="5" flood-color="#5B4FD9" flood-opacity="0.75"></feDropShadow>
    </filter>

    <filter id="fmEntryBlur" x="-15%" y="-15%" width="130%" height="130%">
      <feGaussianBlur stdDeviation="0">
        <animate attributeName="stdDeviation" values="3;0;0;3;3" keyTimes="0;0.043;0.929;0.99;1" dur="7s" repeatCount="indefinite"></animate>
      </feGaussianBlur>
    </filter>
  </defs>

  <g>
    <circle cx="80" cy="25" r="3" fill="#5B4FD9" fill-opacity="0.55">
      <animate attributeName="r" values="3;11;11" keyTimes="0;0.65;1" dur="1.6s" repeatCount="indefinite"></animate>
      <animate attributeName="fill-opacity" values="0.55;0;0" keyTimes="0;0.65;1" dur="1.6s" repeatCount="indefinite"></animate>
    </circle>
    <circle cx="80" cy="25" r="3" fill="#5B4FD9"></circle>
    <text x="92" y="28" font-family="Inter, system-ui, sans-serif" font-size="9" font-weight="700" fill="#0E1A33" letter-spacing="0.20em">FRAUD MONITORING · LIVE</text>
  </g>

  <g>
    <animateTransform attributeName="transform" type="translate" values="0 -12;0 0;0 0;0 0;0 -12" keyTimes="0;0.043;0.929;0.99;1" dur="7s" calcMode="spline" keySplines="0.16 1 0.3 1;0 0 1 1;0.4 0 1 1;0 0 1 1" repeatCount="indefinite"></animateTransform>
    <g transform="translate(168 180)">
      <g opacity="0" filter="url(#fmEntryBlur)">
        <animateTransform attributeName="transform" type="scale" values="0.85;1;1;0.97;0.85" keyTimes="0;0.043;0.929;0.99;1" dur="7s" calcMode="spline" keySplines="0.16 1 0.3 1;0 0 1 1;0.4 0 1 1;0 0 1 1" repeatCount="indefinite"></animateTransform>
        <animate attributeName="opacity" values="0;1;1;0;0" keyTimes="0;0.043;0.929;0.99;1" dur="7s" repeatCount="indefinite"></animate>
        <g transform="translate(-168 -180)">

          <circle cx="168" cy="180" r="120" fill="url(#fmCenterGlow)"></circle>

          <g fill="none" stroke="#22D3EE" stroke-linecap="round">
            <circle cx="168" cy="180" r="40" stroke-opacity="0.30" stroke-width="0.8"></circle>
            <circle cx="168" cy="180" r="72" stroke-opacity="0.38" stroke-width="0.8"></circle>
            <circle cx="168" cy="180" r="104" stroke-opacity="0.50" stroke-width="1"></circle>
          </g>

          <g stroke="#22D3EE" stroke-opacity="0.18" stroke-width="0.6">
            <line x1="60" y1="180" x2="276" y2="180"></line>
            <line x1="168" y1="72" x2="168" y2="288"></line>
            <line x1="92" y1="104" x2="244" y2="256"></line>
            <line x1="244" y1="104" x2="92" y2="256"></line>
          </g>

          <g>
            <animateTransform attributeName="transform" type="rotate" from="0 168 180" to="360 168 180" dur="6s" repeatCount="indefinite"></animateTransform>

            <path d="M 168 180 L 168 76 A 104 104 0 0 0 78 128 Z" fill="#22D3EE" fill-opacity="0.16"></path>
            <path d="M 168 180 L 168 76 A 104 104 0 0 0 101 100 Z" fill="#22D3EE" fill-opacity="0.28"></path>
            <path d="M 168 180 L 168 76 A 104 104 0 0 0 132 82 Z" fill="#22D3EE" fill-opacity="0.45"></path>

            <line x1="168" y1="180" x2="168" y2="72" stroke="#22D3EE" stroke-width="4" stroke-linecap="round" filter="url(#fmCyanGlow)"></line>

            <circle cx="168" cy="72" r="4" fill="#FFFFFF" filter="url(#fmCyanGlow)"></circle>
          </g>

          <circle cx="168" cy="180" r="6" fill="#22D3EE" filter="url(#fmCyanGlow)"></circle>
          <circle cx="168" cy="180" r="2.5" fill="#FFFFFF"></circle>

          <g>
            <circle cx="218" cy="138" r="8" fill="#5B4FD9" fill-opacity="0.4" filter="url(#fmPingGlow)">
              <animate attributeName="r" values="8;20;20" dur="1.4s" repeatCount="indefinite"></animate>
              <animate attributeName="fill-opacity" values="0.55;0;0" dur="1.4s" repeatCount="indefinite"></animate>
            </circle>
            <circle cx="218" cy="138" r="6" fill="#5B4FD9" filter="url(#fmPingGlow)"></circle>
            <circle cx="218" cy="138" r="2.5" fill="#FFFFFF"></circle>
          </g>

        </g>
      </g>
    </g>
  </g>

  <g stroke="#22D3EE" stroke-width="2.2" fill="none" stroke-linecap="round" filter="url(#fmCyanGlow)">
    <path d="M 44 76 L 44 60 L 60 60"></path>
    <path d="M 276 60 L 292 60 L 292 76"></path>
    <path d="M 44 284 L 44 300 L 60 300"></path>
    <path d="M 276 300 L 292 300 L 292 284"></path>
    <animate attributeName="opacity" values="0.25;1;0.25" keyTimes="0;0.5;1" dur="1.6s" repeatCount="indefinite"></animate>
  </g>

  <text x="168" y="328" text-anchor="middle" font-family="Inter, system-ui, sans-serif" font-size="9" fill="#4A5578" letter-spacing="0.06em">234 cleared
    <tspan fill="#7A88AC"> · </tspan>
    <tspan fill="#A78CFF">1 flagged</tspan>
    <tspan fill="#7A88AC"> · 09:24</tspan>
  </text>
</svg>
