<svg xmlns="http://www.w3.org/2000/svg" viewBox="0 0 1280 800" width="1280" height="800" role="img" aria-label="Program Management dashboard with KPIs, authorization volume chart, and card controls" font-family="Geist, system-ui, sans-serif">
  <defs>
    <linearGradient id="gBrand" x1="0" y1="0" x2="1" y2="1">
      <stop offset="0" stop-color="#304DBB"></stop><stop offset="1" stop-color="#5B4FD9"></stop>
    </linearGradient>
    <linearGradient id="gCyan" x1="0" y1="0" x2="1" y2="1">
      <stop offset="0" stop-color="#22D3EE"></stop><stop offset="1" stop-color="#5B8DEF"></stop>
    </linearGradient>
    <linearGradient id="gViolet" x1="0" y1="0" x2="1" y2="1">
      <stop offset="0" stop-color="#6D28D9"></stop><stop offset="1" stop-color="#A78BFA"></stop>
    </linearGradient>
    <linearGradient id="gTeal" x1="0" y1="0" x2="1" y2="1">
      <stop offset="0" stop-color="#10B981"></stop><stop offset="1" stop-color="#22D3EE"></stop>
    </linearGradient>
    <linearGradient id="cpArea" x1="0" y1="0" x2="0" y2="1">
      <stop offset="0" stop-color="#22D3EE" stop-opacity="0.28"></stop>
      <stop offset="1" stop-color="#22D3EE" stop-opacity="0"></stop>
    </linearGradient>
    <clipPath id="cpFrame"><rect x="0" y="0" width="1280" height="800" rx="16"></rect></clipPath>
  </defs>

  <g clip-path="url(#cpFrame)">
    <rect x="0" y="0" width="1280" height="800" fill="#F4F6FF"></rect>

    
    <rect x="0" y="0" width="72" height="800" fill="#FFFFFF"></rect>
    <line x1="72" y1="0" x2="72" y2="800" stroke="#E8EBF5"></line>
    
    <rect x="20" y="20" width="32" height="32" rx="9" fill="url(#gBrand)"></rect>
    <path d="M36 27 L45 35 H42.5 V44 H38 V38.5 H34 V44 H29.5 V35 H27 Z" fill="#FFFFFF"></path>
    
    <rect x="16" y="84" width="40" height="40" rx="10" fill="#EEF1FB"></rect>
    <g transform="translate(28 95)"><path d="M0 4 a2 2 0 0 1 2-2 h12 a2 2 0 0 1 2 2 v1 H0 Z M0 7 H16 v5 a2 2 0 0 1 -2 2 H2 a2 2 0 0 1 -2 -2 Z" fill="url(#gBrand)"></path></g>
    <g transform="translate(28 148)"><path d="M8 0 1 3 v5 c0 4 3 6 7 8 4-2 7-4 7-8 V3 Z" fill="url(#gViolet)"></path></g>
    <g transform="translate(28 200)"><path d="M9 0 1 11 h6 l-1 9 9-12 h-6 z" fill="url(#gCyan)"></path></g>
    <g transform="translate(28 252)"><path d="M8 0 a8 8 0 1 0 0.01 0 Z M8 3.5 v5 l3.2 1.9" fill="none" stroke="url(#gTeal)" stroke-width="2.4" stroke-linecap="round"></path></g>

    
    <rect x="72" y="0" width="1208" height="64" fill="#FFFFFF"></rect>
    <line x1="72" y1="64" x2="1280" y2="64" stroke="#E8EBF5"></line>
    <text x="100" y="27" font-family="&#39;Geist Mono&#39;, ui-monospace, monospace" font-size="10" letter-spacing="1.4" fill="#7A839E">ISSUING / PROGRAMS</text>
    <text x="100" y="46" font-family="Geist, system-ui, sans-serif" font-weight="600" font-size="18" fill="#0E1A33">Program Management</text>
    <circle cx="1102" cy="32" r="17" fill="#F4F6FF"></circle>
    <path d="M1094 26 a6 6 0 0 1 12 0 c0 7 3 7 3 7 H1091 s3 0 3 -7 M1098 35 a2 2 0 0 0 4 0" transform="translate(0 -2)" stroke="#7A839E" stroke-width="1.7" fill="none" stroke-linecap="round" stroke-linejoin="round"></path>
    <rect x="1100" y="15" width="152" height="34" rx="17" fill="#304DBB"></rect>
    <path d="M1124 32 h12 M1130 26 v12" stroke="#FFFFFF" stroke-width="1.8" stroke-linecap="round"></path>
    <text x="1146" y="36" font-family="Geist, system-ui, sans-serif" font-weight="600" font-size="13" fill="#FFFFFF">New program</text>

    
    <g transform="translate(100 92)">
      <rect x="0" y="0" width="273" height="110" rx="12" fill="#FFFFFF" stroke="#E8EBF5"></rect>
      <rect x="219" y="20" width="36" height="36" rx="10" fill="#22D3EE" fill-opacity="0.12"></rect>
      <g transform="translate(228 30)"><path d="M0 4 a2 2 0 0 1 2-2 h14 a2 2 0 0 1 2 2 v1 H0 Z M0 7 H18 v6 a2 2 0 0 1 -2 2 H2 a2 2 0 0 1 -2 -2 Z" fill="url(#gCyan)"></path></g>
      <text x="18" y="32" font-family="&#39;Geist Mono&#39;, ui-monospace, monospace" font-size="10" letter-spacing="1.2" fill="#7A839E">ACTIVE CARDS</text>
      <text x="18" y="74" font-family="Geist, system-ui, sans-serif" font-weight="600" font-size="30" letter-spacing="-0.5" fill="#0E1A33">1.84M</text>
      <text x="18" y="96" font-family="&#39;Geist Mono&#39;, ui-monospace, monospace" font-size="11" fill="#10B981">+3.2%<tspan fill="#7A839E"> · 30d</tspan></text>
    </g>
    <g transform="translate(393 92)">
      <rect x="0" y="0" width="273" height="110" rx="12" fill="#FFFFFF" stroke="#E8EBF5"></rect>
      <rect x="219" y="20" width="36" height="36" rx="10" fill="#6D28D9" fill-opacity="0.12"></rect>
      <g transform="translate(230 29)"><path d="M9 0 1 11 h6 l-1 9 9-12 h-6 z" fill="url(#gViolet)"></path></g>
      <text x="18" y="32" font-family="&#39;Geist Mono&#39;, ui-monospace, monospace" font-size="10" letter-spacing="1.2" fill="#7A839E">AUTH VOLUME · 24H</text>
      <text x="18" y="74" font-family="Geist, system-ui, sans-serif" font-weight="600" font-size="30" letter-spacing="-0.5" fill="#0E1A33">$48.9M</text>
      <text x="18" y="96" font-family="&#39;Geist Mono&#39;, ui-monospace, monospace" font-size="11" fill="#10B981">+6.1%<tspan fill="#7A839E"> · 118,402 auths</tspan></text>
    </g>
    <g transform="translate(686 92)">
      <rect x="0" y="0" width="273" height="110" rx="12" fill="#FFFFFF" stroke="#E8EBF5"></rect>
      <rect x="219" y="20" width="36" height="36" rx="10" fill="#10B981" fill-opacity="0.12"></rect>
      <g transform="translate(228 29)"><path d="M9 0 a9 9 0 1 0 0.01 0 Z" fill="url(#gTeal)"></path><path d="M5 9 l2.6 2.6 L13 6" fill="none" stroke="#FFFFFF" stroke-width="2" stroke-linecap="round" stroke-linejoin="round"></path></g>
      <text x="18" y="32" font-family="&#39;Geist Mono&#39;, ui-monospace, monospace" font-size="10" letter-spacing="1.2" fill="#7A839E">APPROVAL RATE</text>
      <text x="18" y="74" font-family="Geist, system-ui, sans-serif" font-weight="600" font-size="30" letter-spacing="-0.5" fill="#0E1A33">94.6%</text>
      <text x="18" y="96" font-family="&#39;Geist Mono&#39;, ui-monospace, monospace" font-size="11" fill="#10B981">+0.4%<tspan fill="#7A839E"> · decline 5.4%</tspan></text>
    </g>
    <g transform="translate(979 92)">
      <rect x="0" y="0" width="273" height="110" rx="12" fill="#FFFFFF" stroke="#E8EBF5"></rect>
      <rect x="219" y="20" width="36" height="36" rx="10" fill="#304DBB" fill-opacity="0.12"></rect>
      <g transform="translate(229 30)"><path d="M0 0 h7 v7 h-7z M11 0 h7 v7 h-7z M0 11 h7 v7 h-7z M11 11 h7 v7 h-7z" fill="url(#gBrand)"></path></g>
      <text x="18" y="32" font-family="&#39;Geist Mono&#39;, ui-monospace, monospace" font-size="10" letter-spacing="1.2" fill="#7A839E">ACTIVE PROGRAMS</text>
      <text x="18" y="74" font-family="Geist, system-ui, sans-serif" font-weight="600" font-size="30" letter-spacing="-0.5" fill="#0E1A33">37</text>
      <text x="18" y="96" font-family="&#39;Geist Mono&#39;, ui-monospace, monospace" font-size="11" fill="#10B981">+2<tspan fill="#7A839E"> · across 14 clients</tspan></text>
    </g>

    
    <g transform="translate(100 222)">
      <rect x="0" y="0" width="1152" height="280" rx="12" fill="#FFFFFF" stroke="#E8EBF5"></rect>
      <text x="24" y="34" font-family="Geist, system-ui, sans-serif" font-weight="600" font-size="14" fill="#0E1A33">Authorization volume</text>
      <text x="24" y="52" font-family="&#39;Geist Mono&#39;, ui-monospace, monospace" font-size="11" fill="#7A839E">USD cleared · trailing 24h</text>
      <g transform="translate(1008 22)">
        <rect x="0" y="0" width="120" height="28" rx="8" fill="#F4F6FF" stroke="#E8EBF5"></rect>
        <rect x="3" y="3" width="38" height="22" rx="6" fill="#FFFFFF" stroke="#E8EBF5"></rect>
        <text x="22" y="18" text-anchor="middle" font-family="Geist, system-ui, sans-serif" font-weight="500" font-size="11" fill="#0E1A33">24H</text>
        <text x="62" y="18" text-anchor="middle" font-family="Geist, system-ui, sans-serif" font-size="11" fill="#7A839E">7D</text>
        <text x="100" y="18" text-anchor="middle" font-family="Geist, system-ui, sans-serif" font-size="11" fill="#7A839E">30D</text>
      </g>
      <g font-family="&#39;Geist Mono&#39;, ui-monospace, monospace" font-size="9" fill="#B6BECF">
        <line x1="24" y1="92" x2="1128" y2="92" stroke="#F0F2FA"></line><text x="1128" y="88" text-anchor="end">$3.0M</text>
        <line x1="24" y1="128" x2="1128" y2="128" stroke="#F0F2FA"></line><text x="1128" y="124" text-anchor="end">$2.4M</text>
        <line x1="24" y1="164" x2="1128" y2="164" stroke="#F0F2FA"></line><text x="1128" y="160" text-anchor="end">$1.8M</text>
        <line x1="24" y1="200" x2="1128" y2="200" stroke="#F0F2FA"></line><text x="1128" y="196" text-anchor="end">$1.2M</text>
        <line x1="24" y1="236" x2="1128" y2="236" stroke="#F0F2FA"></line><text x="1128" y="232" text-anchor="end">$0.6M</text>
      </g>
      <path d="M40 208 L111 196 L183 202 L254 184 L326 176 L397 188 L469 168 L540 158 L612 164 L683 142 L755 150 L826 128 L898 120 L969 108 L1041 112 L1112 96 L1112 248 L40 248 Z" fill="url(#cpArea)"></path>
      <path d="M40 208 L111 196 L183 202 L254 184 L326 176 L397 188 L469 168 L540 158 L612 164 L683 142 L755 150 L826 128 L898 120 L969 108 L1041 112 L1112 96" fill="none" stroke="#22D3EE" stroke-width="2.5" stroke-linecap="round" stroke-linejoin="round"></path>
      <circle cx="1112" cy="96" r="4" fill="#22D3EE" stroke="#FFFFFF" stroke-width="2"></circle>
      <g font-family="&#39;Geist Mono&#39;, ui-monospace, monospace" font-size="9" fill="#B6BECF">
        <text x="40" y="266">00:00</text>
        <text x="254" y="266">04:00</text>
        <text x="469" y="266">08:00</text>
        <text x="683" y="266">12:00</text>
        <text x="898" y="266">16:00</text>
        <text x="1112" y="266" text-anchor="end">20:00</text>
      </g>
    </g>

    
    <g transform="translate(100 522)">
      <rect x="0" y="0" width="1152" height="216" rx="12" fill="#FFFFFF" stroke="#E8EBF5"></rect>
      <text x="24" y="38" font-family="Geist, system-ui, sans-serif" font-weight="600" font-size="14" fill="#0E1A33">Card controls</text>
      <line x1="24" y1="54" x2="1128" y2="54" stroke="#E8EBF5"></line>

      
      <g transform="translate(24 74)">
        <rect x="0" y="0" width="261" height="120" rx="12" fill="#FBFCFE" stroke="#EEF1F8"></rect>
        <rect x="20" y="22" width="40" height="40" rx="11" fill="#22D3EE" fill-opacity="0.12"></rect>
        <g transform="translate(31 33)" stroke="url(#gCyan)" stroke-width="2.2" fill="none" stroke-linecap="round"><path d="M9 0 V18 M0 9 H18 M3 3 L15 15 M15 3 L3 15"></path></g>
        <text x="72" y="47" font-family="Geist, system-ui, sans-serif" font-size="14" fill="#0E1A33">Freeze / unfreeze</text>
        <text x="20" y="100" font-family="Geist, system-ui, sans-serif" font-weight="700" font-size="26" letter-spacing="-0.5" fill="#0E1A33">96,204</text>
        <text x="128" y="100" font-family="Geist, system-ui, sans-serif" font-size="12" fill="#7A839E">cards frozen</text>
      </g>

      
      <g transform="translate(305 74)">
        <rect x="0" y="0" width="261" height="120" rx="12" fill="#FBFCFE" stroke="#EEF1F8"></rect>
        <rect x="20" y="22" width="40" height="40" rx="11" fill="#6D28D9" fill-opacity="0.12"></rect>
        <g transform="translate(31 31)"><path d="M11 0 1 13 h7 l-1 11 11-14 h-7 z" fill="url(#gViolet)"></path></g>
        <text x="72" y="47" font-family="Geist, system-ui, sans-serif" font-size="14" fill="#0E1A33">Per-transaction limits</text>
        <text x="20" y="100" font-family="Geist, system-ui, sans-serif" font-weight="700" font-size="26" letter-spacing="-0.5" fill="#0E1A33">$5,000</text>
        <text x="120" y="100" font-family="Geist, system-ui, sans-serif" font-size="12" fill="#7A839E">median ceiling</text>
      </g>

      
      <g transform="translate(586 74)">
        <rect x="0" y="0" width="261" height="120" rx="12" fill="#FBFCFE" stroke="#EEF1F8"></rect>
        <rect x="20" y="22" width="40" height="40" rx="11" fill="#304DBB" fill-opacity="0.12"></rect>
        <g transform="translate(30 32)"><path d="M0 0 h20 l-7.5 9 v8 l-5 2.5 v-10.5 z" fill="url(#gBrand)"></path></g>
        <text x="72" y="47" font-family="Geist, system-ui, sans-serif" font-size="14" fill="#0E1A33">MCC blocks</text>
        <text x="20" y="100" font-family="Geist, system-ui, sans-serif" font-weight="700" font-size="26" letter-spacing="-0.5" fill="#0E1A33">48</text>
        <text x="58" y="100" font-family="Geist, system-ui, sans-serif" font-size="12" fill="#7A839E">categories blocked</text>
      </g>

      
      <g transform="translate(867 74)">
        <rect x="0" y="0" width="261" height="120" rx="12" fill="#FBFCFE" stroke="#EEF1F8"></rect>
        <rect x="20" y="22" width="40" height="40" rx="11" fill="#10B981" fill-opacity="0.12"></rect>
        <g transform="translate(31 31)"><path d="M9 0 1 3 v6 c0 5 3.5 7.5 8 9.5 4.5-2 8-4.5 8-9.5 V3 Z" fill="url(#gTeal)"></path><path d="M5.5 9 l2.6 2.6 L13.5 6.5" fill="none" stroke="#FFFFFF" stroke-width="1.9" stroke-linecap="round" stroke-linejoin="round"></path></g>
        <text x="72" y="47" font-family="Geist, system-ui, sans-serif" font-size="14" fill="#0E1A33">KYC / AML in auth</text>
        <text x="20" y="100" font-family="Geist, system-ui, sans-serif" font-weight="700" font-size="26" letter-spacing="-0.5" fill="#0E1A33">100%</text>
        <text x="95" y="100" font-family="Geist, system-ui, sans-serif" font-size="12" fill="#7A839E">auths screened</text>
      </g>
    </g>
  </g>
</svg>