<svg xmlns="http://www.w3.org/2000/svg" viewBox="0 0 600 400" width="600" height="400" role="img" aria-label="Financial Crime product — decision waterfall across 3DS, AML, Sanctions, Identity, Chargeback" font-family="Geist, system-ui, sans-serif">
  <defs>
    <linearGradient id="fcBed" x1="0" y1="0" x2="0" y2="1">
      <stop offset="0" stop-color="#FFFFFF"></stop>
      <stop offset="1" stop-color="#F4F6FF"></stop>
    </linearGradient>
    <linearGradient id="fcVerdict" x1="0" y1="0" x2="1" y2="0">
      <stop offset="0" stop-color="#22D3EE" stop-opacity="0.18"></stop>
      <stop offset="1" stop-color="#6D28D9" stop-opacity="0.14"></stop>
    </linearGradient>
    <clipPath id="fcFrame"><rect x="0" y="0" width="600" height="400" rx="12"></rect></clipPath>
  </defs>

  <g clip-path="url(#fcFrame)">
    <rect x="0" y="0" width="600" height="400" fill="url(#fcBed)"></rect>
    <rect x="0" y="0" width="600" height="1" fill="#22D3EE" fill-opacity="0.6"></rect>

    
    <rect x="0" y="0" width="600" height="40" fill="#FFFFFF"></rect>
    <line x1="0" y1="40" x2="600" y2="40" stroke="#E8EBF5"></line>
    <circle cx="16" cy="20" r="2.5" fill="#22D3EE" fill-opacity="0.85"></circle>
    <circle cx="26" cy="20" r="2.5" fill="#0E1A33" fill-opacity="0.15"></circle>
    <circle cx="36" cy="20" r="2.5" fill="#0E1A33" fill-opacity="0.15"></circle>
    <text x="50" y="24" font-family="&#39;Geist Mono&#39;, ui-monospace, monospace" font-size="10" letter-spacing="1.4" fill="#7A839E">NCORE · FINANCIAL CRIME</text>

    
    <g transform="translate(32 56)">
      <rect x="0" y="0" width="536" height="56" rx="10" fill="#FFFFFF" stroke="#E8EBF5"></rect>

      
      <g transform="translate(20 0)">
        <rect x="0" y="14" width="28" height="28" rx="6" fill="#0E1A33"></rect>
        <text x="14" y="33" font-family="Geist, system-ui, sans-serif" font-weight="700" font-size="14" fill="#FFFFFF" text-anchor="middle">N</text>
      </g>
      <text x="60" y="26" font-family="Geist, system-ui, sans-serif" font-weight="500" font-size="14" fill="#0E1A33">Netflix</text>
      <text x="60" y="42" font-family="&#39;Geist Mono&#39;, ui-monospace, monospace" font-size="10" letter-spacing="1.4" fill="#7A839E">CARD-NOT-PRESENT · 12:42:08 GST</text>

      
      <text x="516" y="26" font-family="&#39;Geist Mono&#39;, ui-monospace, monospace" font-weight="600" font-size="16" fill="#0E1A33" text-anchor="end">$14.99</text>
      <text x="516" y="42" font-family="&#39;Geist Mono&#39;, ui-monospace, monospace" font-size="10" letter-spacing="1.4" fill="#7A839E" text-anchor="end">USD · 4929 ···· 8821</text>
    </g>

    
    <g transform="translate(48 132)">
      
      <line x1="14" y1="0" x2="14" y2="184" stroke="#22D3EE" stroke-opacity="0.4" stroke-dasharray="2 3"></line>

      
      <g transform="translate(0 0)">
        <circle cx="14" cy="14" r="8" fill="#22D3EE" fill-opacity="0.18" stroke="#22D3EE" stroke-opacity="0.6"></circle>
        <path d="M10.5 14 L13 16.5 L17.5 11.5" stroke="#22D3EE" stroke-width="1.8" fill="none"></path>
        <text x="36" y="12" font-family="Geist, system-ui, sans-serif" font-weight="500" font-size="12" fill="#0E1A33">3D Secure</text>
        <text x="36" y="26" font-family="&#39;Geist Mono&#39;, ui-monospace, monospace" font-size="10" fill="#7A839E">Challenge passed · OTP verified</text>
        <g transform="translate(420 2)">
          <rect x="0" y="0" width="100" height="22" rx="6" fill="#22D3EE" fill-opacity="0.14" stroke="#22D3EE" stroke-opacity="0.45"></rect>
          <text x="50" y="15" font-family="&#39;Geist Mono&#39;, ui-monospace, monospace" font-size="9" letter-spacing="1.2" fill="#0E7C92" text-anchor="middle">AUTHENTICATED</text>
        </g>
      </g>

      
      <g transform="translate(0 40)">
        <circle cx="14" cy="14" r="8" fill="#22D3EE" fill-opacity="0.18" stroke="#22D3EE" stroke-opacity="0.6"></circle>
        <path d="M10.5 14 L13 16.5 L17.5 11.5" stroke="#22D3EE" stroke-width="1.8" fill="none"></path>
        <text x="36" y="12" font-family="Geist, system-ui, sans-serif" font-weight="500" font-size="12" fill="#0E1A33">AML</text>
        <text x="36" y="26" font-family="&#39;Geist Mono&#39;, ui-monospace, monospace" font-size="10" fill="#7A839E">No watchlist hit · pattern stable</text>
        <g transform="translate(420 2)">
          <rect x="0" y="0" width="100" height="22" rx="6" fill="#22D3EE" fill-opacity="0.14" stroke="#22D3EE" stroke-opacity="0.45"></rect>
          <text x="50" y="15" font-family="&#39;Geist Mono&#39;, ui-monospace, monospace" font-size="9" letter-spacing="1.2" fill="#0E7C92" text-anchor="middle">LOW RISK</text>
        </g>
      </g>

      
      <g transform="translate(0 80)">
        <circle cx="14" cy="14" r="8" fill="#22D3EE" fill-opacity="0.18" stroke="#22D3EE" stroke-opacity="0.6"></circle>
        <path d="M10.5 14 L13 16.5 L17.5 11.5" stroke="#22D3EE" stroke-width="1.8" fill="none"></path>
        <text x="36" y="12" font-family="Geist, system-ui, sans-serif" font-weight="500" font-size="12" fill="#0E1A33">Sanctions</text>
        <text x="36" y="26" font-family="&#39;Geist Mono&#39;, ui-monospace, monospace" font-size="10" fill="#7A839E">OFAC · UN · EU lists screened</text>
        <g transform="translate(420 2)">
          <rect x="0" y="0" width="100" height="22" rx="6" fill="#22D3EE" fill-opacity="0.14" stroke="#22D3EE" stroke-opacity="0.45"></rect>
          <text x="50" y="15" font-family="&#39;Geist Mono&#39;, ui-monospace, monospace" font-size="9" letter-spacing="1.2" fill="#0E7C92" text-anchor="middle">CLEAR</text>
        </g>
      </g>

      
      <g transform="translate(0 120)">
        <circle cx="14" cy="14" r="8" fill="#22D3EE" fill-opacity="0.18" stroke="#22D3EE" stroke-opacity="0.6"></circle>
        <path d="M10.5 14 L13 16.5 L17.5 11.5" stroke="#22D3EE" stroke-width="1.8" fill="none"></path>
        <text x="36" y="12" font-family="Geist, system-ui, sans-serif" font-weight="500" font-size="12" fill="#0E1A33">Identity</text>
        <text x="36" y="26" font-family="&#39;Geist Mono&#39;, ui-monospace, monospace" font-size="10" fill="#7A839E">Face match 99.6% · device fingerprint stable</text>
        <g transform="translate(420 2)">
          <rect x="0" y="0" width="100" height="22" rx="6" fill="#22D3EE" fill-opacity="0.14" stroke="#22D3EE" stroke-opacity="0.45"></rect>
          <text x="50" y="15" font-family="&#39;Geist Mono&#39;, ui-monospace, monospace" font-size="9" letter-spacing="1.2" fill="#0E7C92" text-anchor="middle">MATCHED</text>
        </g>
      </g>

      
      <g transform="translate(0 160)">
        <circle cx="14" cy="14" r="8" fill="#22D3EE" fill-opacity="0.18" stroke="#22D3EE" stroke-opacity="0.6"></circle>
        <path d="M10.5 14 L13 16.5 L17.5 11.5" stroke="#22D3EE" stroke-width="1.8" fill="none"></path>
        <text x="36" y="12" font-family="Geist, system-ui, sans-serif" font-weight="500" font-size="12" fill="#0E1A33">Chargeback</text>
        <text x="36" y="26" font-family="&#39;Geist Mono&#39;, ui-monospace, monospace" font-size="10" fill="#7A839E">0 prior disputes on instrument</text>
        <g transform="translate(420 2)">
          <rect x="0" y="0" width="100" height="22" rx="6" fill="#22D3EE" fill-opacity="0.14" stroke="#22D3EE" stroke-opacity="0.45"></rect>
          <text x="50" y="15" font-family="&#39;Geist Mono&#39;, ui-monospace, monospace" font-size="9" letter-spacing="1.2" fill="#0E7C92" text-anchor="middle">NONE</text>
        </g>
      </g>
    </g>

    
    <g transform="translate(32 348)">
      <rect x="0" y="0" width="536" height="36" rx="10" fill="url(#fcVerdict)"></rect>
      <rect x="0" y="0" width="536" height="36" rx="10" fill="none" stroke="#6D28D9" stroke-opacity="0.4"></rect>

      
      <circle cx="20" cy="18" r="6" fill="#6D28D9"></circle>
      <path d="M16.5 18 L19 20.5 L23.5 15.5" stroke="#FFFFFF" stroke-width="1.6" fill="none"></path>

      <text x="36" y="22" font-family="Geist, system-ui, sans-serif" font-weight="600" font-size="13" letter-spacing="-0.2" fill="#0E1A33">Approved</text>

      
      <text x="340" y="22" font-family="&#39;Geist Mono&#39;, ui-monospace, monospace" font-size="10" letter-spacing="1.2" fill="#7A839E">RISK 0.04</text>
      <circle cx="402" cy="18" r="1.5" fill="#D1D7E8"></circle>
      <text x="414" y="22" font-family="&#39;Geist Mono&#39;, ui-monospace, monospace" font-size="10" letter-spacing="1.2" fill="#7A839E">240 MS</text>
      <circle cx="450" cy="18" r="1.5" fill="#D1D7E8"></circle>
      <text x="462" y="22" font-family="&#39;Geist Mono&#39;, ui-monospace, monospace" font-size="10" letter-spacing="1.2" fill="#7A839E">5 / 5 PASS</text>
    </g>
  </g>
</svg>