<svg xmlns="http://www.w3.org/2000/svg" viewBox="0 0 380 320" width="380" height="320">
  
  <defs>
    <filter id="trShadow" x="-15%" y="-15%" width="130%" height="130%">
      <feDropShadow dx="0" dy="10" stdDeviation="15" flood-color="#304DBB" flood-opacity="0.08"></feDropShadow>
    </filter>
    <linearGradient id="trTopBorder" x1="0" x2="1" y1="0" y2="0">
      <stop offset="0%" stop-color="#FFFFFF" stop-opacity="0.2"></stop>
      <stop offset="50%" stop-color="#FFFFFF" stop-opacity="0.85"></stop>
      <stop offset="100%" stop-color="#FFFFFF" stop-opacity="0.2"></stop>
    </linearGradient>
  </defs>

  
  <g filter="url(#trShadow)">
    <rect x="4" y="4" width="372" height="312" rx="24" fill="#FFFFFF" fill-opacity="0.7" stroke="#FFFFFF" stroke-opacity="0.5" stroke-width="1"></rect>
  </g>
  
  <line x1="20" x2="360" y1="5" y2="5" stroke="url(#trTopBorder)" stroke-width="1"></line>

  
  <text x="24" y="40" font-family="Inter, system-ui, sans-serif" font-size="11" font-weight="500" letter-spacing="0.08em" fill="#4A5578">TRANSACTION ROUTING</text>

  
  <g transform="translate(308 28)">
    <circle cx="6" cy="6" r="4" fill="#10B981">
      
    </circle>
    <circle cx="6" cy="6" r="4" fill="#10B981" opacity="0.3">
      
      
    </circle>
    <text x="18" y="10" font-family="Inter, system-ui, sans-serif" font-size="12" font-weight="500" fill="#0EA5E9">Live</text>
  </g>

  

  
  <g transform="translate(0 76)">
    
    <circle cx="36" cy="14" r="14" fill="#FFFFFF" stroke="#E5E7EB"></circle>
    
    <g transform="translate(26 11) scale(0.0763)" fill="#1A1F71">
      <path d="M170.9,0c-18.6,0-35.3,9.7-35.3,27.5c0,20.5,29.5,21.9,29.5,32.1c0,4.3-5,8.2-13.4,8.2c-12,0-21-5.4-21-5.4l-3.8,18c0,0,10.3,4.6,24.1,4.6c20.4,0,36.4-10.1,36.4-28.3c0-21.6-29.6-23-29.6-32.5c0-3.4,4.1-7.1,12.5-7.1c9.5,0,17.3,3.9,17.3,3.9l3.8-17.4C191.3,3.6,182.8,0,170.9,0L170.9,0z M0.5,1.3L0,3.9c0,0,7.8,1.4,14.9,4.3c9.1,3.3,9.7,5.2,11.3,11.1l16.7,64.3h22.4L99.6,1.3H77.3l-22.1,56l-9-47.5c-0.8-5.4-5-8.5-10.2-8.5C36,1.3,0.5,1.3,0.5,1.3z M108.6,1.3L91.1,83.6h21.3l17.4-82.3L108.6,1.3L108.6,1.3z M227.2,1.3c-5.1,0-7.8,2.7-9.8,7.5l-31.2,74.8h22.3l4.3-12.5H240l2.6,12.5h19.7L245.2,1.3L227.2,1.3L227.2,1.3z M230.1,23.6l6.6,30.9H219L230.1,23.6L230.1,23.6z"></path>
    </g>

    <text x="60" y="12" font-family="Inter, system-ui, sans-serif" font-size="14" font-weight="500" fill="#0E1A33">Visa</text>

    
    <rect x="60" y="22" width="240" height="4" rx="2" fill="#E5E7EB"></rect>
    <rect x="60" y="22" width="172.8" height="4" rx="2" fill="#304DBB"></rect>

    <text x="356" y="18" font-family="&#39;IBM Plex Mono&#39;, ui-monospace, monospace" font-size="13" fill="#0E1A33" text-anchor="end">72%</text>
  </g>

  
  <g transform="translate(0 138)">
    <circle cx="36" cy="14" r="14" fill="#FFFFFF" stroke="#E5E7EB"></circle>
    
    <circle cx="31" cy="14" r="6" fill="#EB001B"></circle>
    <circle cx="41" cy="14" r="6" fill="#F79E1B"></circle>
    <path d="M 36 9.5 A 6 6 0 0 1 36 18.5 A 6 6 0 0 1 36 9.5 Z" fill="#FF5F00"></path>

    <text x="60" y="12" font-family="Inter, system-ui, sans-serif" font-size="14" font-weight="500" fill="#0E1A33">Mastercard</text>

    <rect x="60" y="22" width="240" height="4" rx="2" fill="#E5E7EB"></rect>
    <rect x="60" y="22" width="124.8" height="4" rx="2" fill="#304DBB"></rect>

    <text x="356" y="18" font-family="&#39;IBM Plex Mono&#39;, ui-monospace, monospace" font-size="13" fill="#0E1A33" text-anchor="end">52%</text>
  </g>

  
  <g transform="translate(0 200)">
    <circle cx="36" cy="14" r="14" fill="#FFFFFF" stroke="#E5E7EB"></circle>
    
    <g stroke="#304DBB" stroke-width="1.2" fill="#304DBB">
      <line x1="30" y1="11" x2="42" y2="17"></line>
      <line x1="42" y1="11" x2="30" y2="17"></line>
      <line x1="30" y1="11" x2="42" y2="11"></line>
      <line x1="30" y1="17" x2="42" y2="17"></line>
      <circle cx="30" cy="11" r="1.6"></circle>
      <circle cx="42" cy="11" r="1.6"></circle>
      <circle cx="30" cy="17" r="1.6"></circle>
      <circle cx="42" cy="17" r="1.6"></circle>
    </g>

    <text x="60" y="12" font-family="Inter, system-ui, sans-serif" font-size="14" font-weight="500" fill="#0E1A33">SWIFT</text>

    <rect x="60" y="22" width="240" height="4" rx="2" fill="#E5E7EB"></rect>
    <rect x="60" y="22" width="91.2" height="4" rx="2" fill="#304DBB"></rect>

    <text x="356" y="18" font-family="&#39;IBM Plex Mono&#39;, ui-monospace, monospace" font-size="13" fill="#0E1A33" text-anchor="end">38%</text>
  </g>

  
  <g transform="translate(0 262)">
    <circle cx="36" cy="14" r="14" fill="#FFFFFF" stroke="#E5E7EB"></circle>
    <circle cx="36" cy="14" r="9" fill="#304DBB"></circle>
    <text x="36" y="18" font-family="Inter, system-ui, sans-serif" font-size="11" font-weight="700" fill="#FFFFFF" text-anchor="middle">$</text>

    <text x="60" y="12" font-family="Inter, system-ui, sans-serif" font-size="14" font-weight="500" fill="#0E1A33">Stablecoin</text>

    <rect x="60" y="22" width="240" height="4" rx="2" fill="#E5E7EB"></rect>
    <rect x="60" y="22" width="57.6" height="4" rx="2" fill="#304DBB"></rect>

    <text x="356" y="18" font-family="&#39;IBM Plex Mono&#39;, ui-monospace, monospace" font-size="13" fill="#0E1A33" text-anchor="end">24%</text>
  </g>
</svg>