<svg xmlns="http://www.w3.org/2000/svg" viewBox="0 0 380 280" width="380" height="280">
  <defs>
    <filter id="ccShadow" x="-15%" y="-15%" width="130%" height="130%">
      <feDropShadow dx="0" dy="10" stdDeviation="15" flood-color="#0F172A" flood-opacity="0.06"></feDropShadow>
    </filter>
    <linearGradient id="ccTopBorder" x1="0" x2="1" y1="0" y2="0">
      <stop offset="0%" stop-color="#FFFFFF" stop-opacity="0.25"></stop>
      <stop offset="50%" stop-color="#FFFFFF" stop-opacity="0.9"></stop>
      <stop offset="100%" stop-color="#FFFFFF" stop-opacity="0.25"></stop>
    </linearGradient>
    <linearGradient id="ccToggleOn" x1="0" x2="1" y1="0" y2="0">
      <stop offset="0%" stop-color="#0E1A33"></stop>
      <stop offset="100%" stop-color="#304DBB"></stop>
    </linearGradient>
  </defs>

  
  <g filter="url(#ccShadow)">
    <rect x="4" y="4" width="372" height="272" rx="24" fill="#FFFFFF" fill-opacity="0.7" stroke="#FFFFFF" stroke-opacity="0.5" stroke-width="1"></rect>
  </g>
  <path d="M 28 5 H 352" stroke="url(#ccTopBorder)" stroke-width="1" fill="none"></path>

  
  <text x="24" y="40" font-family="Inter, system-ui, sans-serif" font-size="11" font-weight="500" letter-spacing="0.08em" fill="#6B7280">CARD CONTROLS</text>

  <g transform="translate(338 34)" fill="#6B7280">
    <circle cx="2" cy="2" r="1.6"></circle>
    <circle cx="10" cy="2" r="1.6"></circle>
    <circle cx="18" cy="2" r="1.6"></circle>
  </g>

  
  <g transform="translate(0 92)">
    <text x="24" y="6" font-family="Inter, system-ui, sans-serif" font-size="14" font-weight="500" fill="#0E1A33">Freeze card</text>
    <g transform="translate(316 -10)">
      <rect width="36" height="20" rx="10" fill="#E5E7EB"></rect>
      <circle cx="10" cy="10" r="7.5" fill="#FFFFFF"></circle>
    </g>
  </g>
  <line x1="24" x2="356" y1="118" y2="118" stroke="#E5E7EB" stroke-width="1"></line>

  
  <g transform="translate(0 144)">
    <text x="24" y="6" font-family="Inter, system-ui, sans-serif" font-size="14" font-weight="500" fill="#0E1A33">Spending limit</text>
    <text x="300" y="6" font-family="&#39;IBM Plex Mono&#39;, ui-monospace, monospace" font-size="13" fill="#6B7280" text-anchor="end">$25,000 / month</text>
    <g transform="translate(316 -10)">
      <rect width="36" height="20" rx="10" fill="url(#ccToggleOn)"></rect>
      <circle cx="26" cy="10" r="7.5" fill="#FFFFFF"></circle>
    </g>
  </g>
  <line x1="24" x2="356" y1="170" y2="170" stroke="#E5E7EB" stroke-width="1"></line>

  
  <g transform="translate(0 196)">
    <text x="24" y="6" font-family="Inter, system-ui, sans-serif" font-size="14" font-weight="500" fill="#0E1A33">International transactions</text>
    <g transform="translate(316 -10)">
      <rect width="36" height="20" rx="10" fill="url(#ccToggleOn)"></rect>
      <circle cx="26" cy="10" r="7.5" fill="#FFFFFF"></circle>
    </g>
  </g>
  <line x1="24" x2="356" y1="222" y2="222" stroke="#E5E7EB" stroke-width="1"></line>

  
  <g transform="translate(0 248)">
    <text x="24" y="6" font-family="Inter, system-ui, sans-serif" font-size="14" font-weight="500" fill="#0E1A33">ATM withdrawals</text>
    <g transform="translate(316 -10)">
      <rect width="36" height="20" rx="10" fill="#E5E7EB"></rect>
      <circle cx="10" cy="10" r="7.5" fill="#FFFFFF"></circle>
    </g>
  </g>
</svg>