<svg width="1120" height="760" viewBox="0 0 1120 760" fill="none" xmlns="http://www.w3.org/2000/svg">
  <defs>
    <filter id="cyanBeamBlur" x="-200%" y="-50%" width="500%" height="200%">
      <feGaussianBlur stdDeviation="4"></feGaussianBlur>
    </filter>

    <filter id="cyanPulseGlow" x="-300%" y="-300%" width="700%" height="700%">
      <feDropShadow dx="0" dy="0" stdDeviation="8" flood-color="#22D3EE" flood-opacity="0.95"></feDropShadow>
    </filter>

    <linearGradient id="lineGrad" x1="135" y1="105" x2="765" y2="650" gradientUnits="userSpaceOnUse">
      <stop offset="0" stop-color="#0E1A33" stop-opacity="0.50"></stop>
      <stop offset="0.5" stop-color="#4A5578" stop-opacity="0.36"></stop>
      <stop offset="1" stop-color="#0E1A33" stop-opacity="0.50"></stop>
    </linearGradient>

    <linearGradient id="cyanBeam" x1="0" y1="0" x2="0" y2="1">
      <stop offset="0%" stop-color="#22D3EE" stop-opacity="0"></stop>
      <stop offset="10%" stop-color="#22D3EE" stop-opacity="0.75"></stop>
      <stop offset="90%" stop-color="#22D3EE" stop-opacity="0.75"></stop>
      <stop offset="100%" stop-color="#22D3EE" stop-opacity="0"></stop>
    </linearGradient>

    <linearGradient id="nCoreFill" x1="0" y1="0" x2="1" y2="1">
      <stop offset="0%" stop-color="#5B4FD9" stop-opacity="0.10"></stop>
      <stop offset="100%" stop-color="#22D3EE" stop-opacity="0.06"></stop>
    </linearGradient>
  </defs>

  <g opacity="0.65">
    <rect x="447" y="70" width="6" height="662" rx="3" fill="url(#cyanBeam)" filter="url(#cyanBeamBlur)"></rect>
    <rect x="449" y="70" width="2" height="662" fill="#22D3EE" opacity="0.55"></rect>
  </g>

  <path d="M166 220V610" stroke="#0E1A33" stroke-opacity="0.20" stroke-width="2" stroke-linecap="round" stroke-dasharray="2 10"></path>
  <path d="M734 220V610" stroke="#0E1A33" stroke-opacity="0.20" stroke-width="2" stroke-linecap="round" stroke-dasharray="2 10"></path>

  <g fill="url(#nCoreFill)" stroke="url(#lineGrad)" stroke-width="1.6" stroke-linejoin="round">
    <path d="M450 70 L735 220 L450 372 L165 220 Z"></path>
  </g>
  <path d="M165 220V247C165 253 169 258 174 261L441 405C447 408 453 408 459 405L726 261C731 258 735 253 735 247V220" stroke="url(#lineGrad)" stroke-width="1.2" stroke-linejoin="round" fill="none"></path>

  <g stroke="url(#lineGrad)" stroke-width="1.25" stroke-linejoin="round" fill="none">
    <path d="M450 198 L735 348 L450 500 L165 348 Z"></path>
    <path d="M450 246 L735 396 L450 548 L165 396 Z"></path>
    <path d="M450 294 L735 444 L450 596 L165 444 Z"></path>
    <path d="M450 342 L735 492 L450 644 L165 492 Z"></path>
    <path d="M450 390 L735 540 L450 692 L165 540 Z"></path>
    <path d="M450 438 L735 588 L450 740 L165 588 Z"></path>
    <path d="M450 486 L735 636 L450 788 L165 636 Z"></path>
    <path d="M450 534 L735 684 L450 836 L165 684 Z" opacity="0.82"></path>
    <path d="M450 582 L735 732 L450 884 L165 732 Z" opacity="0.68"></path>
  </g>

  <text x="450" y="232" text-anchor="middle" font-family="Inter, system-ui, sans-serif" font-size="36" font-weight="700" fill="#0E1A33" letter-spacing="-0.02em">nCore</text>

  <g font-family="Inter, system-ui, sans-serif" font-size="18" font-weight="500" fill="#0E1A33">
    <line x1="735" y1="348" x2="775" y2="348" stroke="#0E1A33" stroke-opacity="0.30" stroke-width="1"></line>
    <circle cx="775" cy="348" r="3" fill="#22D3EE" opacity="0.75"></circle>
    <text x="787" y="354">Cards</text>

    <line x1="735" y1="396" x2="775" y2="396" stroke="#0E1A33" stroke-opacity="0.30" stroke-width="1"></line>
    <circle cx="775" cy="396" r="3" fill="#22D3EE" opacity="0.75"></circle>
    <text x="787" y="402">Cross-Border &amp; FX</text>

    <line x1="735" y1="444" x2="775" y2="444" stroke="#0E1A33" stroke-opacity="0.30" stroke-width="1"></line>
    <circle cx="775" cy="444" r="3" fill="#22D3EE" opacity="0.75"></circle>
    <text x="787" y="450">Lending</text>

    <line x1="735" y1="492" x2="775" y2="492" stroke="#0E1A33" stroke-opacity="0.30" stroke-width="1"></line>
    <circle cx="775" cy="492" r="3" fill="#22D3EE" opacity="0.75"></circle>
    <text x="787" y="498">Identity</text>

    <line x1="735" y1="540" x2="775" y2="540" stroke="#0E1A33" stroke-opacity="0.30" stroke-width="1"></line>
    <circle cx="775" cy="540" r="3" fill="#22D3EE" opacity="0.75"></circle>
    <text x="787" y="546">Fraud Monitoring</text>

    <line x1="735" y1="588" x2="775" y2="588" stroke="#0E1A33" stroke-opacity="0.30" stroke-width="1"></line>
    <circle cx="775" cy="588" r="3" fill="#22D3EE" opacity="0.75"></circle>
    <text x="787" y="594">Risk Management</text>

    <line x1="735" y1="636" x2="775" y2="636" stroke="#0E1A33" stroke-opacity="0.30" stroke-width="1"></line>
    <circle cx="775" cy="636" r="3" fill="#22D3EE" opacity="0.75"></circle>
    <text x="787" y="642">3D Secure</text>

    <line x1="735" y1="684" x2="775" y2="684" stroke="#0E1A33" stroke-opacity="0.30" stroke-width="1"></line>
    <circle cx="775" cy="684" r="3" fill="#22D3EE" opacity="0.75"></circle>
    <text x="787" y="690">Stablecoin Settlement</text>

    <line x1="735" y1="732" x2="775" y2="732" stroke="#0E1A33" stroke-opacity="0.30" stroke-width="1"></line>
    <circle cx="775" cy="732" r="3" fill="#22D3EE" opacity="0.75"></circle>
    <text x="787" y="738">Reconciliation</text>
  </g>

  <circle r="7" fill="#22D3EE" filter="url(#cyanPulseGlow)" cx="450" opacity="0">
    <animate attributeName="cy" values="70;732" keyTimes="0;1" dur="5s" repeatCount="indefinite"></animate>
    <animate attributeName="opacity" values="0;1;1;1;0" keyTimes="0;0.06;0.5;0.94;1" dur="5s" repeatCount="indefinite"></animate>
  </circle>
</svg>
