<svg width="900" height="760" viewBox="0 0 900 760" fill="none" xmlns="http://www.w3.org/2000/svg">
  <rect width="900" height="760" fill="#050607"/>

  <defs>
    <filter id="softGlow" x="-20%" y="-20%" width="140%" height="140%">
      <feGaussianBlur stdDeviation="2.5" result="blur"/>
      <feMerge>
        <feMergeNode in="blur"/>
        <feMergeNode in="SourceGraphic"/>
      </feMerge>
    </filter>

    <linearGradient id="lineGrad" x1="135" y1="105" x2="765" y2="650" gradientUnits="userSpaceOnUse">
      <stop offset="0" stop-color="#FFFFFF" stop-opacity="0.92"/>
      <stop offset="0.5" stop-color="#E8EEF8" stop-opacity="0.68"/>
      <stop offset="1" stop-color="#FFFFFF" stop-opacity="0.92"/>
    </linearGradient>

    <linearGradient id="mutedGrad" x1="180" y1="170" x2="720" y2="610" gradientUnits="userSpaceOnUse">
      <stop offset="0" stop-color="#FFFFFF" stop-opacity="0.26"/>
      <stop offset="0.5" stop-color="#AAB2C3" stop-opacity="0.12"/>
      <stop offset="1" stop-color="#FFFFFF" stop-opacity="0.22"/>
    </linearGradient>
  </defs>

  <path d="M166 220V610" stroke="#DCE5F2" stroke-opacity="0.34" stroke-width="2" stroke-linecap="round" stroke-dasharray="2 10"/>
  <path d="M734 220V610" stroke="#DCE5F2" stroke-opacity="0.34" stroke-width="2" stroke-linecap="round" stroke-dasharray="2 10"/>

  <g filter="url(#softGlow)" stroke-linejoin="round">
    <path d="M450 70 L735 220 L450 372 L165 220 Z" stroke="url(#lineGrad)" stroke-width="1.4"/>
    <path d="M165 220V247C165 253 169 258 174 261L441 405C447 408 453 408 459 405L726 261C731 258 735 253 735 247V220" stroke="url(#lineGrad)" stroke-width="1.2"/>

    <path d="M450 198 L735 348 L450 500 L165 348 Z" stroke="url(#lineGrad)" stroke-width="1.25"/>
    <path d="M450 246 L735 396 L450 548 L165 396 Z" stroke="url(#lineGrad)" stroke-width="1.25"/>
    <path d="M450 294 L735 444 L450 596 L165 444 Z" stroke="url(#lineGrad)" stroke-width="1.25"/>
    <path d="M450 342 L735 492 L450 644 L165 492 Z" stroke="url(#lineGrad)" stroke-width="1.25"/>
    <path d="M450 390 L735 540 L450 692 L165 540 Z" stroke="url(#lineGrad)" stroke-width="1.25"/>
    <path d="M450 438 L735 588 L450 740 L165 588 Z" stroke="url(#lineGrad)" stroke-width="1.25"/>
    <path d="M450 486 L735 636 L450 788 L165 636 Z" stroke="url(#lineGrad)" stroke-width="1.25"/>
    <path d="M450 534 L735 684 L450 836 L165 684 Z" stroke="url(#lineGrad)" stroke-width="1.25" opacity="0.82"/>
    <path d="M450 582 L735 732 L450 884 L165 732 Z" stroke="url(#lineGrad)" stroke-width="1.25" opacity="0.68"/>
  </g>

  <g stroke="url(#mutedGrad)" stroke-width="0.9" stroke-linecap="round" opacity="0.78">
    <path d="M185 238L450 378L715 238"/>
    <path d="M185 366L450 506L715 366"/>
    <path d="M185 414L450 554L715 414"/>
    <path d="M185 462L450 602L715 462"/>
    <path d="M185 510L450 650L715 510"/>
    <path d="M185 558L450 698L715 558"/>
    <path d="M185 606L450 746L715 606"/>
  </g>

  <g opacity="0.46" stroke="#DCE5F2" stroke-width="1.2" stroke-linecap="round">
    <path d="M345 218C346 174 390 142 450 142C510 142 554 174 555 218"/>
    <path d="M352 238H548"/>
    <path d="M365 256H535"/>
    <path d="M390 274H510"/>
    <path d="M417 292C439 300 461 300 483 292"/>
  </g>
</svg>
