<svg width="300" height="81" viewBox="0 0 300 81" fill="none" xmlns="http://www.w3.org/2000/svg">
<g clip-path="url(#clip0_5384_13409)">
<path d="M112.14 2.18724C112.071 1.56706 112.002 0.877986 111.864 0.257812C112.002 0.946895 112.071 1.56706 112.14 2.18724Z" fill="#9BA0B1"/>
<path d="M60.2525 13.4872C59.5633 13.5561 4.91913 27.4755 4.91913 27.4755C4.7124 27.5445 4.57458 27.5445 4.36786 27.6134H4.29895C3.33424 27.9579 2.36953 28.5781 1.68045 29.405C-0.111168 31.7479 0.302277 35.1244 2.64516 36.916L10.7074 43.1177C11.1898 43.4622 11.81 43.669 12.4301 43.669C13.3948 43.669 14.2217 43.1867 14.704 42.4975L20.6991 34.642L20.768 34.5732L23.3865 31.1966L26.8319 33.8152C28.6925 35.2622 29.037 38.0186 27.59 39.8791L19.8033 50.0775L13.0503 58.7599C11.6033 60.6204 11.9478 63.3768 13.8083 64.8238L17.2537 67.4424L21.1815 62.3431L31.7934 48.6993C33.3093 46.9766 35.859 46.701 37.7195 48.0791C39.5799 49.5262 39.9245 52.2826 38.4774 54.1431L33.4471 60.6204L29.6572 65.5818C28.2101 67.4424 28.5546 70.1986 30.4152 71.6458L30.484 71.7147L33.7916 74.2642L37.7195 69.1651L49.7784 53.5918C51.2943 51.8691 53.844 51.5934 55.7045 52.9716L59.1499 55.5901L56.5314 58.9666L48.8137 68.9583C48.4691 69.4406 48.2624 69.9919 48.2624 70.6121C48.2624 71.508 48.6759 72.3348 49.3649 72.8862L57.0826 79.0878C59.4255 80.8795 62.802 80.466 64.5936 78.1231C65.2828 77.2273 65.6273 76.1937 65.6961 75.1601V75.0912C65.6961 74.9534 65.6961 74.7466 65.6961 74.6088C65.6961 74.6088 65.834 18.4486 65.6961 17.7595C65.6273 16.4503 64.8004 15.4166 63.6979 14.5897C62.7332 13.7629 61.6995 13.2804 60.2525 13.4872Z" fill="url(#paint0_linear_5384_13409)"/>
<path d="M60.2525 13.4872C59.5633 13.5561 4.91913 27.4755 4.91913 27.4755C4.7124 27.5445 4.57458 27.5445 4.36786 27.6134H4.29895C3.33424 27.9579 2.36953 28.5781 1.68045 29.405C-0.111168 31.7479 0.302277 35.1244 2.64516 36.916L10.7074 43.1177C11.1898 43.4622 11.81 43.669 12.4301 43.669C13.3948 43.669 14.2217 43.1867 14.704 42.4975L20.6991 34.642L20.768 34.5732L23.3865 31.1966L26.8319 33.8152C28.6925 35.2622 29.037 38.0186 27.59 39.8791L19.8033 50.0775L13.0503 58.7599C11.6033 60.6204 11.9478 63.3768 13.8083 64.8238L17.2537 67.4424L21.1815 62.3431L31.7934 48.6993C33.3093 46.9766 35.859 46.701 37.7195 48.0791C39.5799 49.5262 39.9245 52.2826 38.4774 54.1431L33.4471 60.6204L29.6572 65.5818C28.2101 67.4424 28.5546 70.1986 30.4152 71.6458L30.484 71.7147L33.7916 74.2642L37.7195 69.1651L49.7784 53.5918C51.2943 51.8691 53.844 51.5934 55.7045 52.9716L59.1499 55.5901L56.5314 58.9666L48.8137 68.9583C48.4691 69.4406 48.2624 69.9919 48.2624 70.6121C48.2624 71.508 48.6759 72.3348 49.3649 72.8862L57.0826 79.0878C59.4255 80.8795 62.802 80.466 64.5936 78.1231C65.2828 77.2273 65.6273 76.1937 65.6961 75.1601V75.0912C65.6961 74.9534 65.6961 74.7466 65.6961 74.6088C65.6961 74.6088 65.834 18.4486 65.6961 17.7595C65.6273 16.4503 64.8004 15.4166 63.6979 14.5897C62.7332 13.7629 61.6995 13.2804 60.2525 13.4872Z" fill="url(#paint1_linear_5384_13409)"/>
<path d="M220.538 31.6807C217.162 31.6807 214.475 32.921 212.476 35.4017V32.3698H208.204C205.861 32.3698 204 34.2303 204 36.5732V61.8625H208.273C210.615 61.8625 212.476 60.0019 212.476 57.6591V45.1867C212.476 41.948 214.819 39.5363 217.92 39.5363C221.02 39.5363 223.294 41.948 223.294 45.1867V61.8625H227.567C229.909 61.8625 231.77 60.0019 231.77 57.6591V42.9127C231.77 39.674 230.667 36.9866 228.532 34.8505C226.326 32.7832 223.708 31.6807 220.538 31.6807Z" fill="#9BA0B1"/>
<path d="M294.953 36.1597C291.921 33.1278 288.199 31.6807 283.72 31.6807C279.242 31.6807 275.452 33.1278 272.42 36.1597C269.388 39.1228 267.941 42.7749 267.941 47.1851C267.941 51.5952 269.388 55.2473 272.42 58.2792C275.452 61.2423 279.242 62.6895 283.72 62.6895C288.199 62.6895 291.989 61.2423 294.953 58.2792C297.985 55.2473 299.501 51.5952 299.501 47.1851C299.501 42.7749 297.985 39.1228 294.953 36.1597ZM288.613 52.2843C287.303 53.6624 285.649 54.3515 283.72 54.3515C281.722 54.3515 280.068 53.6624 278.759 52.2843C277.45 50.9061 276.761 49.1834 276.761 47.254C276.761 45.2556 277.45 43.5329 278.759 42.2237C280.068 40.8455 281.722 40.1565 283.72 40.1565C285.649 40.1565 287.303 40.8455 288.613 42.2925C289.991 43.6707 290.68 45.3246 290.68 47.3228C290.68 49.1834 289.991 50.8372 288.613 52.2843Z" fill="#9BA0B1"/>
<path d="M144.183 23.963V34.7816C141.771 32.99 139.015 32.0253 135.983 32.0253C131.985 32.0253 128.678 33.4724 125.991 36.4354C123.304 39.3985 121.994 43.0506 121.994 47.5297C121.994 51.8709 123.304 55.5919 125.991 58.6239C128.678 61.587 131.985 63.034 135.983 63.034C139.083 63.034 141.771 62.1382 144.183 60.2776V62.345H148.386C150.729 62.345 152.589 60.4844 152.589 58.1416V19.7596H148.386C146.112 19.6907 144.183 21.6201 144.183 23.963ZM137.499 54.6272C133.777 54.6272 130.884 51.5263 130.884 47.4607C130.884 43.5329 133.777 40.4321 137.499 40.4321C139.29 40.4321 140.874 41.1212 142.184 42.4994C143.493 43.8775 144.114 45.5313 144.114 47.5297C144.114 51.5953 141.151 54.6272 137.499 54.6272Z" fill="#9BA0B1"/>
<path d="M114.968 50.2858C117.31 50.2858 119.171 48.4252 119.171 46.0823C119.171 46.0135 119.171 45.8757 119.171 45.8068V45.7378V45.669C118.826 42.0168 117.379 38.916 114.761 36.2974C111.729 33.2654 108.076 31.8184 103.598 31.8184C99.1186 31.8184 95.3976 33.2654 92.4345 36.2974C89.4026 39.2605 87.9555 42.9126 87.9555 47.3227C87.9555 51.7329 89.4714 55.4539 92.5723 58.4169C95.6732 61.38 99.5321 62.827 104.08 62.827C110.35 62.827 115.588 59.7263 118.206 54.8337L112.143 53.4556C111.798 53.3866 111.523 53.3178 111.178 53.3178C110.213 53.3178 109.317 53.6623 108.628 54.1447C107.388 55.0405 105.872 55.5228 104.08 55.5228C100.635 55.5228 97.8094 53.4556 96.8447 50.3547H114.761C114.968 50.2858 114.968 50.2858 114.968 50.2858ZM96.9824 43.9463C97.9472 40.9142 100.635 38.916 103.598 38.916C106.767 38.916 109.455 40.9142 110.557 43.9463H96.9824Z" fill="#9BA0B1"/>
<path d="M192.626 36.6419V49.1142C192.626 52.3529 190.283 54.7648 187.182 54.7648C184.081 54.7648 181.807 52.3529 181.807 49.1142V32.4385H177.534C175.192 32.4385 173.331 34.299 173.331 36.6419V51.3882C173.331 54.6269 174.434 57.3143 176.57 59.4505C178.775 61.5866 181.463 62.6892 184.633 62.6892C188.009 62.6892 190.696 61.4488 192.694 58.9681V62.0001H196.967C199.309 62.0001 201.17 60.1396 201.17 57.7967V32.5073H196.898C194.555 32.4385 192.626 34.3679 192.626 36.6419Z" fill="#9BA0B1"/>
<path d="M256.64 23.6165V34.4351C254.228 32.6434 251.473 31.6787 248.441 31.6787C244.444 31.6787 241.136 33.1258 238.449 36.0888C235.762 39.0519 234.452 42.7041 234.452 47.183C234.452 51.5243 235.762 55.2454 238.449 58.2773C241.136 61.2403 244.444 62.6874 248.441 62.6874C251.541 62.6874 254.228 61.7917 256.64 59.9311V61.9983H260.845C263.187 61.9983 265.048 60.1378 265.048 57.7949V19.4131H260.845C258.57 19.4131 256.64 21.2736 256.64 23.6165ZM249.957 54.2807C246.235 54.2807 243.341 51.1798 243.341 47.1142C243.341 43.1864 246.235 40.0855 249.957 40.0855C251.748 40.0855 253.333 40.7746 254.643 42.1528C255.952 43.5309 256.572 45.1847 256.572 47.183C256.572 51.2486 253.609 54.2807 249.957 54.2807Z" fill="#9BA0B1"/>
<path d="M168.719 19.6895H166.513C163.413 19.6895 160.794 20.5852 158.658 22.4457C156.591 24.3062 155.557 26.6491 155.557 29.4055V58.0024C155.557 60.3453 157.418 62.2059 159.761 62.2059H164.033V39.8796H170.441V36.9165C170.441 34.5736 168.581 32.7131 166.238 32.7131H164.033V30.5769C164.033 28.7853 165.411 27.545 167.203 27.545H172.922V23.9617C172.922 21.6188 171.061 19.6895 168.719 19.6895Z" fill="#9BA0B1"/>
</g>
<defs>
<linearGradient id="paint0_linear_5384_13409" x1="12.3132" y1="17.3386" x2="33.1634" y2="80.1988" gradientUnits="userSpaceOnUse">
<stop stop-color="#9BA0B1"/>
<stop offset="1" stop-color="#9BA0B1"/>
</linearGradient>
<linearGradient id="paint1_linear_5384_13409" x1="65.694" y1="80.328" x2="-16.7364" y2="2.61642" gradientUnits="userSpaceOnUse">
<stop stop-color="#9BA0B1"/>
<stop offset="1" stop-color="#9BA0B1"/>
</linearGradient>
<clipPath id="clip0_5384_13409">
<rect width="298.932" height="80.0712" fill="white" transform="translate(0.569458 0.257812)"/>
</clipPath>
</defs>
</svg>
