<svg width="187" height="81" viewBox="0 0 187 81" fill="none" xmlns="http://www.w3.org/2000/svg">
<g clip-path="url(#clip0_5384_13531)">
<path d="M25.9486 27.2305H17.5944V41.26H25.9486C34.1904 41.26 34.2779 27.2305 25.9486 27.2305Z" fill="#9BA0B1"/>
<path d="M43.4965 13.4434H1.57823C1.21616 13.4532 0.872581 13.6054 0.622085 13.8671C0.37159 14.1287 0.234399 14.4785 0.240295 14.8407V56.0869L9.56988 61.0072V27.2729H5.12V19.4734H27.1584C44.6891 19.4734 44.5078 49.0018 27.1584 49.0018H17.3583V65.1414L22.5944 67.8954L44.8204 56.0869V14.8407C44.828 14.4796 44.6926 14.1302 44.4438 13.8685C44.195 13.6068 43.8528 13.454 43.4918 13.4434" fill="#9BA0B1"/>
<path d="M55.4769 26.1961C55.4769 24.7441 56.0529 23.3513 57.0785 22.3234C58.1041 21.2955 59.4954 20.7164 60.9475 20.7131H64.6987C67.0282 20.5629 69.3625 20.9207 71.54 21.7618C72.9191 22.5293 74.0547 23.6689 74.8172 25.0508C75.5797 26.4326 75.9384 28.001 75.8523 29.5769C75.9414 31.0391 75.6412 32.4988 74.9822 33.8072C74.3232 35.1155 73.3291 36.2257 72.1012 37.0246C69.8466 38.2576 67.295 38.8434 64.7284 38.7174H60.9006V48.9097H55.4691L55.4769 26.1961ZM60.9084 33.8861H65.0192C67.6763 33.8861 70.2974 32.8373 70.2974 29.6988C70.2974 26.0335 68.2858 25.5068 64.8268 25.5068H61.6055C60.9162 25.5068 60.9163 26.1539 60.9163 26.8416L60.9084 33.8861Z" fill="#9BA0B1"/>
<path d="M88.3768 46.9657C87.6409 47.7301 86.7585 48.3384 85.7823 48.7544C84.8062 49.1704 83.7563 49.3855 82.6953 49.3868C81.7497 49.4392 80.8033 49.2997 79.9131 48.9766C79.0228 48.6535 78.2071 48.1536 77.5152 47.507C76.8233 46.8603 76.2694 46.0804 75.887 45.214C75.5045 44.3476 75.3014 43.4128 75.2898 42.4658C75.2548 40.7679 75.8615 39.1192 76.9889 37.8489C78.1163 36.5787 79.6813 35.7805 81.3714 35.6136L88.2955 34.607C88.1392 32.5486 84.91 31.8218 83.5049 31.8218C81.5727 31.8415 79.6661 32.2675 77.9093 33.0722H77.3404V28.4003C79.3653 27.7612 81.4697 27.4082 83.5924 27.3516C88.4252 27.3516 93.1268 29.1662 93.2972 34.4836V48.9008H88.3768V46.9657ZM83.6268 44.8744C85.2459 44.8076 86.8174 44.3084 88.1783 43.4287V38.6787C86.459 38.9913 84.6771 39.1601 82.9031 39.5227C82.2301 39.5633 81.5988 39.8625 81.1412 40.3576C80.6836 40.8528 80.4352 41.5057 80.4477 42.1798C80.4477 44.1508 81.9356 44.8744 83.6268 44.8744Z" fill="#9BA0B1"/>
<path d="M110.45 27.8023H115.204L105.901 53.456C104.338 57.5198 101.511 58.567 96.6794 58.567H95.7573V54.1421C99.6179 54.1812 100.915 54.1421 101.917 51.3615L102.885 48.6966L93.6988 27.8008H99.2975L105.296 41.9757L110.45 27.8023Z" fill="#9BA0B1"/>
<path d="M110.467 25.6301V20.7129H131.411V25.6301H123.596V48.9096H118.161V25.6301H110.467Z" fill="#9BA0B1"/>
<path d="M142.735 46.9657C141.999 47.7288 141.118 48.3363 140.143 48.7522C139.168 49.1681 138.12 49.3839 137.06 49.3868C136.114 49.4405 135.166 49.302 134.275 48.9794C133.384 48.6569 132.568 48.1571 131.875 47.5103C131.183 46.8635 130.628 46.083 130.246 45.216C129.863 44.349 129.66 43.4134 129.649 42.4658C129.613 40.7678 130.219 39.1187 131.347 37.8483C132.474 36.5779 134.039 35.7798 135.73 35.6136L142.655 34.607C142.499 32.5486 139.268 31.8218 137.861 31.8218C135.929 31.8414 134.022 32.2674 132.264 33.0722H131.696V28.4003C133.721 27.7613 135.825 27.4083 137.948 27.3516C142.782 27.3516 147.493 29.1662 147.659 34.4836V48.9008H142.74L142.735 46.9657ZM137.983 44.8744C139.601 44.8071 141.171 44.3079 142.53 43.4287V38.6787C140.811 38.9913 139.028 39.1601 137.255 39.5227C136.582 39.5629 135.95 39.8619 135.492 40.3571C135.034 40.8524 134.786 41.5054 134.798 42.1798C134.798 44.1508 136.292 44.8744 137.983 44.8744Z" fill="#9BA0B1"/>
<path d="M156.341 49.3515C155.672 49.3489 155.01 49.2143 154.393 48.9555C153.776 48.6966 153.216 48.3187 152.745 47.8432C152.275 47.3677 151.902 46.8041 151.65 46.1845C151.397 45.565 151.27 44.9017 151.274 44.2327V19.3809H156.381V28.3979C157.602 27.6522 159.017 27.2886 160.445 27.3538C161.839 27.3286 163.221 27.6073 164.495 28.1704C165.77 28.7334 166.906 29.5674 167.826 30.6142C169.352 32.7766 170.126 35.3796 170.031 38.0244C170.102 40.3893 169.563 42.7326 168.468 44.8298C167.55 46.2861 166.26 47.472 164.732 48.2658C163.205 49.0596 161.493 49.4327 159.773 49.3469L156.341 49.3515ZM157.591 44.7969H159.286C160.741 44.9046 162.182 44.4441 163.306 43.5121C164.598 42.1805 164.759 39.7609 164.759 38.0291C164.839 36.5731 164.514 35.1235 163.821 33.8403C163.395 33.2165 162.817 32.7118 162.142 32.3741C161.466 32.0363 160.715 31.8765 159.961 31.9099C158.746 31.9408 157.539 32.1166 156.366 32.4335V43.6325C156.376 43.9471 156.509 44.2452 156.736 44.4633C156.962 44.6814 157.266 44.8023 157.58 44.8001" fill="#9BA0B1"/>
<path d="M171.046 48.2987V43.7895H171.685C173.582 44.5021 175.586 44.8848 177.612 44.9211C179.056 44.8804 181.474 44.6335 181.474 42.6657C181.474 41.5716 179.911 41.0511 178.939 40.6869C177.198 40.108 175.49 39.4371 173.82 38.6769C172.89 38.1515 172.121 37.3827 171.596 36.4529C171.07 35.5231 170.808 34.4677 170.838 33.4002C170.838 29.3707 174.589 27.3169 178.092 27.356C180.295 27.4042 182.479 27.783 184.57 28.4798V32.7937H183.892C182.239 32.1847 180.496 31.8561 178.734 31.8215C177.928 31.8215 175.671 31.9778 175.671 33.1923C175.671 33.8347 176.838 34.4849 177.728 34.7678C179.566 35.3426 181.367 36.0274 183.123 36.8185C184.139 37.3434 184.98 38.1519 185.545 39.1457C186.11 40.1395 186.375 41.2759 186.307 42.4172C186.307 47.2515 181.838 49.346 177.398 49.346C175.237 49.3241 173.092 48.9693 171.039 48.2941" fill="#9BA0B1"/>
</g>
<defs>
<clipPath id="clip0_5384_13531">
<rect width="186.071" height="54.4521" fill="white" transform="translate(0.240356 13.4453)"/>
</clipPath>
</defs>
</svg>
