<svg xmlns="http://www.w3.org/2000/svg" viewBox="4 4 376 412" width="384" height="420">
  <defs>
    <linearGradient id="ciTop" x1="0" x2="1" y1="0" y2="0">
      <stop offset="0%" stop-color="#FFFFFF" stop-opacity="0.25"/>
      <stop offset="50%" stop-color="#FFFFFF" stop-opacity="0.9"/>
      <stop offset="100%" stop-color="#FFFFFF" stop-opacity="0.25"/>
    </linearGradient>
    <linearGradient id="ciCardA" x1="0" y1="0" x2="1" y2="1">
      <stop offset="0%" stop-color="#5B4FD9"/>
      <stop offset="100%" stop-color="#304DBB"/>
    </linearGradient>
  </defs>
  <rect x="4" y="4" width="376" height="412" rx="24" fill="#FFFFFF" fill-opacity="0.7" stroke="#FFFFFF" stroke-opacity="0.5" stroke-width="1"/>
  <path d="M 28 5 H 356" stroke="url(#ciTop)" stroke-width="1" fill="none"/>
  <text x="24" y="36" font-family="Inter, system-ui, sans-serif" font-size="11" font-weight="500" letter-spacing="0.08em" fill="#6B7280">CARD ISSUING</text>
  <g transform="translate(316 28)">
    <circle cx="6" cy="6" r="4" fill="#10B981"/>
    <text x="18" y="10" font-family="Inter, system-ui, sans-serif" font-size="12" font-weight="500" fill="#0E1A33">Live</text>
  </g>

  <g transform="translate(60 80)">
    <rect x="22" y="22" width="240" height="150" rx="12" fill="#0E1A33" opacity="0.55"/>
    <rect x="0" y="0" width="240" height="150" rx="12" fill="url(#ciCardA)"/>
    <rect x="20" y="44" width="32" height="24" rx="4" fill="#D4A85A"/>
    <rect x="58" y="50" width="12" height="12" rx="2" fill="#FFFFFF" opacity="0.4"/>
    <text x="20" y="120" font-family="'IBM Plex Mono', ui-monospace, monospace" font-size="13" letter-spacing="0.05em" fill="#FFFFFF" fill-opacity="0.9">•••• •••• •••• 4210</text>
    <text x="220" y="138" font-family="Inter, system-ui, sans-serif" font-size="12" font-weight="700" fill="#FFFFFF" text-anchor="end">VISA</text>
  </g>

  <text x="24" y="300" font-family="Inter, system-ui, sans-serif" font-size="22" font-weight="600" fill="#0E1A33">Card Issuing</text>
  <text x="24" y="324" font-family="Inter, system-ui, sans-serif" font-size="13" fill="#6B7280">Virtual + physical programmes</text>

  <g transform="translate(24 348)">
    <text x="0" y="14" font-family="Inter, system-ui, sans-serif" font-size="13" font-weight="500" fill="#0E1A33">Cards issued</text>
    <text x="332" y="14" font-family="'IBM Plex Mono', ui-monospace, monospace" font-size="13" fill="#0E1A33" text-anchor="end">2,847</text>
  </g>
  <line x1="24" y1="370" x2="356" y2="370" stroke="#E5E7EB"/>
  <g transform="translate(24 378)">
    <text x="0" y="14" font-family="Inter, system-ui, sans-serif" font-size="13" font-weight="500" fill="#0E1A33">Today</text>
    <text x="332" y="14" font-family="'IBM Plex Mono', ui-monospace, monospace" font-size="13" fill="#304DBB" text-anchor="end">+128</text>
  </g>
</svg>
