<svg xmlns="http://www.w3.org/2000/svg" viewBox="4 4 580 352" width="588" height="360">
  <defs>
    <linearGradient id="fcTop" x1="0" x2="1" y1="0" y2="0">
      <stop offset="0%" stop-color="#FFFFFF" stop-opacity="0.25"/>
      <stop offset="50%" stop-color="#FFFFFF" stop-opacity="0.9"/>
      <stop offset="100%" stop-color="#FFFFFF" stop-opacity="0.25"/>
    </linearGradient>
    <linearGradient id="fcGauge" x1="0" x2="1" y1="0" y2="0">
      <stop offset="0%" stop-color="#22D3EE"/>
      <stop offset="100%" stop-color="#5B4FD9"/>
    </linearGradient>
  </defs>
  <rect x="4" y="4" width="580" height="352" rx="24" fill="#FFFFFF" fill-opacity="0.7" stroke="#FFFFFF" stroke-opacity="0.5" stroke-width="1"/>
  <path d="M 28 5 H 560" stroke="url(#fcTop)" stroke-width="1" fill="none"/>

  <text x="24" y="36" font-family="Inter, system-ui, sans-serif" font-size="11" font-weight="500" letter-spacing="0.08em" fill="#6B7280">FINANCIAL CRIME</text>
  <g transform="translate(508 28)">
    <circle cx="6" cy="6" r="4" fill="#0EA5E9"/>
    <text x="18" y="10" font-family="Inter, system-ui, sans-serif" font-size="12" font-weight="500" fill="#0E1A33">Live</text>
  </g>

  <!-- Left: Risk gauge (semicircle) -->
  <g transform="translate(32 76)">
    <path d="M 20 110 A 90 90 0 0 1 200 110" fill="none" stroke="#E5E7EB" stroke-width="14" stroke-linecap="round"/>
    <path d="M 20 110 A 90 90 0 0 1 110 20" fill="none" stroke="url(#fcGauge)" stroke-width="14" stroke-linecap="round"/>
    <text x="110" y="92" font-family="Inter, system-ui, sans-serif" font-size="32" font-weight="600" fill="#0E1A33" text-anchor="middle">0.04</text>
    <text x="110" y="112" font-family="Inter, system-ui, sans-serif" font-size="11" fill="#6B7280" text-anchor="middle">Risk score · low</text>
  </g>

  <!-- Right: Alerts list -->
  <g transform="translate(252 80)">
    <text x="0" y="14" font-family="Inter, system-ui, sans-serif" font-size="10" font-weight="600" letter-spacing="0.1em" fill="#6B7280">RECENT FLAGS</text>

    <g transform="translate(0 28)">
      <circle cx="4" cy="6" r="4" fill="#5B4FD9"/>
      <text x="16" y="10" font-family="Inter, system-ui, sans-serif" font-size="12" font-weight="500" fill="#0E1A33">Velocity threshold</text>
      <text x="300" y="10" font-family="'IBM Plex Mono', ui-monospace, monospace" font-size="11" fill="#6B7280" text-anchor="end">14:32</text>
    </g>
    <line x1="0" y1="26" x2="300" y2="26" stroke="#E5E7EB"/>

    <g transform="translate(0 38)">
      <circle cx="4" cy="6" r="4" fill="#5B4FD9"/>
      <text x="16" y="10" font-family="Inter, system-ui, sans-serif" font-size="12" font-weight="500" fill="#0E1A33">Geo anomaly · UAE → ID</text>
      <text x="300" y="10" font-family="'IBM Plex Mono', ui-monospace, monospace" font-size="11" fill="#6B7280" text-anchor="end">14:18</text>
    </g>
    <line x1="0" y1="56" x2="300" y2="56" stroke="#E5E7EB"/>

    <g transform="translate(0 68)">
      <circle cx="4" cy="6" r="4" fill="#304DBB"/>
      <text x="16" y="10" font-family="Inter, system-ui, sans-serif" font-size="12" font-weight="500" fill="#0E1A33">Sanctions screen hit</text>
      <text x="300" y="10" font-family="'IBM Plex Mono', ui-monospace, monospace" font-size="11" fill="#6B7280" text-anchor="end">14:02</text>
    </g>
    <line x1="0" y1="86" x2="300" y2="86" stroke="#E5E7EB"/>

    <g transform="translate(0 98)">
      <circle cx="4" cy="6" r="4" fill="#304DBB"/>
      <text x="16" y="10" font-family="Inter, system-ui, sans-serif" font-size="12" font-weight="500" fill="#0E1A33">MCC restriction</text>
      <text x="300" y="10" font-family="'IBM Plex Mono', ui-monospace, monospace" font-size="11" fill="#6B7280" text-anchor="end">13:54</text>
    </g>
  </g>

  <text x="24" y="252" font-family="Inter, system-ui, sans-serif" font-size="20" font-weight="600" fill="#0E1A33">Financial Crime</text>
  <text x="24" y="276" font-family="Inter, system-ui, sans-serif" font-size="13" fill="#6B7280">Fraud, AML, and sanctions at the transaction level</text>

  <g transform="translate(24 300)">
    <text x="0" y="14" font-family="Inter, system-ui, sans-serif" font-size="12" font-weight="500" fill="#0E1A33">Screened · 24h</text>
    <text x="536" y="14" font-family="'IBM Plex Mono', ui-monospace, monospace" font-size="13" fill="#0E1A33" text-anchor="end">2,841,567</text>
  </g>
  <line x1="24" y1="322" x2="560" y2="322" stroke="#E5E7EB"/>
  <g transform="translate(24 330)">
    <text x="0" y="14" font-family="Inter, system-ui, sans-serif" font-size="12" font-weight="500" fill="#0E1A33">Blocked</text>
    <text x="536" y="14" font-family="'IBM Plex Mono', ui-monospace, monospace" font-size="13" fill="#5B4FD9" text-anchor="end">147</text>
  </g>
</svg>
