<svg xmlns="http://www.w3.org/2000/svg" viewBox="4 4 372 312" width="380" height="320">
  <defs>
    <filter id="tmShadow" x="-15%" y="-15%" width="130%" height="130%">
      <feDropShadow dx="0" dy="10" stdDeviation="15" flood-color="#0F172A" flood-opacity="0"></feDropShadow>
    </filter>
    <linearGradient id="tmTopBorder" x1="0" x2="1" y1="0" y2="0">
      <stop offset="0%" stop-color="#FFFFFF" stop-opacity="0.25"></stop>
      <stop offset="50%" stop-color="#FFFFFF" stop-opacity="0.9"></stop>
      <stop offset="100%" stop-color="#FFFFFF" stop-opacity="0.25"></stop>
    </linearGradient>
  </defs>

  
  <g filter="url(#tmShadow)">
    <rect x="4" y="4" width="372" height="312" rx="24" fill="#FFFFFF" fill-opacity="0.7" stroke="#FFFFFF" stroke-opacity="0.5" stroke-width="1"></rect>
  </g>
  <path d="M 28 5 H 352" stroke="url(#tmTopBorder)" stroke-width="1" fill="none"></path>

  
  <text x="24" y="40" font-family="Inter, system-ui, sans-serif" font-size="11" font-weight="500" letter-spacing="0.08em" fill="#6B7280">TRANSACTION MONITORING</text>

  
  <g transform="translate(312 28)">
    <circle cx="6" cy="6" r="4" fill="#0EA5E9">
      
    </circle>
    <circle cx="6" cy="6" r="4" fill="#0EA5E9" opacity="0.3">
      
      
    </circle>
    <text x="18" y="10" font-family="Inter, system-ui, sans-serif" font-size="12" font-weight="500" fill="#0E1A33">Live</text>
  </g>

  
  <g transform="translate(24 76)">
    <text x="0" y="22" font-family="Inter, system-ui, sans-serif" font-size="28" font-weight="600" fill="#0E1A33" letter-spacing="-0.01em">12,847</text>
    <text x="0" y="44" font-family="Inter, system-ui, sans-serif" font-size="11" font-weight="400" fill="#6B7280">Transactions screened · last hour</text>

    
    <g transform="translate(212 4)">
      <path d="M 0 32 C 12 30, 22 28, 34 26 S 56 18, 68 16 S 92 10, 104 6 L 120 4" fill="none" stroke="#304DBB" stroke-width="2" stroke-linecap="round" stroke-linejoin="round"></path>
      <circle cx="120" cy="4" r="3" fill="#304DBB" stroke="#FFFFFF" stroke-width="1.5"></circle>
    </g>
  </g>

  
  <line x1="24" x2="356" y1="148" y2="148" stroke="#E5E7EB" stroke-width="1"></line>

  
  <g transform="translate(0 184)">
    <circle cx="32" cy="6" r="4" fill="#0EA5E9"></circle>
    <text x="48" y="11" font-family="Inter, system-ui, sans-serif" font-size="14" font-weight="500" fill="#0E1A33">Cleared</text>
    <text x="356" y="11" font-family="&#39;IBM Plex Mono&#39;, ui-monospace, monospace" font-size="14" fill="#0E1A33" text-anchor="end">12,791</text>
  </g>
  <line x1="24" x2="356" y1="214" y2="214" stroke="#E5E7EB" stroke-width="1"></line>

  
  <g transform="translate(0 236)">
    <circle cx="32" cy="6" r="4" fill="#304DBB"></circle>
    <text x="48" y="11" font-family="Inter, system-ui, sans-serif" font-size="14" font-weight="500" fill="#0E1A33">Flagged for review</text>
    <text x="356" y="11" font-family="&#39;IBM Plex Mono&#39;, ui-monospace, monospace" font-size="14" fill="#0E1A33" text-anchor="end">53</text>
  </g>
  <line x1="24" x2="356" y1="266" y2="266" stroke="#E5E7EB" stroke-width="1"></line>

  
  <g transform="translate(0 288)">
    <circle cx="32" cy="6" r="4" fill="#5B4FD9"></circle>
    <text x="48" y="11" font-family="Inter, system-ui, sans-serif" font-size="14" font-weight="500" fill="#0E1A33">Blocked</text>
    <text x="356" y="11" font-family="&#39;IBM Plex Mono&#39;, ui-monospace, monospace" font-size="14" fill="#0E1A33" text-anchor="end">3</text>
  </g>
</svg>