<svg xmlns="http://www.w3.org/2000/svg" viewBox="4 4 352 312" width="360" height="320">
  <defs>
    <filter id="stShadow" x="-15%" y="-15%" width="130%" height="130%">
      <feDropShadow dx="0" dy="10" stdDeviation="15" flood-color="#0F172A" flood-opacity="0"></feDropShadow>
    </filter>
    <linearGradient id="stTopBorder" x1="0" x2="1" y1="0" y2="0">
      <stop offset="0%" stop-color="#FFFFFF" stop-opacity="0.25"></stop>
      <stop offset="50%" stop-color="#FFFFFF" stop-opacity="0.9"></stop>
      <stop offset="100%" stop-color="#FFFFFF" stop-opacity="0.25"></stop>
    </linearGradient>
  </defs>

  
  <g filter="url(#stShadow)">
    <rect x="4" y="4" width="352" height="312" rx="24" fill="#FFFFFF" fill-opacity="0.7" stroke="#FFFFFF" stroke-opacity="0.5" stroke-width="1"></rect>
  </g>
  <path d="M 28 5 H 332" stroke="url(#stTopBorder)" stroke-width="1" fill="none"></path>

  
  <text x="24" y="40" font-family="Inter, system-ui, sans-serif" font-size="11" font-weight="500" letter-spacing="0.08em" fill="#6B7280">SETTLEMENT · TODAY</text>
  <g transform="translate(318 34)" fill="#6B7280">
    <circle cx="2" cy="2" r="1.6"></circle>
    <circle cx="10" cy="2" r="1.6"></circle>
    <circle cx="18" cy="2" r="1.6"></circle>
  </g>

  
  <g transform="translate(0 88)">
    <circle cx="36" cy="12" r="12" fill="#304DBB"></circle>
    <text x="36" y="16" font-family="Inter, system-ui, sans-serif" font-size="13" font-weight="600" fill="#FFFFFF" text-anchor="middle">$</text>
    <text x="60" y="17" font-family="Inter, system-ui, sans-serif" font-size="14" font-weight="500" fill="#0E1A33">USD</text>
    <text x="336" y="17" font-family="&#39;IBM Plex Mono&#39;, ui-monospace, monospace" font-size="14" fill="#0E1A33" text-anchor="end">$12.4M</text>
  </g>
  <line x1="24" x2="336" y1="120" y2="120" stroke="#E5E7EB" stroke-width="1"></line>

  
  <g transform="translate(0 144)">
    <circle cx="36" cy="12" r="12" fill="#304DBB"></circle>
    <text x="36" y="16" font-family="Inter, system-ui, sans-serif" font-size="13" font-weight="600" fill="#FFFFFF" text-anchor="middle">€</text>
    <text x="60" y="17" font-family="Inter, system-ui, sans-serif" font-size="14" font-weight="500" fill="#0E1A33">EUR</text>
    <text x="336" y="17" font-family="&#39;IBM Plex Mono&#39;, ui-monospace, monospace" font-size="14" fill="#0E1A33" text-anchor="end">€3.2M</text>
  </g>
  <line x1="24" x2="336" y1="176" y2="176" stroke="#E5E7EB" stroke-width="1"></line>

  
  <g transform="translate(0 200)">
    <circle cx="36" cy="12" r="12" fill="#304DBB"></circle>
    <text x="36" y="16" font-family="Inter, system-ui, sans-serif" font-size="13" font-weight="600" fill="#FFFFFF" text-anchor="middle">£</text>
    <text x="60" y="17" font-family="Inter, system-ui, sans-serif" font-size="14" font-weight="500" fill="#0E1A33">GBP</text>
    <text x="336" y="17" font-family="&#39;IBM Plex Mono&#39;, ui-monospace, monospace" font-size="14" fill="#0E1A33" text-anchor="end">£1.8M</text>
  </g>

  
  <g transform="translate(0 256)">
    
    <rect x="14" y="-12" width="2" height="48" rx="1" fill="#5B4FD9"></rect>

    
    <g transform="translate(36 12)">
      <polygon points="0,-12 10.39,-6 10.39,6 0,12 -10.39,6 -10.39,-6" fill="#5B4FD9"></polygon>
      <text y="4" font-family="Inter, system-ui, sans-serif" font-size="13" font-weight="700" fill="#FFFFFF" text-anchor="middle">$</text>
    </g>

    <text x="60" y="17" font-family="Inter, system-ui, sans-serif" font-size="14" font-weight="500" fill="#5B4FD9">USDC</text>
    <text x="108" y="17" font-family="Inter, system-ui, sans-serif" font-size="9" font-weight="600" letter-spacing="0.1em" fill="#5B4FD9">BLOCKCHAIN</text>

    <text x="336" y="17" font-family="&#39;IBM Plex Mono&#39;, ui-monospace, monospace" font-size="14" fill="#5B4FD9" text-anchor="end">$0.9M</text>
  </g>
</svg>