<svg xmlns="http://www.w3.org/2000/svg" viewBox="4 4 372 312" width="380" height="320">
  <defs>
    <filter id="onbShadow" x="-15%" y="-15%" width="130%" height="130%">
      <feDropShadow dx="0" dy="10" stdDeviation="15" flood-color="#0F172A" flood-opacity="0"></feDropShadow>
    </filter>
    <linearGradient id="onbTopBorder" x1="0" x2="1" y1="0" y2="0">
      <stop offset="0%" stop-color="#FFFFFF" stop-opacity="0.25"></stop>
      <stop offset="50%" stop-color="#FFFFFF" stop-opacity="0.9"></stop>
      <stop offset="100%" stop-color="#FFFFFF" stop-opacity="0.25"></stop>
    </linearGradient>
  </defs>

  
  <g filter="url(#onbShadow)">
    <rect x="4" y="4" width="372" height="312" rx="24" fill="#FFFFFF" fill-opacity="0.7" stroke="#FFFFFF" stroke-opacity="0.5" stroke-width="1"></rect>
  </g>
  <path d="M 28 5 H 352" stroke="url(#onbTopBorder)" stroke-width="1" fill="none"></path>

  
  <text x="24" y="40" font-family="Inter, system-ui, sans-serif" font-size="11" font-weight="500" letter-spacing="0.08em" fill="#6B7280">DIGITAL ONBOARDING</text>

  <g transform="translate(284 28)">
    <circle cx="6" cy="6" r="4" fill="#0EA5E9">
      
    </circle>
    <circle cx="6" cy="6" r="4" fill="#0EA5E9" opacity="0.3">
      
      
    </circle>
    <text x="18" y="10" font-family="Inter, system-ui, sans-serif" font-size="12" font-weight="500" fill="#0E1A33">In progress</text>
  </g>

  
  <text x="24" y="92" font-family="&#39;IBM Plex Mono&#39;, ui-monospace, monospace" font-size="32" fill="#0E1A33" letter-spacing="-0.01em">00:47</text>
  <text x="24" y="112" font-family="Inter, system-ui, sans-serif" font-size="12" font-weight="400" fill="#6B7280">Average time to verify</text>

  
  <g transform="translate(24 138)">
    
    <rect x="0" y="0" width="332" height="4" rx="2" fill="#E5E7EB"></rect>
    
    <rect x="0" y="0" width="249" height="4" rx="2" fill="#304DBB"></rect>

    
    
    
    <circle cx="41.5" cy="2" r="4" fill="#304DBB"></circle>
    <circle cx="124.5" cy="2" r="4" fill="#304DBB"></circle>
    <circle cx="207.5" cy="2" r="4" fill="#304DBB"></circle>
    <circle cx="290.5" cy="2" r="4" fill="#FFFFFF" stroke="#304DBB" stroke-width="1.5"></circle>
  </g>

  
  <g transform="translate(0 168)">
    <circle cx="34" cy="10" r="10" fill="#304DBB"></circle>
    <text x="34" y="14" font-family="Inter, system-ui, sans-serif" font-size="11" font-weight="600" fill="#FFFFFF" text-anchor="middle">1</text>
    <text x="56" y="14" font-family="Inter, system-ui, sans-serif" font-size="13" font-weight="500" fill="#0E1A33">Identity capture</text>
    
    <g transform="translate(280 5)" fill="none" stroke="#304DBB" stroke-width="2" stroke-linecap="round" stroke-linejoin="round">
      <polyline points="2,5 5,8 11,2"></polyline>
    </g>
    <text x="356" y="14" font-family="Inter, system-ui, sans-serif" font-size="12" font-weight="500" fill="#0E1A33" text-anchor="end">Complete</text>
  </g>
  <line x1="24" x2="356" y1="198" y2="198" stroke="#E5E7EB" stroke-width="1"></line>

  
  <g transform="translate(0 218)">
    <circle cx="34" cy="10" r="10" fill="#304DBB"></circle>
    <text x="34" y="14" font-family="Inter, system-ui, sans-serif" font-size="11" font-weight="600" fill="#FFFFFF" text-anchor="middle">2</text>
    <text x="56" y="14" font-family="Inter, system-ui, sans-serif" font-size="13" font-weight="500" fill="#0E1A33">Biometric match</text>
    <g transform="translate(280 5)" fill="none" stroke="#304DBB" stroke-width="2" stroke-linecap="round" stroke-linejoin="round">
      <polyline points="2,5 5,8 11,2"></polyline>
    </g>
    <text x="356" y="14" font-family="Inter, system-ui, sans-serif" font-size="12" font-weight="500" fill="#0E1A33" text-anchor="end">Complete</text>
  </g>
  <line x1="24" x2="356" y1="248" y2="248" stroke="#E5E7EB" stroke-width="1"></line>

  
  <g transform="translate(0 268)">
    <circle cx="34" cy="10" r="10" fill="#304DBB"></circle>
    <text x="34" y="14" font-family="Inter, system-ui, sans-serif" font-size="11" font-weight="600" fill="#FFFFFF" text-anchor="middle">3</text>
    <text x="56" y="14" font-family="Inter, system-ui, sans-serif" font-size="13" font-weight="500" fill="#0E1A33">Document review</text>
    <g transform="translate(280 5)" fill="none" stroke="#304DBB" stroke-width="2" stroke-linecap="round" stroke-linejoin="round">
      <polyline points="2,5 5,8 11,2"></polyline>
    </g>
    <text x="356" y="14" font-family="Inter, system-ui, sans-serif" font-size="12" font-weight="500" fill="#0E1A33" text-anchor="end">Complete</text>
  </g>
  <line x1="24" x2="356" y1="298" y2="298" stroke="#E5E7EB" stroke-width="1"></line>

  
  <g transform="translate(0 312)">
    <circle cx="34" cy="0" r="10" fill="#FFFFFF" stroke="#304DBB" stroke-width="1.5"></circle>
    <text x="34" y="4" font-family="Inter, system-ui, sans-serif" font-size="11" font-weight="600" fill="#304DBB" text-anchor="middle">4</text>
    <text x="56" y="4" font-family="Inter, system-ui, sans-serif" font-size="13" font-weight="500" fill="#0E1A33">Final approval</text>
    
    <g transform="translate(286 -4)">
      <circle cx="0" cy="4" r="4" fill="#0EA5E9">
        
      </circle>
      <circle cx="0" cy="4" r="4" fill="#0EA5E9" opacity="0.3">
        
        
      </circle>
    </g>
    <text x="356" y="4" font-family="Inter, system-ui, sans-serif" font-size="12" font-weight="500" fill="#6B7280" text-anchor="end">Reviewing</text>
  </g>
</svg>